<?xml version="1.0" encoding="UTF-8"?>
<svg version="1.1" xmlns="http://www.w3.org/2000/svg" width="512" height="512">
<path d="M0 0 C1.38177933 -0.01007584 1.38177933 -0.01007584 2.79147339 -0.02035522 C5.81847608 -0.03926326 8.84525649 -0.04325484 11.87231445 -0.04541016 C13.98265167 -0.05183972 16.092988 -0.0585682 18.20332336 -0.06558228 C22.61717803 -0.07753456 27.03095452 -0.08126487 31.44482422 -0.08007812 C37.10437833 -0.07987428 42.763434 -0.10725331 48.42286968 -0.14162254 C52.77655858 -0.16383237 57.13012598 -0.1679176 61.48386574 -0.16685867 C63.57110129 -0.1692206 65.6583399 -0.17807725 67.74551964 -0.19352341 C70.65883103 -0.21307697 73.57104671 -0.20738877 76.484375 -0.1953125 C77.77878761 -0.21217102 77.77878761 -0.21217102 79.09934998 -0.22937012 C82.92212986 -0.18901764 84.91011988 -0.16535453 88.08332825 2.10214233 C90.23802854 5.32129756 90.08836611 7.50863452 89.5480957 11.29052734 C87.99560547 13.47558594 87.99560547 13.47558594 85.5480957 15.29052734 C82.86202124 15.68597459 80.57180633 15.84865067 77.88793945 15.82958984 C77.14282608 15.84138275 76.39771271 15.85317566 75.63002014 15.86532593 C73.24833426 15.90055167 70.86752032 15.90973953 68.4855957 15.91552734 C47.35838327 15.56046297 47.35838327 15.56046297 28.8605957 24.54052734 C19.82048741 35.29092639 19.44603573 45.62864846 20.5480957 59.29052734 C21.23495644 63.19287637 22.38950562 66.88992227 23.6730957 70.63818359 C24.5480957 73.29052734 24.5480957 73.29052734 24.5480957 76.29052734 C39.0680957 76.29052734 53.5880957 76.29052734 68.5480957 76.29052734 C69.5380957 74.31052734 69.5380957 74.31052734 70.5480957 72.29052734 C78.07833048 64.14973299 87.60740947 60.8502601 98.4230957 59.97802734 C113.02666162 60.44347964 122.43663785 68.85279291 132.92407227 77.89599609 C137.06210499 81.44927976 141.27744543 84.8983742 145.5480957 88.29052734 C146.74305664 89.26699219 146.74305664 89.26699219 147.9621582 90.26318359 C160.14522906 99.60882915 174.70051924 100.71497334 189.5480957 99.29052734 C192.58182695 98.74162598 195.56517508 98.06790267 198.5480957 97.29052734 C194.75706057 93.0988137 190.19616056 90.03909618 185.6105957 86.79052734 C171.92802991 77.05039576 171.92802991 77.05039576 170.5480957 74.29052734 C170.19289667 70.45437777 170.00084977 68.144231 172.1105957 64.85302734 C175.4695566 62.69984728 177.60258921 62.94166151 181.5480957 63.29052734 C184.44262695 64.80224609 184.44262695 64.80224609 187.3605957 66.97802734 C187.90047119 67.37304443 188.44034668 67.76806152 188.99658203 68.17504883 C190.19454908 69.05255341 191.38760358 69.93679256 192.57641602 70.82666016 C194.71225204 72.41240468 196.87278916 73.95929789 199.0402832 75.50146484 C202.88935264 78.24214038 206.71223856 81.01613776 210.52172852 83.81152344 C212.2984722 85.10833227 214.08856625 86.38317901 215.8840332 87.65380859 C219.84097887 90.57333154 222.14937798 92.28506526 223.9855957 96.91552734 C223.43443437 101.16734336 221.53703538 103.39476336 218.5480957 106.29052734 C202.63473816 116.75716736 182.52819588 118.8343177 164.0012207 115.59912109 C148.92492543 112.42162972 138.48659497 104.99632391 127.30834961 94.86962891 C123.19123535 91.17621767 118.90320141 87.69916914 114.5480957 84.29052734 C113.39760742 83.3759375 113.39760742 83.3759375 112.22387695 82.44287109 C106.91218413 78.52167377 102.21731981 76.67960605 95.5480957 77.29052734 C89.31083572 78.83413701 85.09154803 80.77441277 81.5480957 86.29052734 C80.89614352 89.26974162 80.82193854 92.2047921 80.77075195 95.24755859 C80.75032333 96.10935226 80.72989471 96.97114594 80.70884705 97.85905457 C80.67552925 99.67857249 80.65351885 101.49832818 80.64208984 103.31811523 C80.61077424 106.08723957 80.49959614 108.84598749 80.38598633 111.61279297 C79.96408989 121.00118364 79.96408989 121.00118364 83.85888672 129.14599609 C86.66503687 131.16005901 89.469817 132.73423392 92.5480957 134.29052734 C106.53319409 145.33041712 112.63174391 159.68483713 115.2512207 176.89208984 C115.64193956 181.36479255 115.60834677 185.80405462 115.5480957 190.29052734 C119.65671387 190.29590562 123.7630323 190.26169725 127.87109375 190.19287109 C129.26455204 190.17485154 130.6581869 190.16711683 132.05175781 190.17041016 C139.9920105 190.18180628 146.33101163 189.96714527 152.71142578 184.74926758 C159.34609868 179.47980452 168.39785131 178.78363817 176.5480957 179.29052734 C188.64168335 180.77310376 198.03937962 186.79457987 205.5480957 196.29052734 C216.29948316 213.11226143 216.43255123 230.93360412 212.46142578 249.99389648 C209.72848285 261.75190677 204.39365344 271.76852341 198.5480957 282.29052734 C206.1380957 286.91052734 213.7280957 291.53052734 221.5480957 296.29052734 C223.49739286 293.36658161 224.3067298 291.20993711 225.30053711 287.87402344 C225.63519485 286.75833984 225.9698526 285.64265625 226.31465149 284.49316406 C226.6727037 283.27902832 227.03075592 282.06489258 227.3996582 280.81396484 C227.77507248 279.55293945 228.15048676 278.29191406 228.53727722 276.99267578 C229.75794654 272.88618293 230.9659369 268.77600796 232.1730957 264.66552734 C232.58716308 263.25888324 233.00125611 261.85224669 233.41537476 260.44561768 C239.37066542 240.19411715 245.19240246 219.95848529 249.5480957 199.29052734 C249.7877002 198.16420898 250.02730469 197.03789062 250.27416992 195.87744141 C253.1008301 182.32741961 255.12796719 168.71105624 256.7980957 154.97802734 C256.88136108 154.29337402 256.96462646 153.6087207 257.05041504 152.90332031 C258.15359292 143.71183521 258.97400698 134.52924601 259.5480957 125.29052734 C259.63687988 124.07147705 259.72566406 122.85242676 259.81713867 121.59643555 C261.05741439 102.84844711 260.04015821 90.07032193 247.5480957 75.29052734 C246.80172852 74.29537109 246.05536133 73.30021484 245.28637695 72.27490234 C243.4571227 69.85568576 241.54938971 67.56842296 239.5480957 65.29052734 C238.83137695 64.46552734 238.1146582 63.64052734 237.3762207 62.79052734 C235.13516796 60.25581941 232.85344936 57.76679515 230.5480957 55.29052734 C229.51942383 54.16324219 229.51942383 54.16324219 228.4699707 53.01318359 C205.54470231 28.85674338 172.29210124 17.95683541 139.68481445 16.86083984 C137.81043953 16.78727986 135.93609112 16.71304149 134.06176758 16.63818359 C131.13443814 16.52419908 128.20720232 16.41457535 125.27929688 16.31640625 C122.43463837 16.21917324 119.59116933 16.1040207 116.74731445 15.98583984 C115.86919601 15.9607132 114.99107758 15.93558655 114.08634949 15.90969849 C113.27152603 15.87311127 112.45670258 15.83652405 111.6171875 15.79882812 C110.90185349 15.77297638 110.18651947 15.74712463 109.44950867 15.7204895 C106.99500315 15.16545779 106.0927738 14.24805125 104.5480957 12.29052734 C103.42506437 8.60056725 103.21070723 6.98064012 104.9230957 3.47802734 C106.5480957 1.29052734 106.5480957 1.29052734 107.5480957 0.29052734 C110.4895851 0.16391266 113.40608657 0.10173365 116.34887695 0.08740234 C117.25445847 0.08170227 118.16003998 0.0760022 119.09306335 0.07012939 C121.02752509 0.0606474 122.96200321 0.05413281 124.89648438 0.05029297 C127.78262415 0.04078423 130.66798895 0.00988073 133.55395508 -0.02197266 C176.08703342 -0.26625511 212.54875277 13.49676001 242.9855957 43.35302734 C262.58704958 63.02766916 276.84504395 83.24376429 276.79467773 111.20288086 C276.51338975 164.96330858 264.28441174 216.46967431 248.84753418 267.65148926 C236.8978887 306.94645438 236.8978887 306.94645438 229.5480957 347.29052734 C229.45165771 348.05179932 229.35521973 348.81307129 229.25585938 349.59741211 C228.23817269 358.8673852 228.43833924 368.16672021 228.4855957 377.47802734 C228.49062191 379.21044792 228.49518283 380.94286992 228.49926758 382.67529297 C228.51018168 386.88040662 228.52738418 391.085451 228.5480957 395.29052734 C229.36793945 395.273125 230.1877832 395.25572266 231.0324707 395.23779297 C232.64895508 395.21749023 232.64895508 395.21749023 234.2980957 395.19677734 C235.36543945 395.179375 236.4327832 395.16197266 237.5324707 395.14404297 C242.13501839 395.36761232 243.99351856 396.32837972 247.5480957 399.29052734 C250.96795651 404.61043529 252.69246021 410.55056172 254.29711914 416.60888672 C254.54154251 417.50428665 254.78596588 418.39968658 255.03779602 419.32221985 C255.83640079 422.25729164 256.62241576 425.1955548 257.4074707 428.13427734 C257.96179755 430.1888862 258.51659431 432.24336832 259.07183838 434.29772949 C260.23059233 438.59313708 261.38298356 442.89018879 262.53100586 447.18847656 C264.00001391 452.6861356 265.48582447 458.17908882 266.97655869 463.67089081 C268.12471011 467.90869179 269.26338659 472.14899485 270.39929962 476.39009094 C270.94328184 478.41621697 271.49030058 480.44153035 272.04045868 482.46598816 C272.80890044 485.29888532 273.56436433 488.13494429 274.31665039 490.97216797 C274.54413467 491.80045609 274.77161896 492.6287442 275.0059967 493.48213196 C276.33683658 498.56908041 276.8915558 503.02725531 276.5480957 508.29052734 C275.0480957 510.79052734 275.0480957 510.79052734 272.5480957 512.29052734 C269.22504123 512.87222903 265.90689299 513.16643764 262.95703125 511.26489258 C260.79239178 508.23154664 260.01852301 504.816046 259.06762695 501.26318359 C258.84991135 500.47785751 258.63219574 499.69253143 258.40788269 498.88340759 C257.95025169 497.22460721 257.49750679 495.56445217 257.04931641 493.90307617 C256.36325429 491.36287101 255.66109793 488.82754322 254.95629883 486.29248047 C254.5132834 484.67881092 254.07119488 483.06488655 253.63012695 481.45068359 C253.31613701 480.31458397 253.31613701 480.31458397 252.99580383 479.15553284 C252.07272783 475.71194727 251.5480957 472.8839154 251.5480957 469.29052734 C206.3652242 473.99634392 158.48875892 484.52967751 119.80639648 509.6496582 C115.26329843 512.4413012 110.77408024 513.39883909 105.5480957 512.29052734 C103.45399987 510.60900756 102.66301543 509.8105391 102.0793457 507.16943359 C102.06387695 506.0228125 102.06387695 506.0228125 102.0480957 504.85302734 C102.00168945 503.71027344 102.00168945 503.71027344 101.9543457 502.54443359 C103.11310759 498.14571247 107.40821098 496.32702455 111.0949707 494.09912109 C146.04048 474.08982851 184.83221898 461.42204035 224.5480957 455.29052734 C225.78172852 455.09201172 227.01536133 454.89349609 228.28637695 454.68896484 C234.33293818 453.94609048 240.46869533 454.21368099 246.5480957 454.29052734 C246.21487305 453.09451904 245.88165039 451.89851074 245.53833008 450.66625977 C244.30446769 446.23373835 243.0756619 441.79982843 241.84838867 437.36547852 C241.31624235 435.4454985 240.78272063 433.52589914 240.24780273 431.60668945 C239.47970505 428.84994554 238.71654431 426.09187599 237.9543457 423.33349609 C237.71373413 422.47402878 237.47312256 421.61456146 237.22521973 420.72904968 C237.00499146 419.9284462 236.78476318 419.12784271 236.55786133 418.30297852 C236.2647406 417.24707771 236.2647406 417.24707771 235.96569824 416.16984558 C235.5480957 414.29052734 235.5480957 414.29052734 235.5480957 411.29052734 C230.56781135 411.52084033 225.58900219 411.77310737 220.6105957 412.04052734 C219.48036484 412.10089172 219.48036484 412.10089172 218.32730103 412.16247559 C205.12861577 412.88878789 192.08324156 414.27190636 178.99951172 416.14501953 C177.69941162 416.32194336 176.39931152 416.49886719 175.05981445 416.68115234 C173.91988037 416.84647461 172.77994629 417.01179688 171.60546875 417.18212891 C168.29876456 417.29936732 166.45843593 416.81665402 163.5480957 415.29052734 C160.98731806 412.7297497 161.23358207 410.86170131 161.0871582 407.36083984 C161.77862382 404.25510447 163.0152578 403.19418895 165.5480957 401.29052734 C168.16371845 400.55580185 170.50791361 400.04834938 173.1730957 399.66552734 C173.9158374 399.54781982 174.6585791 399.4301123 175.42382812 399.30883789 C177.79574381 398.94444368 180.16996871 398.6117653 182.5480957 398.29052734 C183.32717285 398.18466309 184.10625 398.07879883 184.90893555 397.96972656 C194.14260665 396.75309544 203.21883802 395.96125943 212.5480957 396.29052734 C212.38728516 395.7783667 212.22647461 395.26620605 212.06079102 394.73852539 C210.79872382 388.71245505 211.30423109 382.25148166 211.2980957 376.10302734 C211.29675629 375.31963989 211.29541687 374.53625244 211.29403687 373.72912598 C211.30075697 355.57556681 212.93947527 337.78509185 217.0949707 320.08349609 C217.55865384 317.2254492 217.58983753 315.94713126 216.5480957 313.29052734 C214.75973481 311.75538901 214.75973481 311.75538901 212.4621582 310.52099609 C211.6189502 310.02728516 210.77574219 309.53357422 209.90698242 309.02490234 C209.0047998 308.51443359 208.10261719 308.00396484 207.1730957 307.47802734 C205.33325872 306.42168645 203.49470553 305.36310631 201.6574707 304.30224609 C200.77124023 303.79097168 199.88500977 303.27969727 198.97192383 302.75292969 C196.93064805 301.52133804 195.02643001 300.24472851 193.1262207 298.81005859 C190.61472723 296.93369714 188.48889549 295.37755565 185.5480957 294.29052734 C182.7145184 294.78795784 180.62059989 295.75290293 178.0715332 297.07568359 C170.81473492 300.56928153 162.9270718 299.50317902 155.4152832 297.37646484 C150.92642494 295.67632507 147.29500288 293.25319814 143.5480957 290.29052734 C142.7024707 289.69240234 141.8568457 289.09427734 140.9855957 288.47802734 C138.73349253 285.05091382 138.73548056 281.26575279 139.5480957 277.29052734 C141.0828823 275.1712864 142.01916403 274.42276026 144.5637207 273.78662109 C149.1676172 273.66588954 151.76398413 274.00319075 155.2355957 277.16552734 C155.79762695 277.71080078 156.3596582 278.25607422 156.9387207 278.81787109 C160.45300753 282.03361414 163.80797131 282.29052734 168.4230957 282.29052734 C175.38525096 281.14788354 180.8218042 275.70639749 185.1105957 270.38037109 C195.17815516 255.74410938 198.8113348 237.81345825 197.5480957 220.29052734 C195.68019129 211.25482105 190.97771277 203.96574616 183.2355957 198.85302734 C177.45974846 195.95864304 171.10732084 195.57387175 164.9230957 197.29052734 C157.74979727 200.0963662 152.59642503 205.07562154 149.3371582 212.00537109 C146.07680375 221.44748672 146.22009438 230.45160596 146.24536133 240.37646484 C146.22538086 241.59076172 146.20540039 242.80505859 146.18481445 244.05615234 C146.1818335 245.15733398 146.17885254 246.25851563 146.17578125 247.39306641 C145.5480957 250.29052734 145.5480957 250.29052734 143.5222168 252.64916992 C139.74691831 254.73268098 136.52748467 254.84963751 132.32543945 254.78662109 C131.54294327 254.78807632 130.76044708 254.78953156 129.95423889 254.79103088 C128.30604311 254.78937629 126.65783118 254.77786417 125.00976562 254.75708008 C122.4899733 254.72807773 119.97228075 254.73648841 117.45239258 254.74951172 C115.84756467 254.74327504 114.24274338 254.73488465 112.63793945 254.72412109 C111.51125099 254.72852455 111.51125099 254.72852455 110.36180115 254.73301697 C107.19532041 254.67599039 104.90627654 254.48692369 102.10498047 252.95092773 C98.1856367 248.77099093 99.28496221 242.27343886 99.2355957 236.91552734 C99.2065918 235.87396484 99.17758789 234.83240234 99.14770508 233.75927734 C99.08383817 226.07559749 99.08383817 226.07559749 101.41918945 222.12646484 C103.96033987 219.93501402 105.18596964 219.29052734 108.5480957 219.29052734 C114.18664992 221.56763578 114.18664992 221.56763578 115.5480957 224.29052734 C115.68805639 228.95961595 115.59056856 233.61851356 115.5480957 238.29052734 C120.1680957 238.29052734 124.7880957 238.29052734 129.5480957 238.29052734 C129.51329102 237.21416016 129.47848633 236.13779297 129.44262695 235.02880859 C129.22763036 225.33391028 129.09340922 215.1999003 133.5480957 206.29052734 C93.6180957 206.29052734 53.6880957 206.29052734 12.5480957 206.29052734 C12.5480957 211.90052734 12.5480957 217.51052734 12.5480957 223.29052734 C10.34067939 238.74244151 6.22573011 255.00438365 -6.6940918 265.07177734 C-13.84177403 270.02750369 -20.89634763 270.29089867 -29.4519043 269.29052734 C-39.36090076 266.26949184 -45.33068814 259.80961464 -50.1394043 250.91552734 C-55.43611043 240.16886235 -57.69695932 228.18091081 -58.4519043 216.29052734 C-58.9365918 216.78681641 -59.4212793 217.28310547 -59.9206543 217.79443359 C-63.92441837 221.85209449 -68.00835204 225.73099308 -72.3269043 229.45068359 C-76.42570058 232.99945758 -80.42768053 236.65771744 -84.4519043 240.29052734 C-86.11831281 241.79081413 -87.78497782 243.29081607 -89.4519043 244.79052734 C-90.26530273 245.52271484 -91.07870117 246.25490234 -91.91674805 247.00927734 C-93.70009154 248.6140117 -95.48399661 250.2181221 -97.26831055 251.82177734 C-98.17452148 252.63646484 -99.08073242 253.45115234 -100.0144043 254.29052734 C-100.84069336 255.03302734 -101.66698242 255.77552734 -102.51831055 256.54052734 C-105.2325895 258.73838393 -105.2325895 258.73838393 -105.7644043 262.16552734 C-105.79661464 265.32746947 -105.79661464 265.32746947 -103.71496582 266.89967346 C-101.41219533 268.31493206 -99.54345501 269.01648844 -96.93041992 269.66918945 C-96.04269897 269.89630112 -95.15497803 270.12341278 -94.24035645 270.35740662 C-93.28922974 270.59185989 -92.33810303 270.82631317 -91.3581543 271.06787109 C-89.33856578 271.58652837 -87.31903631 272.10541562 -85.29956055 272.62451172 C-82.12085895 273.42988443 -78.94110129 274.23073016 -75.76000977 275.02661133 C-72.68542172 275.7994209 -69.61550981 276.58900549 -66.5456543 277.38037109 C-65.59452759 277.61280014 -64.64340088 277.84522919 -63.66345215 278.08470154 C-55.28859686 280.25703533 -55.28859686 280.25703533 -52.4519043 284.29052734 C-52.02612305 286.95458984 -52.02612305 286.95458984 -52.1394043 289.91552734 C-52.18387695 291.49720703 -52.18387695 291.49720703 -52.22924805 293.11083984 C-52.48921536 296.82335545 -52.96454573 300.47186863 -53.6237793 304.13427734 C-53.62034391 306.44866922 -53.62034391 306.44866922 -51.8972168 308.54443359 C-43.84651425 314.29309819 -26.05240491 309.70417735 -16.81518555 308.27099609 C-4.57086874 306.16817251 6.18772032 302.19744426 16.5480957 295.29052734 C20.27286519 294.80468785 22.10220812 295.04819714 25.4230957 296.85302734 C27.5480957 299.29052734 27.5480957 299.29052734 28.1105957 302.72802734 C27.31733018 307.75204235 25.62746175 309.74030415 21.58325195 312.75537109 C11.63760209 319.25893248 0.22642701 322.11067898 -11.2644043 324.54052734 C-12.00867676 324.70375488 -12.75294922 324.86698242 -13.51977539 325.03515625 C-22.06651569 326.71939322 -30.77021571 326.90917495 -39.4519043 327.29052734 C-39.3848479 334.87141126 -39.29501827 342.45178175 -39.18945312 350.03222656 C-39.15622649 352.61028944 -39.12818756 355.18842467 -39.10546875 357.76660156 C-39.07188223 361.47541089 -39.01956186 365.18355855 -38.96362305 368.89208984 C-38.95723312 370.04230621 -38.9508432 371.19252258 -38.94425964 372.37759399 C-38.83866041 378.14281269 -38.58999374 382.26687044 -35.4519043 387.29052734 C-35.4519043 387.95052734 -35.4519043 388.61052734 -35.4519043 389.29052734 C-33.80484154 390.00425454 -32.12989218 390.65289195 -30.4519043 391.29052734 C-29.76999023 391.55478516 -29.08807617 391.81904297 -28.38549805 392.09130859 C4.37289348 403.47849247 50.99423083 384.53439097 80.5480957 370.29052734 C97.66274327 361.99635808 112.76583824 351.55482526 127.0949707 339.07177734 C130.93219225 336.28551456 132.8946718 336.6257525 137.5480957 337.29052734 C140.1105957 339.35302734 140.1105957 339.35302734 141.5480957 342.29052734 C141.82105538 345.90724309 141.39098783 348.12110944 139.24731445 351.09521484 C117.48881567 374.34930889 82.6351121 391.05168594 52.5480957 400.29052734 C51.8880957 400.29052734 51.2280957 400.29052734 50.5480957 400.29052734 C50.60868164 401.4394043 50.66926758 402.58828125 50.73168945 403.77197266 C50.95847004 408.0882186 51.18111194 412.40467029 51.40258789 416.72119141 C51.49848724 418.57932173 51.59546668 420.43739666 51.69360352 422.29541016 C51.96990368 427.53383575 52.2268204 432.77238783 52.44848633 438.01342773 C52.53761805 440.05100515 52.64331768 442.08784211 52.7512207 444.12451172 C52.78731445 445.18476563 52.8234082 446.24501953 52.8605957 447.33740234 C52.91666992 448.65756348 52.91666992 448.65756348 52.97387695 450.00439453 C52.38507355 453.16583667 51.0405518 454.33137702 48.5480957 456.29052734 C45.1105957 456.85302734 45.1105957 456.85302734 41.5480957 456.29052734 C38.08706537 453.64867578 36.31861693 451.56265617 35.62231445 447.30224609 C35.47116104 445.86300274 35.34264229 444.42122166 35.2355957 442.97802734 C35.16276367 442.23746094 35.08993164 441.49689453 35.01489258 440.73388672 C34.83947537 438.92124225 34.69103124 437.10602194 34.5480957 435.29052734 C23.73184386 438.86539024 13.60040759 442.90592922 3.5480957 448.29052734 C3.32813479 455.72991954 4.16474839 462.75663875 5.2980957 470.10302734 C5.47421387 471.28268066 5.65033203 472.46233398 5.83178711 473.67773438 C7.08826321 481.88871127 8.58289767 490.02712278 10.50415039 498.11010742 C11.48245199 502.50158411 11.85023009 505.32698206 9.5480957 509.29052734 C7.8605957 511.16552734 7.8605957 511.16552734 5.5480957 512.29052734 C-0.45576014 512.07986574 -0.45576014 512.07986574 -3.08886719 509.9934082 C-4.65862907 508.03226023 -5.13367235 506.60962222 -5.69799805 504.16943359 C-5.89369385 503.33033447 -6.08938965 502.49123535 -6.29101562 501.62670898 C-6.48848389 500.71139404 -6.68595215 499.7960791 -6.8894043 498.85302734 C-7.10040771 497.89452881 -7.31141113 496.93603027 -7.52880859 495.94848633 C-17.51651627 448.83998614 -17.51651627 448.83998614 -10.69213867 437.87719727 C-5.17397409 430.81763986 6.73280948 427.20487826 14.7980957 423.91552734 C16.02012695 423.41484741 16.02012695 423.41484741 17.2668457 422.90405273 C22.96358359 420.67072475 28.52176134 419.35210582 34.5480957 418.29052734 C34.5480957 414.00052734 34.5480957 409.71052734 34.5480957 405.29052734 C33.26418945 405.55607422 31.9802832 405.82162109 30.6574707 406.09521484 C-22.9720665 416.91727289 -22.9720665 416.91727289 -44.2019043 402.97802734 C-50.88324291 397.87422702 -53.77178013 391.39828251 -55.4519043 383.29052734 C-55.82983923 378.72907192 -55.80307065 374.20092855 -55.74487305 369.62646484 C-55.7406282 368.35324371 -55.73638336 367.08002258 -55.73200989 365.76821899 C-55.71815345 362.41763639 -55.69130171 359.06769214 -55.65789795 355.71728516 C-55.62695833 352.28472343 -55.61345405 348.85209519 -55.59838867 345.41943359 C-55.56545516 338.70962507 -55.51535792 332.00011297 -55.4519043 325.29052734 C-56.07444092 325.15026123 -56.69697754 325.00999512 -57.33837891 324.86547852 C-62.26596853 323.52500565 -65.78607617 319.40024089 -68.3269043 315.16552734 C-70.24410412 310.26601668 -70.56348073 306.3407817 -70.5144043 301.04052734 C-70.50538086 299.77724609 -70.49635742 298.51396484 -70.48706055 297.21240234 C-70.47545898 296.24818359 -70.46385742 295.28396484 -70.4519043 294.29052734 C-71.53608643 294.00854492 -72.62026855 293.7265625 -73.73730469 293.43603516 C-77.78608108 292.38013131 -81.83124533 291.31091732 -85.87548828 290.23779297 C-87.62128589 289.77651089 -89.36802354 289.3187706 -91.11572266 288.86474609 C-93.63793537 288.20884133 -96.15641353 287.53997484 -98.67456055 286.86865234 C-99.44776138 286.67055969 -100.22096222 286.47246704 -101.01759338 286.26837158 C-109.29140361 284.03398638 -115.52601989 280.45115804 -120.4519043 273.29052734 C-123.54336527 266.96708444 -123.00755377 260.16138293 -121.7019043 253.41552734 C-117.80364452 244.22011073 -106.89998773 236.62932176 -99.4519043 230.29052734 C-97.6308632 228.73799012 -95.81865401 227.1750469 -94.0144043 225.60302734 C-93.17006836 224.87728516 -92.32573242 224.15154297 -91.45581055 223.40380859 C-87.53507268 219.26907334 -88.37299685 214.27417523 -88.49487305 208.86865234 C-88.51727075 207.18637259 -88.53872512 205.50408006 -88.55932617 203.82177734 C-88.59631507 201.18405281 -88.63925862 198.54698727 -88.69873047 195.90966797 C-88.75360613 193.35423551 -88.78242002 190.79953017 -88.80737305 188.24365234 C-88.83115524 187.46628723 -88.85493744 186.68892212 -88.87944031 185.88800049 C-88.90588983 180.28854889 -87.67147777 175.92840488 -84.4519043 171.29052734 C-80.26359523 167.95697523 -76.79807178 166.15258623 -71.44018555 166.19287109 C-70.30419922 166.19770508 -70.30419922 166.19770508 -69.14526367 166.20263672 C-67.96673828 166.21520508 -67.96673828 166.21520508 -66.7644043 166.22802734 C-65.96711914 166.23253906 -65.16983398 166.23705078 -64.34838867 166.24169922 C-62.38286173 166.25346884 -60.41737345 166.27140386 -58.4519043 166.29052734 C-58.47546997 165.43394531 -58.47546997 165.43394531 -58.49951172 164.56005859 C-59.07021622 140.32558539 -58.99137048 106.23878096 -42.3269043 86.54052734 C-40.92058259 84.71075682 -40.92058259 84.71075682 -40.4519043 82.29052734 C-41.30083128 78.03722989 -42.56098852 74.14468299 -44.0847168 70.09521484 C-46.70291234 63.04248856 -46.69548167 56.05126572 -46.7644043 48.60302734 C-46.80791016 47.06485352 -46.80791016 47.06485352 -46.85229492 45.49560547 C-46.95043263 33.54545264 -42.67438626 22.322211 -34.7097168 13.32177734 C-25.06693606 4.19914661 -13.03046014 -0.01378326 0 0 Z M-23.4519043 25.29052734 C-31.12732562 36.48541015 -32.33133589 48.160919 -30.07104492 61.54589844 C-29.14335889 65.55672061 -27.86797075 69.42904491 -26.4519043 73.29052734 C-26.1219043 74.28052734 -25.7919043 75.27052734 -25.4519043 76.29052734 C-14.5619043 76.29052734 -3.6719043 76.29052734 7.5480957 76.29052734 C6.5580957 71.34052734 5.5680957 66.39052734 4.5480957 61.29052734 C2.62962894 44.76219833 4.62117562 32.67421191 12.5480957 18.29052734 C12.8780957 17.30052734 13.2080957 16.31052734 13.5480957 15.29052734 C0.24263389 14.90976691 -13.47010271 15.30872575 -23.4519043 25.29052734 Z M-28.918396 94.67366028 C-39.94973441 113.49817278 -42.6850894 134.53735286 -42.5144043 155.97802734 C-42.50989258 157.07308594 -42.50538086 158.16814453 -42.50073242 159.29638672 C-42.48909586 161.96116043 -42.47274994 164.62581252 -42.4519043 167.29052734 C-40.49969971 167.31240112 -40.49969971 167.31240112 -38.50805664 167.3347168 C-33.66598437 167.39281668 -28.82437144 167.47004926 -23.98266602 167.55297852 C-21.88964306 167.58617283 -19.79653177 167.61422179 -17.70336914 167.63696289 C-14.68947818 167.67060965 -11.67639267 167.72293127 -8.6628418 167.77880859 C-7.73136322 167.78519852 -6.79988464 167.79158844 -5.84017944 167.798172 C0.63090458 167.94365241 5.16992338 168.84808009 9.8605957 173.66552734 C11.5480957 177.29052734 11.5480957 177.29052734 12.5480957 190.29052734 C41.2580957 190.29052734 69.9680957 190.29052734 99.5480957 190.29052734 C99.5480957 175.16628089 96.73300061 161.42941725 86.0480957 150.16552734 C81.41213474 145.7914451 76.36765126 142.09064153 71.10668945 138.51269531 C66.63899015 135.47231624 66.63899015 135.47231624 65.5480957 133.29052734 C65.39063744 130.23010794 65.28942693 127.18910835 65.23168945 124.12646484 C65.21090836 123.2192569 65.19012726 122.31204895 65.16871643 121.37734985 C65.10322435 118.47348754 65.04433757 115.5695333 64.9855957 112.66552734 C64.94241016 110.69937192 64.89879586 108.73322587 64.85473633 106.76708984 C64.74754331 101.94166372 64.64627489 97.11614494 64.5480957 92.29052734 C52.75235772 92.17474592 40.95675461 92.08586887 29.16056442 92.03146648 C23.683255 92.00535771 18.20633394 91.96993578 12.72924805 91.91333008 C7.4448489 91.85905674 2.16082361 91.82911646 -3.1238327 91.81614113 C-5.14133339 91.80689289 -7.1588133 91.78883328 -9.17615509 91.76187706 C-11.9993177 91.72564899 -14.82092996 91.72057938 -17.64428711 91.72290039 C-18.48082321 91.70492401 -19.31735931 91.68694763 -20.179245 91.66842651 C-24.1637389 91.70393894 -25.99821349 91.85216969 -28.918396 94.67366028 Z M-72.4519043 182.29052734 C-72.4519043 190.21052734 -72.4519043 198.13052734 -72.4519043 206.29052734 C-69.8119043 204.31052734 -67.1719043 202.33052734 -64.4519043 200.29052734 C-63.2969043 199.42427734 -62.1419043 198.55802734 -60.9519043 197.66552734 C-57.99816038 194.69581725 -58.08648883 191.99854031 -58.0769043 187.91552734 C-58.2006543 186.05927734 -58.3244043 184.20302734 -58.4519043 182.29052734 C-63.0719043 182.29052734 -67.6919043 182.29052734 -72.4519043 182.29052734 Z M-42.4519043 183.29052734 C-42.4931543 188.26115234 -42.5344043 193.23177734 -42.5769043 198.35302734 C-42.5951123 199.88709229 -42.61332031 201.42115723 -42.63208008 203.00170898 C-42.69599853 219.14936682 -42.31616239 237.98135957 -30.4519043 250.29052734 C-27.19124871 253.11250035 -24.88913595 253.91042084 -20.4675293 253.68115234 C-16.7809861 252.96670599 -14.67404428 251.15100564 -12.4519043 248.29052734 C-3.21691364 233.7719479 -3.02720794 218.49128439 -3.2644043 201.91552734 C-3.3262793 195.76927734 -3.3881543 189.62302734 -3.4519043 183.29052734 C-16.3219043 183.29052734 -29.1919043 183.29052734 -42.4519043 183.29052734 Z " fill="#000000" transform="translate(185.451904296875,-0.29052734375)"/>
<path d="M0 0 C10.27622396 7.00651634 13.79484753 24.64095075 17 36 C17 36.66 17 37.32 17 38 C18.2375 38.38091797 18.2375 38.38091797 19.5 38.76953125 C27.84520802 41.70339344 38.94711689 45.69263656 44.20703125 53.1484375 C45.75278749 56.75774026 46.1402177 60.23537061 45 64 C41.4501807 69.22988645 37.73742196 71.58978735 32.0625 74.1875 C31.37220703 74.51685547 30.68191406 74.84621094 29.97070312 75.18554688 C29.29072266 75.50974609 28.61074219 75.83394531 27.91015625 76.16796875 C27.24765869 76.48467529 26.58516113 76.80138184 25.90258789 77.12768555 C24.19296474 77.91152791 22.441607 78.60277465 20.6875 79.28125 C17.05833225 81.60222938 16.18480348 84.37801853 14.9375 88.3125 C14.69128906 89.01947021 14.44507812 89.72644043 14.19140625 90.45483398 C13.20722095 93.29356175 12.27670217 96.14854492 11.34814453 99.00585938 C8.87819767 106.57187927 6.82081131 112.43789141 1 118 C-2.20254147 119.60127074 -4.45314564 119.40701607 -8 119 C-14.33156911 116.14942343 -16.41801469 110.3636134 -18.82958984 104.23950195 C-20.15222646 100.7126133 -21.21164795 97.2337603 -22.0390625 93.55859375 C-23.88900841 85.57552512 -23.88900841 85.57552512 -29.00976562 79.47412109 C-32.98558903 77.21107448 -37.08992291 75.54538035 -41.37109375 73.95703125 C-46.44872148 72.02951984 -51.50000223 68.99999554 -54 64 C-54.86739353 59.59756868 -55.11232825 55.70084541 -52.58984375 51.84375 C-46.86893255 46.28818305 -34.28661263 38 -26 38 C-25.85304688 37.40316406 -25.70609375 36.80632813 -25.5546875 36.19140625 C-15.53756233 -2.55299169 -15.53756233 -2.55299169 0 0 Z M-5 24 C-5.19110352 24.57443848 -5.38220703 25.14887695 -5.57910156 25.74072266 C-6.46025216 28.37198043 -7.35499186 30.99842509 -8.25 33.625 C-8.55035156 34.52863281 -8.85070312 35.43226562 -9.16015625 36.36328125 C-11.95930467 44.5225011 -14.54181832 49.69953023 -22.39453125 53.7265625 C-23.17183594 54.10554688 -23.94914062 54.48453125 -24.75 54.875 C-25.93916016 55.47828125 -25.93916016 55.47828125 -27.15234375 56.09375 C-29.09452195 57.07653897 -31.0463422 58.04023362 -33 59 C-28.75594123 62.43269459 -23.95061828 64.64636375 -19.09375 67.0859375 C-12.32616961 71.27295062 -10.62990701 77.08595833 -8.25 84.3125 C-7.93417969 85.24384766 -7.61835937 86.17519531 -7.29296875 87.13476562 C-6.5194194 89.42025233 -5.75545276 91.70848118 -5 94 C-3.34487974 91.51731961 -2.54064787 89.94706503 -1.66796875 87.19921875 C-1.30541992 86.10383789 -1.30541992 86.10383789 -0.93554688 84.98632812 C-0.44141374 83.46780411 0.04570976 81.94697914 0.52539062 80.42382812 C2.74172473 73.79809442 5.67764912 69.0632303 11.98828125 65.6640625 C13.42271086 64.96977237 14.86434739 64.29019253 16.3125 63.625 C17.05306641 63.27050781 17.79363281 62.91601562 18.55664062 62.55078125 C20.36492195 61.68747275 22.18164003 60.84187289 24 60 C20.70761283 56.4487929 16.67355066 54.86679517 12.26953125 53.04492188 C6.14249533 50.23068375 3.53931705 45.79076661 1.05273438 39.66723633 C0.20352067 37.29327592 -0.56899766 34.90902605 -1.3125 32.5 C-1.57611328 31.67757812 -1.83972656 30.85515625 -2.11132812 30.0078125 C-2.7507006 28.0083204 -3.37677958 26.00458528 -4 24 C-4.33 24 -4.66 24 -5 24 Z " fill="#000000" transform="translate(54,9)"/>
<path d="M0 0 C5.37880119 3.00212159 7.92057569 8.3510994 9.62573242 14.11523438 C9.79564697 14.80939453 9.96556152 15.50355469 10.140625 16.21875 C12.32357015 25.32519489 12.32357015 25.32519489 18.76953125 31.66796875 C21.52474306 33.06776343 24.33271493 34.17575129 27.22265625 35.26171875 C31.49931365 36.96621448 33.44131538 39.18888084 36 43 C36.6640625 45.125 36.6640625 45.125 36.625 47 C36.64433594 47.928125 36.64433594 47.928125 36.6640625 48.875 C35.60462859 52.2651885 33.63665861 54.70271329 31 57 C29.12706932 57.92003612 27.2493124 58.57748028 25.27661133 59.25439453 C20.37829418 61.00260776 16.29985879 62.82064353 13.55957031 67.41503906 C11.51149057 72.12876827 10.06564529 76.94259003 8.67578125 81.8828125 C7.28598461 86.68741356 5.55623936 89.49546687 2 93 C-1.14911479 94.57455739 -3.52008816 94.34799118 -7 94 C-13.67751413 90.26059209 -15.62436138 84.00939309 -18 77 C-18.21011719 75.95457031 -18.42023438 74.90914063 -18.63671875 73.83203125 C-19.84194792 68.07093109 -19.84194792 68.07093109 -23.65722656 63.79589844 C-26.39104568 62.25128388 -29.16308697 60.9383412 -32.07348633 59.76074219 C-37.20524029 57.67067493 -39.87523442 55.64216614 -43 51 C-43.6640625 48.875 -43.6640625 48.875 -43.625 47 C-43.63789062 46.38125 -43.65078125 45.7625 -43.6640625 45.125 C-42.60431147 41.7337967 -40.63276667 39.30214772 -38 37 C-36.11193679 36.04699227 -34.21714835 35.35271763 -32.22558594 34.64404297 C-27.52246519 32.92218914 -23.33532265 31.181059 -20.64160156 26.78125 C-18.44879138 21.74691521 -17.10383582 16.53388132 -15.72143555 11.23388672 C-13.18660872 3.38493057 -8.43291129 -1.03562069 0 0 Z M-4 27 C-4.30292969 27.81984375 -4.60585937 28.6396875 -4.91796875 29.484375 C-5.33691406 30.56203125 -5.75585938 31.6396875 -6.1875 32.75 C-6.59355469 33.81734375 -6.99960938 34.8846875 -7.41796875 35.984375 C-10.22510223 41.33525659 -14.66190588 43.51716552 -20 46 C-20 46.66 -20 47.32 -20 48 C-19.39671875 48.29132813 -18.7934375 48.58265625 -18.171875 48.8828125 C-9.7897759 53.18201817 -6.99892452 58.30311889 -4 67 C-2.31821339 64.47732009 -1.09893258 62.18908177 0.125 59.4375 C0.47820312 58.65246094 0.83140625 57.86742187 1.1953125 57.05859375 C2.12135538 55.05792202 2.12135538 55.05792202 2 53 C5.58752742 51.13448574 9.27812193 49.57464072 13 48 C13 47.34 13 46.68 13 46 C12.39671875 45.69707031 11.7934375 45.39414062 11.171875 45.08203125 C4.39913206 41.5318031 0.76680213 38.56473194 -1.75 31.1875 C-2.17711618 29.79482862 -2.59739857 28.39995496 -3 27 C-3.33 27 -3.66 27 -4 27 Z " fill="#000000" transform="translate(103,388)"/>
<path d="M0 0 C3.73064057 3.85283882 5.34286938 7.91541843 7.0625 12.875 C7.79366359 14.92691266 8.52923779 16.97619823 9.28540039 19.01904297 C9.96840201 20.91240654 10.5798559 22.8311239 11.1875 24.75 C13.64070537 29.14885101 16.41343394 30.23760986 20.9375 32.125 C30.00916251 36.02801951 30.00916251 36.02801951 33 41 C33.53125 43.28125 33.53125 43.28125 33.5 45.5 C33.51546875 46.59828125 33.51546875 46.59828125 33.53125 47.71875 C32.75225279 51.06385565 31.45624036 52.59003105 29 55 C27.02540946 56.00035262 25.01346565 56.80310252 22.95800781 57.62353516 C16.82523178 60.15973479 12.24273669 62.49567545 9.50390625 68.78515625 C8.26751683 72.23185788 7.32397969 75.71135993 6.421875 79.2578125 C5.15223106 84.09494303 3.25073477 87.1958426 0 91 C-3.58954783 92.60247671 -5.75826522 93.23652091 -9.625 92.5 C-16.34345707 88.25676395 -18.45508314 81.97316688 -20.8125 74.75 C-21.12380859 73.83992188 -21.43511719 72.92984375 -21.75585938 71.9921875 C-24 65.34361264 -24 65.34361264 -24 63 C-25.1446875 62.690625 -25.1446875 62.690625 -26.3125 62.375 C-33.92987385 59.53462331 -41.73882433 56.19991751 -46 49 C-46.68960593 45.55197036 -46.70626256 43.43489544 -45.13671875 40.24609375 C-40.59492342 33.96069898 -32.95839001 30.93501322 -26 28 C-25.34 28 -24.68 28 -24 28 C-23.76216797 27.03513672 -23.76216797 27.03513672 -23.51953125 26.05078125 C-17.7944861 3.87809259 -17.7944861 3.87809259 -11 -1 C-7.18256249 -2.90871876 -3.80794378 -1.49597791 0 0 Z M-7 26 C-7.27972656 26.80824219 -7.55945313 27.61648438 -7.84765625 28.44921875 C-10.48395502 35.47652318 -12.32125607 39.42210147 -19 43 C-21.9375 44.3125 -21.9375 44.3125 -24 45 C-21.97711436 47.02288564 -20.77280588 47.56715018 -18.1875 48.625 C-12.18860107 51.54279476 -9.95208665 56.46110226 -7.6875 62.5 C-7.460625 63.325 -7.23375 64.15 -7 65 C-4.72814737 64.15180434 -4.72814737 64.15180434 -4.09765625 61.48828125 C-3.75605469 60.44027344 -3.41445313 59.39226562 -3.0625 58.3125 C-0.53473893 51.88585896 2.61694824 49.71902511 8.76953125 46.890625 C9.87361328 46.44976562 9.87361328 46.44976562 11 46 C8.52345389 44.04255526 6.59426758 42.8347016 3.625 41.625 C-2.02674352 38.57330263 -3.76803526 31.65758095 -6 26 C-6.33 26 -6.66 26 -7 26 Z " fill="#000000" transform="translate(479,327)"/>
<path d="M0 0 C2.3802859 1.92424981 2.96198654 2.87509864 3.875 5.875 C4.0309152 9.7728801 3.59774895 11.08737239 1 14 C-4.3892007 16.23107965 -9.9281626 17.96803613 -15.47802734 19.75390625 C-25.10779368 22.86372473 -34.31724844 26.2149075 -43.3671875 30.75 C-46 32 -46 32 -48 32 C-47.91435791 32.93682617 -47.82871582 33.87365234 -47.74047852 34.83886719 C-47.41767158 38.37252423 -47.09529496 41.90622002 -46.77319336 45.43994141 C-46.63468925 46.9585114 -46.49602218 48.47706655 -46.35717773 49.99560547 C-46.29022705 50.7279541 -46.22327637 51.46030273 -46.15429688 52.21484375 C-46.08753754 52.94280151 -46.0207782 53.67075928 -45.95199585 54.42077637 C-45.82010774 55.87794591 -45.69121348 57.33538957 -45.56533813 58.79309082 C-45.28107691 62.06836987 -44.95897412 65.31830875 -44.53857422 68.58007812 C-44.41111816 69.63130859 -44.28366211 70.68253906 -44.15234375 71.765625 C-44.02722412 72.66571289 -43.90210449 73.56580078 -43.77319336 74.49316406 C-44.09527215 78.05301882 -45.51874881 79.48444939 -48 82 C-50.43505859 83.6340332 -50.43505859 83.6340332 -53.1484375 85.05078125 C-54.1475415 85.5809082 -55.14664551 86.11103516 -56.17602539 86.65722656 C-57.23168701 87.2034668 -58.28734863 87.74970703 -59.375 88.3125 C-61.54900566 89.45806436 -63.7221871 90.60519428 -65.89453125 91.75390625 C-66.94463379 92.3070752 -67.99473633 92.86024414 -69.07666016 93.43017578 C-73.84925218 95.99304255 -78.4793494 98.78014197 -83.09765625 101.609375 C-86.46333203 103.22200027 -89.28545536 103.75411998 -93 104 C-95.8125 102.75 -95.8125 102.75 -98 100 C-99.13695982 96.393093 -99.54970362 92.74664075 -100 89 C-100.18448805 87.64429747 -100.37077869 86.28883937 -100.55859375 84.93359375 C-102.77276682 68.4811364 -102.77276682 68.4811364 -100.5 64.125 C-97.46162086 61.54237773 -95.85895726 61.44113078 -92 61.43359375 C-89.02031545 62.27744972 -87.86352127 63.53791729 -86 66 C-85.20703125 69.3828125 -85.20703125 69.3828125 -84.8125 73.125 C-84.44645136 77.71882738 -84.44645136 77.71882738 -83 82 C-72.605 76.06 -72.605 76.06 -62 70 C-62.33 66.6175 -62.66 63.235 -63 59.75 C-63.70715916 51.81808835 -64.25465329 43.9014436 -64.375 35.9375 C-64.40078125 35.12442383 -64.4265625 34.31134766 -64.453125 33.47363281 C-64.47100598 28.16074668 -63.68363196 25.08599791 -60 21 C-53.72272749 15.82677039 -46.52211312 12.85006774 -39 9.9375 C-37.35547852 9.29288818 -37.35547852 9.29288818 -35.67773438 8.63525391 C-9.8135519 -1.35359337 -9.8135519 -1.35359337 0 0 Z " fill="#000000" transform="translate(327,408)"/>
<path d="M0 0 C2.75 2.1875 2.75 2.1875 5 5 C5.46535156 5.53109375 5.93070313 6.0621875 6.41015625 6.609375 C11.1520346 12.79098801 10.92819845 19.50435971 10 27 C8.31158597 33.27692747 4.32181838 37.43649166 -1 41 C-6.92154856 43.96077428 -14.15180305 44.00413889 -20.5 42.34765625 C-26.86915562 39.84087709 -31.10930464 35.83354783 -34.1328125 29.703125 C-36.04501008 23.74258118 -36.2162463 16.44784107 -34.125 10.51953125 C-30.68093937 4.66236235 -25.81809258 0.1071078 -19.5 -2.375 C-12.36801048 -3.64856956 -6.55163992 -3.06567302 0 0 Z M-16.6875 14.625 C-19.25307173 16.82146475 -19.25307173 16.82146475 -19.5625 20 C-19.18560655 23.04601142 -19.18560655 23.04601142 -17.4375 25.4375 C-14.97376884 27.33441535 -14.97376884 27.33441535 -11.375 26.9375 C-7.74483076 26.3249155 -7.74483076 26.3249155 -6 23 C-5.41654524 20.04253508 -5.41654524 20.04253508 -6 17 C-8.20488259 14.53583866 -8.20488259 14.53583866 -11 13 C-14.09556503 12.74129033 -14.09556503 12.74129033 -16.6875 14.625 Z " fill="#000000" transform="translate(35,140)"/>
<path d="M0 0 C1.88194717 3.13657862 1.73622004 6.3833177 1.125 9.875 C-0.375 12.375 -0.375 12.375 -2.875 13.875 C-6.66654935 14.55095245 -9.77743524 14.35342566 -13.3125 12.8125 C-15.66759706 9.89217965 -15.81111417 7.58037805 -15.875 3.875 C-14.57526849 0.62567122 -13.52844937 -0.71880174 -10.5625 -2.5625 C-6.40011983 -3.43369585 -3.56523217 -2.1391393 0 0 Z " fill="#000000" transform="translate(67.875,218.125)"/>
</svg>
