<?xml version="1.0" encoding="UTF-8"?>
<svg version="1.1" xmlns="http://www.w3.org/2000/svg" width="512" height="512">
<path d="M0 0 C1.07338623 -0.00250763 1.07338623 -0.00250763 2.16845703 -0.00506592 C15.45458412 -0.00692651 28.33620765 0.96915839 41.21875 4.36328125 C48.79662327 6.17019011 56.39748603 3.85786594 63.9140625 2.35473633 C73.41404708 0.48478169 82.78979913 0.01012361 92.46435547 -0.04516602 C93.85248042 -0.05663412 95.24056309 -0.07700359 96.62841797 -0.10668945 C109.8836663 -0.3885485 126.90240083 1.0870385 137.671875 9.625 C139.52668659 12.00648649 139.47372487 14.3694217 139.34375 17.3046875 C138.9375 19.25 138.9375 19.25 136.9375 21.8125 C130.81286509 24.74722089 123.71820965 21.72033338 117.5625 19.75 C99.39401307 14.25302811 81.44479777 16.67066905 62.99023438 19.90234375 C59.98034803 20.41210566 56.96165319 20.83397893 53.9375 21.25 C51.25701931 33.64722321 53.94499364 41.54554361 59.9375 52.25 C67.81146286 67.03917894 68.37879186 79.23299749 64.10546875 95.42578125 C62.8764393 99.44992784 61.45683039 103.32760264 59.9375 107.25 C61.05125 107.72308594 62.165 108.19617188 63.3125 108.68359375 C94.94552952 122.30991475 121.91200118 142.78812398 142.9375 170.25 C143.85761637 171.43785378 144.77821686 172.62533267 145.69921875 173.8125 C148.12562826 176.94804509 150.53545978 180.09575511 152.9375 183.25 C155.44972745 180.17468709 157.75700907 177.06616328 159.9375 173.75 C171.00083862 157.97151707 186.29584385 144.78409821 199.9375 131.25 C196.65319073 122.09116346 189.29202156 116.64327829 181.625 111.125 C179.85050078 109.82175691 178.07708708 108.51703466 176.3046875 107.2109375 C175.41233398 106.55577148 174.51998047 105.90060547 173.60058594 105.22558594 C169.43201425 102.13316917 165.33825094 98.94746132 161.25 95.75 C160.54512451 95.19940918 159.84024902 94.64881836 159.11401367 94.08154297 C157.75375511 93.01825247 156.3964959 91.95111214 155.04248047 90.87988281 C153.53183411 89.7101919 151.9963067 88.57237034 150.44580078 87.45605469 C149.21772705 86.55741699 149.21772705 86.55741699 147.96484375 85.640625 C147.21323975 85.10469727 146.46163574 84.56876953 145.68725586 84.01660156 C143.52948044 81.83805225 143.33754621 80.51756047 143.1875 77.5 C143.34877615 74.93750117 143.60104507 73.66836825 145.21606445 71.66015625 C147.90720637 69.45564119 150.12758576 69.63689087 153.50732422 69.75976562 C158.04421116 70.67498252 161.06654557 73.54167513 164.5 76.5 C166.06647682 77.78535649 167.63421224 79.06918046 169.203125 80.3515625 C169.98751953 81.00286133 170.77191406 81.65416016 171.58007812 82.32519531 C175.21574914 85.29367401 178.97667282 88.0850408 182.75 90.875 C186.86884829 93.93521101 190.95190394 97.01597348 194.9375 100.25 C196.77983343 98.40766657 196.19734732 95.60244739 196.25 93.125 C196.10424207 77.22119063 190.42996428 64.33945128 179.703125 52.7734375 C174.31078202 47.85330535 168.10376728 44.115729 161.9375 40.25 C156.09821429 36.57142857 156.09821429 36.57142857 154.9375 34.25 C154.58576148 30.45122401 154.41048556 28.10639847 156.4375 24.8125 C159.90647113 22.64439304 162.99878726 22.61162996 166.9375 23.25 C169.97783238 24.55243962 172.60234295 26.30362925 175.3125 28.1875 C176.05346924 28.68604492 176.79443848 29.18458984 177.55786133 29.69824219 C183.4668106 33.74898666 188.90969939 38.13382008 193.9375 43.25 C194.7728125 44.08724609 194.7728125 44.08724609 195.625 44.94140625 C208.75453656 59.13087936 213.49840595 77.52001675 213.14453125 96.36328125 C212.91468575 100.67830518 212.2882537 104.72236209 211.27734375 108.91796875 C210.88627143 111.60153397 211.27388847 113.63731965 211.9375 116.25 C214.86033827 116.55311303 214.86033827 116.55311303 216.46677303 115.08428383 C217.01188817 114.53380568 217.55700331 113.98332752 218.11863708 113.41616821 C218.74804199 112.78799698 219.3774469 112.15982574 220.02592468 111.51261902 C221.05227776 110.46537407 221.05227776 110.46537407 222.09936523 109.39697266 C222.82489594 108.66866745 223.55042664 107.94036224 224.29794312 107.18998718 C226.70420185 104.77140372 229.09989749 102.34261206 231.49609375 99.9140625 C233.16294381 98.23654165 234.83060287 96.55982429 236.4990387 94.88388062 C240.89814586 90.46193925 245.28906326 86.03196454 249.67749023 81.59942627 C256.69739516 74.50947478 263.72463138 67.42686174 270.76115608 60.353405 C273.22067371 57.87715547 275.67368312 55.39458445 278.12632751 52.91152954 C279.63270071 51.3946959 281.13932478 49.87811134 282.64624023 48.36181641 C283.32845139 47.66770157 284.01066254 46.97358673 284.71354675 46.25843811 C285.66188385 45.30772179 285.66188385 45.30772179 286.62937927 44.33779907 C287.44761752 43.51095077 287.44761752 43.51095077 288.28238583 42.66739845 C291.44578363 39.95834356 293.28790496 39.21581079 297.5 39.4375 C300.9375 40.25 300.9375 40.25 302.875 41.3125 C304.69374875 44.62904185 304.81751799 47.66345838 303.9375 51.25 C298.9647101 58.66059837 291.46541615 64.82954565 285.13061523 71.10693359 C283.94696549 72.28374083 282.76357211 73.46080596 281.58041382 74.6381073 C279.04559031 77.15967114 276.50934594 79.67979391 273.97207451 82.1988945 C269.95419208 86.1887731 265.94186592 90.18420789 261.93067932 94.18081665 C260.55315604 95.55319707 259.17562589 96.9255706 257.79808903 98.29793739 C257.10859956 98.9848413 256.41911009 99.67174521 255.708727 100.37946439 C246.37986858 109.67237036 237.04626759 118.96047357 227.70239258 128.23828125 C221.38422444 134.51186493 215.07327723 140.79261726 208.7703262 147.08149016 C205.44113746 150.40263329 202.10837451 153.7200016 198.76663017 157.02851486 C195.62330784 160.14062892 192.48955494 163.26207213 189.36266708 166.39069557 C188.21894953 167.53173322 187.07183315 168.66937665 185.92094994 169.80318642 C179.54862133 176.08510873 174.06297888 182.2056845 169.9375 190.25 C169.40640625 191.27609375 168.8753125 192.3021875 168.328125 193.359375 C163.51128371 204.51069251 162.74514308 215.94195719 162.36621094 227.94580078 C162.15698792 233.30263144 161.92980817 239.04423024 158.1875 243.1875 C155.17183139 244.61156573 153.23583831 244.73100767 149.9375 244.25 C147.13677575 242.2819235 146.12221518 241.00254332 145.3046875 237.671875 C144.84830549 233.41878308 145.08506068 229.38253008 145.375 225.125 C145.46278865 223.419299 145.55002952 221.71356973 145.63671875 220.0078125 C145.78964088 217.25521424 146.02481426 214.6037252 146.39453125 211.8671875 C147.27352193 203.26479873 143.2475708 198.43229601 138.0703125 192.046875 C137.54727539 191.41587891 137.02423828 190.78488281 136.48535156 190.13476562 C135.00576846 188.33312816 133.58518339 186.50039179 132.1796875 184.640625 C125.91057902 176.37918608 119.09797605 168.74469912 111.9375 161.25 C111.26332031 160.52296875 110.58914063 159.7959375 109.89453125 159.046875 C95.42894397 143.87188792 68.78365411 123.06126302 46.9375 122.25 C44.1491573 123.08242799 41.70332159 123.96162503 39.0625 125.125 C37.95201294 125.60102661 37.95201294 125.60102661 36.8190918 126.08666992 C9.23727526 138.21283005 -14.43951753 157.70544631 -33.0625 181.25 C-33.99582743 182.41557789 -34.92943253 183.58093347 -35.86328125 184.74609375 C-38.22164276 187.69872889 -40.54330676 190.67735671 -42.84375 193.67529297 C-43.90773135 195.05002848 -44.99857346 196.40389055 -46.09375 197.75390625 C-49.03070587 201.62597779 -50.36751968 204.33635324 -50.24804688 209.24829102 C-50.22693848 210.21904572 -50.20583008 211.18980042 -50.18408203 212.18997192 C-49.97995775 217.32745827 -49.71798558 222.45776037 -49.40625 227.58984375 C-49.2692516 229.9784996 -49.13254278 232.36717208 -48.99609375 234.75585938 C-48.78219393 238.44284234 -48.56598012 242.12964211 -48.34423828 245.81616211 C-47.53548645 259.35129344 -46.88918685 272.8816147 -46.71875 286.44140625 C-46.67699646 288.15021217 -46.67699646 288.15021217 -46.63439941 289.89353943 C-46.59223124 298.94860765 -48.57364868 306.76790795 -54.25 314 C-54.75917969 314.67546875 -55.26835937 315.3509375 -55.79296875 316.046875 C-59.1743037 319.32927244 -63.0929712 321.73358813 -67.0625 324.25 C-66.29788452 325.00676025 -66.29788452 325.00676025 -65.51782227 325.77880859 C-63.21761905 328.05827034 -60.92127123 330.34157761 -58.625 332.625 C-57.82255859 333.4190625 -57.02011719 334.213125 -56.19335938 335.03125 C-55.42958984 335.79179687 -54.66582031 336.55234375 -53.87890625 337.3359375 C-52.81845093 338.3885376 -52.81845093 338.3885376 -51.73657227 339.46240234 C-49.57999433 341.76522627 -49.10787363 342.90969776 -48.6875 346.0625 C-49.0625 349.25 -49.0625 349.25 -51.1875 352.125 C-54.0625 354.25 -54.0625 354.25 -56.875 355 C-65.74130548 352.91381048 -73.68621922 341.84607042 -80.03686523 335.51586914 C-81.88147588 333.68105853 -83.73649583 331.8571952 -85.59179688 330.03320312 C-86.7766976 328.85482587 -87.96096508 327.67581143 -89.14453125 326.49609375 C-89.694543 325.9584288 -90.24455475 325.42076385 -90.81123352 324.86680603 C-96.83446035 318.80844632 -98.50742107 313.39316554 -98.94140625 305.015625 C-98.99841705 304.1169873 -99.05542786 303.21834961 -99.11416626 302.29248047 C-99.29699057 299.36226462 -99.46129132 296.43134067 -99.625 293.5 C-99.74737495 291.46835921 -99.87083804 289.43678368 -99.99536133 287.40527344 C-100.24457913 283.30572294 -100.4862707 279.20583481 -100.72167969 275.10546875 C-101.02514312 269.8397008 -101.35556528 264.57603123 -101.6953125 259.3125 C-101.83712369 257.07406895 -101.97798126 254.8355814 -102.11813354 252.5970459 C-102.2448546 250.58182622 -102.37444189 248.56678741 -102.50415039 246.55175781 C-102.72930342 242.78512012 -102.9070847 239.02013611 -103.0625 235.25 C-103.10006409 234.50951416 -103.13762817 233.76902832 -103.17633057 233.00610352 C-103.28662411 230.68649064 -103.36019347 228.36814022 -103.42578125 226.046875 C-103.46462936 225.32840393 -103.50347748 224.60993286 -103.54350281 223.86968994 C-103.60977187 220.08606241 -103.37574194 218.58052946 -100.73120117 215.79003906 C-97.49482496 213.92240928 -95.7439862 213.70169355 -92.0625 214.25 C-88.9265843 216.02984405 -88.22147264 216.77308207 -87.0625 220.25 C-86.82824085 222.8337674 -86.64028321 225.40216115 -86.48999023 227.9909668 C-86.44107635 228.77834732 -86.39216248 229.56572784 -86.34176636 230.37696838 C-86.18087162 232.98415744 -86.02586817 235.59165975 -85.87109375 238.19921875 C-85.76070733 240.01424367 -85.65003122 241.82925099 -85.53907776 243.64424133 C-85.30711622 247.45302702 -85.07793404 251.26196657 -84.85083008 255.07104492 C-84.56048048 259.93896279 -84.26444326 264.80651335 -83.96644497 269.67396832 C-83.73720868 273.42548855 -83.51044541 277.17715503 -83.28447151 280.92887306 C-83.17625008 282.72255011 -83.06740586 284.51618969 -82.95791435 286.30978966 C-82.80473509 288.82707547 -82.65474761 291.34453214 -82.50561523 293.86206055 C-82.43784126 294.96198837 -82.43784126 294.96198837 -82.36869812 296.08413696 C-82.09285096 300.81419093 -82.024746 305.51177898 -82.0625 310.25 C-75.77590491 308.74854137 -71.20804828 307.52615236 -67.0625 302.25 C-66.53052002 301.59765381 -65.99854004 300.94530762 -65.45043945 300.27319336 C-63.33192045 295.65866024 -63.69541592 291.26913357 -63.79296875 286.25390625 C-63.80434372 285.15687881 -63.81571869 284.05985138 -63.82743835 282.92958069 C-63.99740834 270.90583106 -64.53704252 258.89649954 -65.17944336 246.88989258 C-65.37647662 243.15954374 -65.5548328 239.42858497 -65.73242188 235.69726562 C-66.43222353 212.56267656 -66.43222353 212.56267656 -73.6875 190.875 C-74.12642578 189.96427734 -74.12642578 189.96427734 -74.57421875 189.03515625 C-80.29313574 177.94462493 -91.03850623 169.15377021 -99.80547905 160.46242142 C-101.91408171 158.37143365 -104.01892863 156.27672927 -106.12281799 154.18099976 C-112.09734873 148.23074434 -118.07770799 142.28637132 -124.06225586 136.34619141 C-127.7402501 132.6949534 -131.41337855 129.03887887 -135.08354378 125.37977219 C-136.47831941 123.99120003 -137.87498912 122.60452771 -139.27358818 121.21980667 C-141.22138016 119.29120032 -143.16296183 117.35653987 -145.10327148 115.42041016 C-145.68038879 114.85205444 -146.2575061 114.28369873 -146.85211182 113.69812012 C-151.92960938 108.60808696 -151.92960938 108.60808696 -153.0625 105.25 C-152.93335587 101.56939225 -152.84109391 99.1783235 -150.4375 96.3125 C-146.77323587 94.67322394 -145.08283399 94.47187084 -141.0625 95.25 C-137.35604909 97.85365126 -134.23977805 101.04136723 -131.0625 104.25 C-129.88624197 105.41489645 -128.70911647 106.57891743 -127.53125 107.7421875 C-124.35424898 110.89127488 -121.20333401 114.06485955 -118.0625 117.25 C-117.0725 116.59 -116.0825 115.93 -115.0625 115.25 C-115.206875 114.074375 -115.35125 112.89875 -115.5 111.6875 C-115.58121094 111.02621094 -115.66242188 110.36492187 -115.74609375 109.68359375 C-115.99531071 107.7667769 -116.2818384 105.85480986 -116.58203125 103.9453125 C-119.0458659 84.99581999 -115.30116148 66.24374291 -104.25 50.4375 C-102.8837266 48.68488337 -101.4885324 46.95434728 -100.0625 45.25 C-99.43085937 44.49332031 -98.79921875 43.73664062 -98.1484375 42.95703125 C-75.57614165 18.33666995 -32.94372575 0.04022547 0 0 Z M-69.0625 41.25 C-69.64966797 41.61125977 -70.23683594 41.97251953 -70.84179688 42.34472656 C-86.07635649 51.79299778 -96.25868118 63.62434201 -100.4453125 81.4453125 C-101.40558955 87.36499507 -101.7979525 93.27231046 -101.0625 99.25 C-100.4025 99.91 -99.7425 100.57 -99.0625 101.25 C-98.20011719 100.54617187 -97.33773437 99.84234375 -96.44921875 99.1171875 C-88.29399928 92.50595037 -79.98241398 86.15675379 -71.4987793 79.97216797 C-70.733479 79.41416504 -69.96817871 78.85616211 -69.1796875 78.28125 C-68.45918213 77.75869629 -67.73867676 77.23614258 -66.99633789 76.69775391 C-65.37933153 75.48719366 -63.83015197 74.18672942 -62.30078125 72.8671875 C-59.7476535 71.02251929 -58.48463399 70.75885068 -55.375 70.875 C-54.60800781 70.88789062 -53.84101563 70.90078125 -53.05078125 70.9140625 C-51.0625 71.25 -51.0625 71.25 -49.0625 73.25 C-47.79728371 76.52087166 -47.89870505 78.95175558 -49.0625 82.25 C-52.58187496 85.90185553 -56.60867485 88.69574067 -60.75097656 91.6015625 C-65.12838011 94.72325966 -69.36150102 98.03797076 -73.625 101.3125 C-78.41676979 104.96934316 -83.20867084 108.62480937 -88.05078125 112.21484375 C-98.05521507 119.26427766 -98.05521507 119.26427766 -104.80430603 129.15975952 C-105.29101152 131.27390964 -105.29101152 131.27390964 -104.02174377 132.87857056 C-103.47517624 133.40800262 -102.9286087 133.93743469 -102.36547852 134.48291016 C-101.75056046 135.09099518 -101.1356424 135.6990802 -100.50209045 136.32559204 C-99.82206467 136.97353729 -99.14203888 137.62148254 -98.44140625 138.2890625 C-97.74869125 138.96995941 -97.05597626 139.65085632 -96.3422699 140.35238647 C-94.11464714 142.53869708 -91.87102009 144.70760624 -89.625 146.875 C-67.46675934 168.40070202 -67.46675934 168.40070202 -61.0625 179.875 C-60.485 180.89851562 -59.9075 181.92203125 -59.3125 182.9765625 C-58.9 183.72679687 -58.4875 184.47703125 -58.0625 185.25 C-54.36721574 181.70621581 -51.21061211 177.96186886 -48.125 173.875 C-26.1844499 145.38053123 2.87561449 121.25201852 36.83081055 108.54125977 C40.83453802 107.00795065 42.84637113 105.87164191 44.625 101.9375 C49.19532949 91.57102417 53.56172811 79.61952074 49.875 68.375 C48.39585126 64.87434798 46.45240095 61.69289815 44.5 58.4375 C36.90942294 45.47562477 36.40273545 35.01978558 36.9375 20.25 C34.7506784 19.76774669 32.56300745 19.28934417 30.375 18.8125 C28.54775391 18.41224609 28.54775391 18.41224609 26.68359375 18.00390625 C-9.26588771 10.76902625 -38.86087408 22.50785626 -69.0625 41.25 Z " fill="#000000" transform="translate(208.0625,-0.25)"/>
<path d="M0 0 C2.74429321 1.98239136 2.74429321 1.98239136 5.39697266 4.62060547 C5.88739548 5.10051437 6.3778183 5.58042328 6.88310242 6.07487488 C8.49212766 7.65760613 10.07832853 9.26114637 11.6640625 10.8671875 C12.78463867 11.98371642 13.90610376 13.09935384 15.02841187 14.21414185 C17.37648315 16.55337868 19.71339384 18.90308906 22.04296875 21.26074219 C25.00944362 24.26124347 28.00183194 27.2342024 31.00330544 30.19964409 C33.32561503 32.50010834 35.6332432 34.81487824 37.93690109 37.1340065 C39.0335775 38.2346486 40.13462635 39.33095386 41.24031448 40.42254257 C50.96211299 50.04750463 56.16037265 59.10616309 57.9375 72.8125 C58.08952881 73.87275391 58.24155762 74.93300781 58.39819336 76.02539062 C59.35761771 82.84671516 60.21734082 89.68108693 61.08695984 96.514328 C61.34776932 98.56269313 61.60934172 100.61096125 61.87165833 102.65913391 C62.52971332 107.79834897 63.17838845 112.93832085 63.80639648 118.08129883 C64.04905586 120.01256531 64.29196546 121.94380037 64.53515625 123.875 C64.63821075 124.74714645 64.74126526 125.61929291 64.84744263 126.51786804 C66.69803326 140.97722722 71.99174008 149.30572227 82.21118164 159.48583984 C82.90628342 160.18605255 83.60138519 160.88626526 84.31755066 161.60769653 C86.59332093 163.89725327 88.87632704 166.1794215 91.16015625 168.4609375 C92.7540796 170.05875157 94.34778033 171.65678774 95.94126892 173.2550354 C99.27068635 176.5918898 102.60392045 179.92487453 105.93969727 183.25537109 C110.21424279 187.52410146 114.47726637 191.80413842 118.73731327 196.08733177 C122.02031734 199.38505546 125.31020899 202.67583933 128.60214043 205.9646492 C130.17735275 207.54037483 131.7502034 209.11846505 133.32063484 210.69895554 C135.51273701 212.90338051 137.71415029 215.09806971 139.91821289 217.29052734 C140.56406342 217.94402161 141.20991394 218.59751587 141.87533569 219.27081299 C145.01735396 222.37634397 147.58821278 224.90106505 152 226 C155.22457063 225.67754294 157.92734147 225.02421951 161 224 C162.89027274 219.80430116 163.37662524 216.08802848 161.875 211.75 C160.06300831 208.9618516 160.06300831 208.9618516 157.8125 206.5625 C155.38973838 203.13721633 155.40224535 201.10956321 156 197 C157.5625 194.5625 157.5625 194.5625 160 193 C164.00043484 192.58583733 166.25733421 192.55185788 169.73828125 194.65234375 C170.58777344 195.40644531 171.43726563 196.16054688 172.3125 196.9375 C173.26640625 197.76636719 174.2203125 198.59523438 175.203125 199.44921875 C176.90932324 201.00529061 178.6089979 202.56860518 180.296875 204.14453125 C196.07047614 218.80310197 220.2102971 238.36606801 242.8046875 239.08984375 C264.04111823 238.03612772 281.86275479 224.69108944 298 212 C299.485 210.83791016 299.485 210.83791016 301 209.65234375 C315.42298491 198.10137763 328.30058946 184.82862538 341.3125 171.75 C343.03557148 170.02190026 344.75887717 168.29403402 346.48242188 166.56640625 C350.65764734 162.38028771 354.82998989 158.19131353 359 154 C358.24654297 153.47470703 357.49308594 152.94941406 356.71679688 152.40820312 C355.72744141 151.70630859 354.73808594 151.00441406 353.71875 150.28125 C352.73841797 149.59095703 351.75808594 148.90066406 350.74804688 148.18945312 C344.73776884 143.4008805 340.78808986 136.45835049 339 129 C338.59874318 124.2640086 338.62606808 119.56241619 338.6875 114.8125 C338.68266602 112.9262793 338.68266602 112.9262793 338.67773438 111.00195312 C338.74541301 99.44121172 338.74541301 99.44121172 342.1875 94.1875 C345.16543471 92.23643933 347.54808463 92.57608057 351 93 C353.67800676 94.90279427 354.76942408 96.12101664 355.60424805 99.3034668 C356.01337994 102.09116681 356.05008768 104.64262365 355.95703125 107.45703125 C355.93576172 108.48763672 355.91449219 109.51824219 355.89257812 110.58007812 C355.83947482 112.72363821 355.77449639 114.86693917 355.69726562 117.00976562 C355.58749271 123.5351554 356.06259108 128.62019906 360 134 C364.39152911 137.79268423 368.50526108 138.69980458 374 140 C374.02047394 139.41941833 374.04094788 138.83883667 374.06204224 138.24066162 C374.69375391 120.686509 375.57994377 103.15164975 376.61962891 85.61767578 C376.79369084 82.67045316 376.95981197 79.7229312 377.11962891 76.77490234 C377.3163754 73.14675885 377.52622603 69.51959838 377.74557877 65.8927536 C377.86447534 63.87417105 377.97033919 61.85483425 378.07589722 59.83551025 C378.15252594 58.61523132 378.22915466 57.39495239 378.30810547 56.13769531 C378.369487 55.06948547 378.43086853 54.00127563 378.49411011 52.9006958 C379.06095853 49.65047307 380.07014423 47.65840602 382 45 C384.85324437 43.57337781 386.83454549 43.68966132 390 44 C392.67640686 45.53573608 392.67640686 45.53573608 395 48 C395.41026821 50.80612091 395.51565487 52.95982721 395.36499023 55.74072266 C395.34380095 56.49275278 395.32261168 57.24478291 395.3007803 58.01960182 C395.22745175 60.34835954 395.11744649 62.67309117 395 65 C394.94343784 66.35599388 394.88743217 67.71201113 394.83206177 69.0680542 C394.64400523 73.09776552 394.40940304 77.1221929 394.16015625 81.1484375 C394.07248164 82.62234221 393.98520544 84.09627067 393.89830017 85.57022095 C393.71723878 88.62399236 393.53296167 91.67754449 393.34594727 94.73095703 C393.10820351 98.61338932 392.87640775 102.49614716 392.6467371 106.37906456 C392.46723259 109.40944555 392.28576366 112.43970621 392.10360527 115.46992874 C392.01758322 116.90101836 391.93187625 118.33212696 391.84651375 119.76325607 C391.6514996 123.01816781 391.44707348 126.27188398 391.22512817 129.52508545 C391.08291041 131.7202553 390.96843107 133.91755672 390.89279175 136.11602783 C390.27340035 148.59951784 382.27761822 155.11958444 373.79111671 163.43437767 C371.86321806 165.32365464 369.94513974 167.2224358 368.02922058 169.12385559 C363.96537017 173.15360332 359.88981148 177.17137878 355.8125 181.1875 C351.07473405 185.8543642 346.34194929 190.52606189 341.62161827 195.21056557 C339.734249 197.07853082 337.83805807 198.93721433 335.94136047 200.79570007 C334.78443956 201.94172312 333.6279379 203.08816962 332.47192383 204.23510742 C331.94462677 204.74690552 331.41732971 205.25870361 330.87405396 205.78601074 C328.01110608 208.64770646 326.0752588 211.06759486 325 215 C325.32245706 218.22457063 325.97578049 220.92734147 327 224 C328.88871524 224.92341047 328.88871524 224.92341047 331.1875 225.375 C331.94417969 225.56835938 332.70085937 225.76171875 333.48046875 225.9609375 C338.45612317 226.03807943 342.00290676 223.16958683 345.49720764 219.89720154 C346.80398782 218.61420267 348.10269211 217.32294513 349.39477539 216.02514648 C350.10938431 215.31900711 350.82399323 214.61286774 351.56025696 213.8853302 C353.91391472 211.55501758 356.256259 209.21372061 358.59765625 206.87109375 C360.23590866 205.23994582 361.87445791 203.60909599 363.51329041 201.97853088 C366.94546862 198.55979291 370.37165705 195.13518038 373.79418945 191.70678711 C378.16744431 187.32764562 382.55863593 182.96699739 386.95501041 178.61108303 C390.34472923 175.24729732 393.72282305 171.87201946 397.09777641 168.49342537 C398.71125841 166.88163022 400.32870032 165.27378856 401.950243 163.67010307 C404.22388509 161.41875276 406.4808955 159.15188229 408.73461914 156.88061523 C409.39917114 156.22932648 410.06372314 155.57803772 410.74841309 154.90701294 C417.20991069 148.32885967 421.21596488 140.9139058 422.40625 131.703125 C422.54166954 130.71327606 422.54166954 130.71327606 422.67982483 129.70343018 C422.96980016 127.55411121 423.23469031 125.40248901 423.5 123.25 C423.70259689 121.725678 423.90698143 120.20159267 424.11303711 118.67773438 C425.11422736 111.20341888 426.03661231 103.71921506 426.962677 96.23529053 C427.38752819 92.81694119 427.82048842 89.39963413 428.25341797 85.9822998 C428.55534583 83.55745655 428.8408991 81.13108854 429.125 78.70410156 C430.80884092 64.85707033 433.80747503 54.03328301 443.84106445 43.83666992 C444.30832947 43.3594751 444.77559448 42.88228027 445.25701904 42.390625 C446.78696684 40.83173593 448.32435849 39.28049548 449.86328125 37.73046875 C450.39147146 37.19662378 450.91966167 36.66277882 451.46385765 36.11275673 C454.25459738 33.29216731 457.05093741 30.47727941 459.85229492 27.66723633 C462.73752801 24.77100256 465.60371534 21.8566576 468.465909 18.93767834 C470.67865955 16.68763464 472.9047577 14.45116397 475.13469505 12.21816444 C476.19738305 11.14943963 477.25508664 10.07573363 478.30755043 8.99693871 C479.78142398 7.48882741 481.27322118 6.00093002 482.77075195 4.51635742 C483.61362259 3.66619553 484.45649323 2.81603363 485.3249054 1.94010925 C488.61986233 -0.44955443 490.96321752 -0.84620925 495 -1 C497.9375 0.4375 497.9375 0.4375 500 3 C500.67685592 6.3842796 500.9097955 7.81523422 500 11 C495.43310355 17.60219663 488.94444701 23.12839658 483.234375 28.72265625 C481.83592948 30.10444408 480.4374959 31.48624425 479.03976822 32.8687582 C475.6287951 36.24190696 472.21329466 39.61033706 468.78613281 42.96704102 C466.85056126 44.86336813 464.92048826 46.76498404 462.99615479 48.67271423 C461.19347469 50.45950848 459.38303691 52.23851952 457.56390381 54.00856018 C456.33682709 55.23034218 456.33682709 55.23034218 455.08496094 56.47680664 C454.36661072 57.18325821 453.6482605 57.88970978 452.90814209 58.61756897 C448.85622962 63.67662723 447.60110578 69.0766253 446.82080078 75.3972168 C446.6858873 76.45248314 446.6858873 76.45248314 446.54824829 77.52906799 C446.35559709 79.0447602 446.16753984 80.56104218 445.98367691 82.07782555 C445.69033944 84.49011522 445.38283075 86.90022692 445.07150269 89.31025696 C444.18932123 96.1587014 443.33189679 103.0101635 442.48486328 109.86303711 C441.96410337 114.06813647 441.4265547 118.27083346 440.87939072 122.47257423 C440.67601185 124.06112351 440.47900825 125.65050421 440.28891373 127.24069786 C438.06502447 145.83353547 431.63648891 157.6720533 418.44750977 170.84301758 C417.72782013 171.56942444 417.00813049 172.2958313 416.26663208 173.04425049 C413.91343984 175.41626312 411.55294627 177.78083139 409.19140625 180.14453125 C407.53891279 181.80346008 405.88656638 183.46253539 404.23435974 185.12174988 C400.78242219 188.58561758 397.32642182 192.04537264 393.86791992 195.50268555 C389.44509584 199.92530585 385.03622475 204.36156002 380.630723 208.80142689 C377.22743314 212.22698006 373.81506524 215.64337804 370.4000988 219.05728722 C368.77065223 220.68908746 367.14443281 222.32411706 365.52157784 223.96247292 C363.25109919 226.25261323 360.96821626 228.52965573 358.68188477 230.80395508 C358.0203389 231.47673996 357.35879303 232.14952484 356.67720032 232.84269714 C350.2239549 239.21027637 343.92320363 242.57984578 334.8046875 243.09765625 C327.4999277 242.84331225 320.13576725 240.34819558 315 235 C312.77031574 231.77659837 310.8656399 228.44247146 309 225 C305.36791268 226.85877679 302.59759954 228.83131011 300 232 C298.92145313 236.44011582 298.91015412 240.69348836 299.10131836 245.22338867 C299.18694125 247.29895543 299.20380932 249.366192 299.20898438 251.44335938 C299.33057289 260.19714233 300.08696597 268.7608798 306.25 275.4375 C314.03488997 279.86073294 322.22500457 281.05485117 330.93722916 282.38671494 C333.30391886 282.74925018 335.66852777 283.12335926 338.03292847 283.5005188 C344.7508847 284.57005502 351.47196903 285.61922189 358.19433594 286.66064453 C362.32274031 287.30103353 366.44885063 287.95485903 370.57394028 288.61624527 C372.13014017 288.86295528 373.6871517 289.10460983 375.24499893 289.34069443 C395.47496188 292.40743057 414.32108147 299.09144798 427.37548828 315.75585938 C431.72578114 321.78008682 435.3906356 327.63406292 437 335 C436.14283688 338.21436168 435.35024234 339.64975766 433 342 C430.94140625 342.30078125 430.94140625 342.30078125 428.5625 342.3125 C427.78003906 342.32925781 426.99757813 342.34601563 426.19140625 342.36328125 C423.43566606 341.90644731 422.68149244 341.20299879 421 339 C420.24641213 337.50107523 419.54213449 335.97685107 418.875 334.4375 C413.53975841 323.54471509 404.53117041 315.27429229 393.18840027 310.92089844 C385.0212565 308.36481112 376.84964513 306.76737604 368.41185951 305.47698975 C366.04995348 305.11530239 363.69031956 304.7410467 361.33085632 304.36376953 C355.47899597 303.43033683 349.62430645 302.51527938 343.7689209 301.60424805 C338.79482759 300.83010173 333.822397 300.04660162 328.85185814 299.24993896 C326.5457422 298.88411515 324.23781577 298.53193433 321.92951965 298.18017578 C308.55410565 296.07724123 298.28001283 292.87762163 289.43359375 282.08984375 C281.70008599 270.84740112 282.32995692 257.09072185 282 244 C280.43765625 244.79664063 280.43765625 244.79664063 278.84375 245.609375 C260.8294182 254.57522849 244.94465109 258.80887325 225.21435547 252.77148438 C218.56072617 250.45335112 212.26629817 247.19519164 206 244 C205.96261719 245.30453125 205.92523438 246.6090625 205.88671875 247.953125 C205.38134564 262.49199942 204.88588917 275.67607404 194.3359375 286.74609375 C182.91852124 297.19902507 167.21954397 298.08595541 152.52734375 300.33984375 C151.18834492 300.54956373 149.84944411 300.75991034 148.51063538 300.97084045 C142.90873769 301.85275879 137.30573211 302.72731637 131.70092773 303.59057617 C128.24047983 304.12399666 124.7816278 304.6669259 121.32354927 305.21548653 C119.40566073 305.5169967 117.48616611 305.80823535 115.56663513 306.09910583 C97.69621651 308.94347371 83.12014177 314.02891419 72 329 C70.26859349 331.86833868 68.68604818 334.75219967 67.19140625 337.75 C66 340 66 340 64 342 C61.94140625 342.30078125 61.94140625 342.30078125 59.5625 342.3125 C58.78003906 342.32925781 57.99757813 342.34601563 57.19140625 342.36328125 C55 342 55 342 53.27734375 340.79296875 C51.63468537 338.48721891 51.24562617 336.81623112 51 334 C53.62925641 321.14338177 64.83535332 309.54725016 75 302 C95.2499817 288.87792206 121.41596421 287.89912865 144.74511719 284.35449219 C148.20398483 283.82833292 151.66086958 283.29044507 155.11683655 282.74557495 C157.03515348 282.44663147 158.95548866 282.16072989 160.87585449 281.87524414 C173.07859876 279.99484057 173.07859876 279.99484057 183.4375 273.75 C187.94904629 265.80967852 188.64474634 258.53620093 188.72070312 249.53637695 C188.75002906 247.43541774 188.84330977 245.34306203 188.9375 243.24414062 C189.19581461 235.8634336 189.19581461 235.8634336 185.94335938 229.47705078 C183.70034047 227.72793585 181.53174303 226.288465 179 225 C178.63205322 225.70624512 178.26410645 226.41249023 177.88500977 227.14013672 C173.75065888 234.9081676 168.61523342 239.77560305 160.125 242.4375 C151.71330336 244.06286768 144.21333736 242.39997544 137 238 C134.15461217 235.69542574 131.59921806 233.14693096 129.02685547 230.54443359 C128.27454651 229.79913391 127.52223755 229.05383423 126.74713135 228.28594971 C124.27703163 225.83337223 121.82175762 223.36654987 119.3671875 220.8984375 C117.64479957 219.17874667 115.92181845 217.45964979 114.19827271 215.74111938 C110.59260017 212.14133465 106.99423648 208.53443981 103.40087891 204.92236328 C98.8102978 200.30902836 94.20203824 195.71383944 89.58810234 191.12387657 C86.02736284 187.57764333 82.47626975 184.02187311 78.92795181 180.46321487 C77.23332855 178.76593591 75.53576381 177.07158828 73.83514023 175.3803215 C71.45169219 173.00711407 69.08157659 170.62131339 66.71435547 168.23193359 C66.01913788 167.54481293 65.32392029 166.85769226 64.6076355 166.14974976 C53.57215995 154.92365526 49.81855886 142.89697063 47.95311165 127.69418335 C47.65498153 125.27043028 47.34379888 122.84866398 47.02915955 120.42700195 C46.13772278 113.5470449 45.27042587 106.66409838 44.40942383 99.78027344 C43.88001669 95.5548771 43.33638163 91.33149646 42.78451347 87.10897827 C42.57840961 85.50864324 42.37786404 83.90758148 42.18318367 82.30581665 C40.33342238 67.0892832 36.35286339 59.73419776 25.36328125 49.0078125 C24.31669356 47.971243 23.27106981 46.93369942 22.22636414 45.89523315 C19.49159664 43.1812732 16.7454542 40.47913663 13.99621582 37.77984619 C9.58286277 33.44216617 5.18841668 29.08530635 0.79167747 24.73080063 C-0.74364644 23.21317647 -2.28309731 21.69984511 -3.82341003 20.18728638 C-4.75139908 19.27228363 -5.67938812 18.35728088 -6.63549805 17.41455078 C-7.45616257 16.60817169 -8.27682709 15.8017926 -9.12236023 14.97097778 C-12.12745455 11.81649936 -12.41137252 9.34372394 -12.33984375 4.98046875 C-12 3 -12 3 -9.9375 0.4375 C-6.06829219 -1.45594212 -4.15692206 -0.99964037 0 0 Z " fill="#000000" transform="translate(12,170)"/>
<path d="M0 0 C1.11375 0.495 1.11375 0.495 2.25 1 C7.50345263 2.91034641 13.06658435 2.5728639 18.375 1 C26.17001679 -1.15034946 33.35642022 -0.26476438 41 2 C46.53366811 2.45530181 50.89213229 2.27016343 56 0 C60.12482668 -0.60153722 61.48000766 -0.38434216 64.875 2.125 C67 5 67 5 67.625 8 C66.75140241 12.19326842 65.44637813 13.44968018 62 16 C53.71785633 19.84857977 43.57091001 20.52078861 34.8125 17.9375 C29.49474142 16.62985445 24.36623742 17.07256724 19.0859375 18.52734375 C10.90586535 20.3808807 1.60211373 19.51845041 -6 16 C-9.79097461 13.27049828 -10.81688259 12.04376923 -11.625 7.4375 C-11 4 -11 4 -8.875 1.5625 C-5.5158505 -0.26312473 -3.77078373 -0.47134797 0 0 Z " fill="#000000" transform="translate(226,342)"/>
<path d="M0 0 C2.1015625 1.51953125 2.1015625 1.51953125 4.1015625 4.51953125 C3.77276264 10.6571287 3.77276264 10.6571287 1.78515625 13.2109375 C-0.67197614 15.12077358 -3.02698958 14.97524959 -6.046875 14.88671875 C-10.22686276 14.34847375 -14.19089904 13.1700634 -18.24047852 12.02661133 C-29.44091325 8.91358848 -40.23341458 8.65890539 -51.1484375 13.14453125 C-55.61426337 14.78200073 -58.19020387 15.06882517 -62.8984375 14.51953125 C-65.3984375 12.95703125 -65.3984375 12.95703125 -66.8984375 10.51953125 C-67.3984375 7.01953125 -67.3984375 7.01953125 -66.8984375 3.51953125 C-63.96100582 -0.1786741 -60.84111061 -1.56274924 -56.4609375 -3.16796875 C-55.34847656 -3.58433594 -54.23601562 -4.00070313 -53.08984375 -4.4296875 C-36.78587883 -9.79782283 -15.26929688 -7.79927698 0 0 Z " fill="#000000" transform="translate(340.8984375,211.48046875)"/>
<path d="M0 0 C2.48038907 3.7205836 2.46337203 5.59796571 2 10 C0.5 12.4375 0.5 12.4375 -2 14 C-8.32348665 14.90335524 -13.05756327 13.05336323 -18.99609375 10.96484375 C-29.67630054 7.53440022 -40.19262109 9.52423137 -50.75 12.625 C-55.4967939 13.96934747 -60.09104806 15.06716346 -65 14 C-67.625 11.9375 -67.625 11.9375 -69 9 C-68.8984132 3.10796533 -68.8984132 3.10796533 -66.68115234 0.37353516 C-64.83621356 -1.13381681 -63.44725455 -1.70784072 -61.1640625 -2.3515625 C-60.42929688 -2.56296875 -59.69453125 -2.774375 -58.9375 -2.9921875 C-58.174375 -3.20101562 -57.41125 -3.40984375 -56.625 -3.625 C-55.86960938 -3.8415625 -55.11421875 -4.058125 -54.3359375 -4.28125 C-36.53305746 -9.32332442 -16.43334428 -9.25395415 0 0 Z " fill="#000000" transform="translate(236,212)"/>
<path d="M0 0 C6.88507896 5.00048804 12.75189185 11.59789431 18.74755859 17.6171875 C20.38915962 19.26420635 22.03611468 20.90573802 23.68359375 22.546875 C24.73469625 23.59863738 25.78548901 24.65070942 26.8359375 25.703125 C27.3254892 26.19065247 27.81504089 26.67817993 28.31942749 27.18048096 C31.83424572 30.71967465 33.87074469 32.83670221 34.4375 37.9375 C34.34045937 41.2247514 34.10781294 41.86605059 31.9375 44.5625 C27.93015055 46.52354335 26.25506447 46.370275 22 45 C14.94457998 39.89886889 8.90341434 33.05683905 2.77026367 26.90063477 C1.04525287 25.17019863 -0.68512428 23.4452551 -2.41601562 21.72070312 C-3.51594633 20.62011271 -4.61556738 19.51921272 -5.71484375 18.41796875 C-6.23143051 17.90340622 -6.74801727 17.38884369 -7.28025818 16.85868835 C-10.69517863 13.42108799 -11.89920445 12.04155406 -12.375 7.125 C-12.32042351 3.79583412 -12.13460445 3.16723583 -9.9375 0.4375 C-5.93015055 -1.52354335 -4.25506447 -1.370275 0 0 Z " fill="#000000" transform="translate(12,40)"/>
<path d="M0 0 C2.15168353 0.47419268 4.29722661 0.97671184 6.4375 1.5 C15.68137364 3.70843398 21.70637306 2.91658626 30.9375 0.68359375 C35.64152033 -0.36641079 39.14425864 -1.14199469 43.4375 1.5 C45.64060256 5.0249641 45.91762238 7.9541195 45 12 C40.5051861 17.73476257 32.10073101 18.57242551 25.2890625 19.51171875 C13.61005376 20.57866159 1.40374224 19.97986357 -9 14 C-11 11.75 -11 11.75 -12 9 C-11.375 5.3125 -11.375 5.3125 -10 2 C-6.40879847 -0.39413435 -4.13991826 -0.48829805 0 0 Z " fill="#000000" transform="translate(182,253)"/>
<path d="M0 0 C1.11375 0.26941406 2.2275 0.53882813 3.375 0.81640625 C12.61887364 3.02484023 18.64387306 2.23299251 27.875 0 C32.57902033 -1.05000454 36.08175864 -1.82558844 40.375 0.81640625 C42.57810256 4.34137035 42.85512238 7.27052575 41.9375 11.31640625 C37.4426861 17.05116882 29.03823101 17.88883176 22.2265625 18.828125 C10.51404748 19.89812883 -1.61020394 19.2628738 -12.0625 13.31640625 C-14.0625 11.31640625 -14.0625 11.31640625 -14.4375 7.44140625 C-14.34544676 4.46321321 -14.12735821 3.42017939 -12.5 0.81640625 C-8.20675864 -1.82558844 -4.70402033 -1.05000454 0 0 Z " fill="#000000" transform="translate(299.0625,253.68359375)"/>
<path d="M0 0 C1.30759132 0.36089521 2.61488136 0.72288371 3.921875 1.0859375 C8.99383093 2.21737382 13.97258248 1.92254653 18.953125 0.5390625 C23.28446488 -0.64772463 27.49436074 -1.3002343 31.953125 -0.4609375 C34.578125 1.6015625 34.578125 1.6015625 35.953125 4.5390625 C36.015625 8.1015625 36.015625 8.1015625 34.953125 11.5390625 C28.62699705 17.72741634 19.128536 18.60086262 10.578125 18.9765625 C5.76366776 18.82588649 1.18968308 17.88466003 -3.484375 16.7890625 C-4.17128418 16.63236084 -4.85819336 16.47565918 -5.56591797 16.31420898 C-9.76192929 15.23282153 -12.42465645 14.0353539 -15.046875 10.5390625 C-15.60014048 6.66620411 -15.61018702 4.49424376 -13.609375 1.1015625 C-9.3186521 -1.51473195 -4.81237548 -1.08370288 0 0 Z " fill="#000000" transform="translate(244.046875,302.4609375)"/>
</svg>
