<?xml version="1.0" encoding="UTF-8"?>
<svg version="1.1" xmlns="http://www.w3.org/2000/svg" width="512" height="512">
<path d="M0 0 C1.25296875 1.04607422 1.25296875 1.04607422 2.53125 2.11328125 C21.71614098 18.78163561 33.6649335 39.27975397 39 64 C39 64.66 39 65.32 39 66 C39.8353125 66.37511719 39.8353125 66.37511719 40.6875 66.7578125 C69.50956305 82.23993421 91.22730854 120.12516489 100.74633789 149.97607422 C114.88649879 197.32981034 107.30077349 248.66036241 84 292 C77.35795429 303.96942651 67.5524417 319.64816203 55 326 C54.01 326 53.02 326 52 326 C51.9071875 326.68964844 51.814375 327.37929688 51.71875 328.08984375 C47.02635985 347.08892344 27.67469487 365.97874839 13 378 C12.42386963 378.28839249 11.84773926 378.57678497 11.25415039 378.87391663 C9.07888282 380.05434626 7.61841829 381.1150692 6 383 C4.97974006 386.96063809 5.11696019 390.83648417 5.203125 394.90625 C5.19794861 396.06370728 5.19277222 397.22116455 5.18743896 398.41369629 C5.17554033 402.10999789 5.2100918 405.80392398 5.25 409.5 C5.26874959 413.19559199 5.27750001 416.89067093 5.26971436 420.58630371 C5.26703475 422.8846055 5.28079652 425.18299866 5.31280518 427.4810791 C5.31560486 428.52566284 5.31840454 429.57024658 5.32128906 430.64648438 C5.33630463 432.01951721 5.33630463 432.01951721 5.35162354 433.42028809 C4.92298679 436.5650131 3.8443743 438.43969003 2 441 C-1.12942465 442.56471233 -4.61082223 442.69701958 -8 442 C-10.09130859 440.59936523 -10.09130859 440.59936523 -12 438 C-12.62651578 434.66973597 -12.60496385 431.36570267 -12.609375 427.984375 C-12.62591125 427.01340881 -12.64244751 426.04244263 -12.65948486 425.04205322 C-12.70802119 421.94463817 -12.72934857 418.84771427 -12.75 415.75 C-12.77815493 413.64841271 -12.80808168 411.54684836 -12.83984375 409.4453125 C-12.9137819 404.29691542 -12.96332229 399.14879192 -13 394 C-14.19278564 394.47775879 -15.38557129 394.95551758 -16.61450195 395.44775391 C-18.21814923 396.08264097 -19.82191542 396.71722775 -21.42578125 397.3515625 C-22.59808289 397.82251343 -22.59808289 397.82251343 -23.79406738 398.30297852 C-55.34744878 410.72940671 -92.05040875 409.15604304 -123 396 C-124.57777265 395.3034794 -126.15431716 394.60417133 -127.72973633 393.90234375 C-128.53188065 393.54519287 -129.33402496 393.18804199 -130.16047668 392.82006836 C-130.76751938 392.5494458 -131.37456207 392.27882324 -132 392 C-132.01458252 393.30670654 -132.02916504 394.61341309 -132.04418945 395.9597168 C-132.10222815 400.81481075 -132.17946116 405.66944363 -132.26245117 410.52416992 C-132.29567422 412.62402861 -132.3237143 414.72397603 -132.34643555 416.82397461 C-132.38002936 419.84527344 -132.43234834 422.86576101 -132.48828125 425.88671875 C-132.49467117 426.82335861 -132.5010611 427.75999847 -132.50764465 428.72502136 C-132.61702076 433.59057461 -132.76957227 437.0853652 -136 441 C-139.12942465 442.56471233 -142.61082223 442.69701958 -146 442 C-148.62699868 439.90982469 -149.87425527 438.75830133 -150.4315033 435.39782715 C-150.40117508 434.41254028 -150.37084686 433.42725342 -150.33959961 432.41210938 C-150.31735825 431.28994019 -150.29511688 430.167771 -150.27220154 429.01159668 C-150.23264847 427.80120728 -150.1930954 426.59081787 -150.15234375 425.34375 C-150.12296579 422.7682584 -150.09636261 420.19273393 -150.07226562 417.6171875 C-150.01957741 413.56535467 -149.94301023 409.51590966 -149.81176758 405.46582031 C-148.56824126 389.77436692 -148.56824126 389.77436692 -153.80273438 375.63208008 C-156.87459107 372.50740663 -160.28155749 370.29292345 -164 368 C-177.20946055 356.32787945 -185.85824176 341.41812352 -194 326 C-202.24315112 334.12964818 -208.1791424 342.59741823 -213.4987793 352.8425293 C-217.30903726 360.05135507 -217.30903726 360.05135507 -221 362 C-223.9375 362.5 -223.9375 362.5 -227 362 C-231.09382811 358.51796814 -233.43284012 354.69980243 -235.75 349.9375 C-245.01263284 331.81891902 -258.43724481 318.84240481 -276.41015625 309.37890625 C-286.49537513 304.00924974 -286.49537513 304.00924974 -288 301 C-288.375 297.6875 -288.375 297.6875 -288 294 C-284.58161608 289.9043288 -280.79270556 287.64744419 -276.0625 285.375 C-262.63111937 278.53091052 -250.417427 268.62614051 -242 256 C-242.40989534 249.54954178 -243.99036305 243.34690889 -245.4375 237.0625 C-255.37169534 192.32130112 -247.80905296 149.55150354 -223.83203125 110.3984375 C-212.8605004 93.44840781 -198.24310595 77.11350275 -182 65 C-181.34 65 -180.68 65 -180 65 C-179.896875 63.70320313 -179.79375 62.40640625 -179.6875 61.0703125 C-179.12177837 56.0436401 -177.77781216 51.59482043 -176 46.875 C-175.53859619 45.64330078 -175.53859619 45.64330078 -175.06787109 44.38671875 C-170.16834465 31.81508452 -162.99664605 21.03784921 -154 11 C-153.40058594 10.31808594 -152.80117187 9.63617188 -152.18359375 8.93359375 C-114.8807059 -30.94746345 -41.77491527 -35.0610896 0 0 Z M-113.8125 2.6875 C-114.51205811 3.03071289 -115.21161621 3.37392578 -115.93237305 3.72753906 C-134.30597314 13.05227272 -149.8329185 28.98810537 -158 48 C-157.67 48.99 -157.34 49.98 -157 51 C-155.97648438 50.46632812 -154.95296875 49.93265625 -153.8984375 49.3828125 C-121.23209704 32.8696211 -76.16320185 17.47297941 -40 29 C-37.10179273 30.11765972 -34.27127443 31.33084734 -31.43359375 32.59375 C-26.98766618 34.41460771 -22.44767813 35.84582294 -17.875 37.3125 C-9.23102737 40.10588433 -1.01678681 43.47155296 7.21484375 47.30078125 C10.41022486 48.77748945 13.63231679 49.96176277 17 51 C12.73344017 41.96819153 8.60358085 33.58776838 2 26 C1.566875 25.42507812 1.13375 24.85015625 0.6875 24.2578125 C-11.82987458 8.089537 -33.34308261 -1.75103953 -53 -5 C-57.99236694 -5.45561645 -62.99090665 -5.4748982 -68.00048828 -5.44604492 C-70.23434622 -5.43755946 -72.46561266 -5.46637671 -74.69921875 -5.49804688 C-88.19731525 -5.56523201 -101.63842426 -3.453978 -113.8125 2.6875 Z M-175 82 C-175.57476074 82.47083008 -176.14952148 82.94166016 -176.74169922 83.42675781 C-183.71908619 89.15982875 -190.40623643 94.86892035 -196 102 C-196.75410156 102.9178125 -197.50820312 103.835625 -198.28515625 104.78125 C-215.63697386 126.23465366 -228.57893618 153.45377182 -232 181 C-232.10957031 181.86109375 -232.21914062 182.7221875 -232.33203125 183.609375 C-234.01470692 199.13486249 -234.01054405 217.96836784 -229 233 C-226.95029852 234.24345475 -226.95029852 234.24345475 -224.1875 233.75 C-219.79706324 234.09434798 -218.83472196 235.68918452 -216 239 C-214.57169527 241.46458023 -213.41646701 244.02832152 -212.25 246.625 C-208.77300983 253.99062888 -204.70664073 260.10605159 -199 266 C-198.67 266 -198.34 266 -198 266 C-197.68181266 262.85471585 -197.37081411 259.70876696 -197.0625 256.5625 C-196.92110596 255.12910278 -196.92110596 255.12910278 -196.77685547 253.66674805 C-196.28808153 248.56182299 -195.89937822 243.48071233 -195.70605469 238.35644531 C-194.51062207 208.2113794 -180.58943755 183.937842 -158.76513672 163.58300781 C-129.87702759 137.67560814 -90.14997817 124.05216204 -52.84985352 116.20214844 C-43.29889663 114.04095196 -36.19885354 109.45638114 -30.5078125 101.44921875 C-24.05779876 90.9721239 -22.86950733 78.01270214 -25.6953125 66.05859375 C-26.6158691 63.83455994 -27.64219343 61.98416316 -29 60 C-29.44730469 59.3090625 -29.89460937 58.618125 -30.35546875 57.90625 C-36.54109412 49.01752293 -43.88391531 43.92628592 -54.46875 41.4140625 C-93.02657247 35.10676438 -145.8985301 57.84775968 -175 82 Z M-11 58 C-10.67644531 59.08796875 -10.35289062 60.1759375 -10.01953125 61.296875 C-8.69875528 66.60800594 -8.65622133 71.80036211 -8.6875 77.25 C-8.69313965 78.27125977 -8.6987793 79.29251953 -8.70458984 80.34472656 C-8.95917433 96.14912967 -13.72190783 108.18499581 -24.625 119.76953125 C-29.22707076 124.09154178 -34.34177035 127.25353347 -40 130 C-37.58592089 131.60938607 -35.5642134 132.69471424 -32.9296875 133.8125 C-12.30975892 142.72030915 5.59239529 153.51295397 22 169 C23.14082031 170.04414063 23.14082031 170.04414063 24.3046875 171.109375 C41.24152365 187.16713661 52.00684131 210.02464404 53.57250977 233.26879883 C53.62142365 233.98153961 53.67033752 234.6942804 53.72073364 235.42861938 C53.88073002 237.77122422 54.03609531 240.11411151 54.19140625 242.45703125 C54.30179228 244.08658251 54.41246839 245.71611414 54.52342224 247.34562683 C54.81400296 251.6246762 55.10065106 255.90398021 55.38647461 260.18334961 C55.67909824 264.55403466 55.97544918 268.92446681 56.27148438 273.29492188 C56.85129973 281.86303843 57.4269598 290.43142766 58 299 C81.2320791 276.55126442 90.47545606 232.74441738 91.3515625 201.50878906 C91.70619909 163.54789744 76.54889186 128.49104968 52 100 C51.35546875 99.22140625 50.7109375 98.4428125 50.046875 97.640625 C44.95655229 91.63983806 39.22438674 86.79260632 33 82 C32.14664063 81.33097656 31.29328125 80.66195312 30.4140625 79.97265625 C11.1851829 65.33592678 11.1851829 65.33592678 -11 58 Z M-146 175 C-146.80824219 175.66257813 -147.61648437 176.32515625 -148.44921875 177.0078125 C-167.12349276 192.8970692 -177.8048709 213.88603455 -179.83628845 238.29730225 C-180.19245065 243.25812739 -180.47702492 248.22151488 -180.75 253.1875 C-180.87496391 255.24031627 -181.00125828 257.293052 -181.12890625 259.34570312 C-181.54486558 266.13327778 -181.54486558 266.13327778 -181.90100098 272.92416382 C-181.98144262 274.61088421 -182.08365562 276.29655594 -182.19238281 277.98168945 C-182.12889648 278.64773193 -182.06541016 279.31377441 -182 280 C-179.40277812 282.20566347 -179.40277812 282.20566347 -176 284 C-175.41001221 284.34611328 -174.82002441 284.69222656 -174.2121582 285.04882812 C-171.6308894 286.55871339 -169.02135329 287.98914988 -166.35546875 289.34375 C-161.30858806 292.0354197 -161.30858806 292.0354197 -160.37890625 294.94140625 C-160.16641712 298.43781838 -160.37851094 300.21440135 -162.59765625 303.01953125 C-165.55195735 305.45502826 -168.73784875 307.0290508 -172.1875 308.625 C-176.84030308 310.4563299 -176.84030308 310.4563299 -180 314 C-178.91406446 316.554965 -177.77051745 318.97567864 -176.5 321.4375 C-175.94469604 322.52285034 -175.94469604 322.52285034 -175.37817383 323.63012695 C-169.50971808 334.9459777 -162.44707053 344.51601362 -154 354 C-153.42765625 354.65742188 -152.8553125 355.31484375 -152.265625 355.9921875 C-132.00372314 377.82073126 -101.90885774 388.34329794 -72.90625 390.12890625 C-40.19419998 391.07252308 -10.56341175 376.77020151 13 355 C24.15380997 344.14764435 41.61544765 322.41716848 42.05049133 306.10704041 C42.01489609 305.38843338 41.97930084 304.66982635 41.94262695 303.92944336 C41.90372849 303.09884903 41.86483002 302.2682547 41.82475281 301.41249084 C41.77559219 300.5016423 41.72643158 299.59079376 41.67578125 298.65234375 C41.62738602 297.68771713 41.57899078 296.72309052 41.52912903 295.72923279 C41.36186091 292.48559474 41.18278122 289.24279998 41 286 C40.935849 284.85895813 40.871698 283.71791626 40.80560303 282.54229736 C40.38301736 275.15386002 39.92190507 267.7685204 39.43530273 260.3840332 C39.26931366 257.82420374 39.1095402 255.26396408 38.95581055 252.70336914 C37.6371819 227.65142584 37.6371819 227.65142584 28.9375 204.375 C28.36539795 203.32143311 28.36539795 203.32143311 27.78173828 202.24658203 C23.72281827 195.05663493 18.62031779 189.00822316 13 183 C12.40703125 182.33871094 11.8140625 181.67742187 11.203125 180.99609375 C-8.92014997 159.52794644 -40.94503253 145.09906719 -69 138 C-94.60434078 138 -127.03549286 158.83456605 -146 175 Z M-225 262 C-226.52731227 263.88632193 -227.95569786 265.78479118 -229.375 267.75 C-238.33588372 279.7060509 -248.608773 288.71474171 -261 297 C-258.53978945 298.97079033 -256.0775505 300.93864275 -253.60546875 302.89453125 C-251.05826502 304.91501111 -248.52926672 306.95713072 -246 309 C-245.32710937 309.52207031 -244.65421875 310.04414063 -243.9609375 310.58203125 C-238.21779278 315.24981348 -233.96083757 320.93134577 -229.515625 326.79296875 C-227.51949439 329.4020664 -225.39653517 331.74344936 -223 334 C-222.52691406 333.32195312 -222.05382812 332.64390625 -221.56640625 331.9453125 C-216.77804131 325.20613222 -211.67620931 319.0065707 -206 313 C-205.34128906 312.2884375 -204.68257812 311.576875 -204.00390625 310.84375 C-199.69931567 306.33995301 -195.13579616 302.83191619 -189.90625 299.4453125 C-188.96265625 298.72988281 -188.96265625 298.72988281 -188 298 C-188 297.34 -188 296.68 -188 296 C-190.01433845 294.51832855 -192.04228781 293.12953337 -194.125 291.75 C-205.02939728 284.23456096 -214.72816533 274.9770133 -221.765625 263.6953125 C-222.17296875 263.13585937 -222.5803125 262.57640625 -223 262 C-223.66 262 -224.32 262 -225 262 Z " fill="#000000" transform="translate(331,46)"/>
<path d="M0 0 C4.15202057 2.83552624 5.63346795 6.18189616 7.75 10.6875 C10.8682233 17.19579172 14.89213951 21.95399941 20 27 C20.58007812 27.60199219 21.16015625 28.20398438 21.7578125 28.82421875 C26.91429813 33.78415672 33.0739127 37.14165496 39.2734375 40.625 C39.99660156 41.03363281 40.71976562 41.44226563 41.46484375 41.86328125 C42.120896 42.22719971 42.77694824 42.59111816 43.45288086 42.96606445 C45 44 45 44 46 46 C46.58608059 53.26739927 46.58608059 53.26739927 44.328125 56.08984375 C41.79787611 58.16583655 39.42586409 59.3624331 36.4375 60.6875 C21.39479461 68.02585141 12.36092967 79.94247464 4.703125 94.50390625 C2.75710926 97.35597978 1.1143306 98.55283853 -2 100 C-5.51760286 99.92821219 -7.31924398 99.57785104 -10.015625 97.2890625 C-12.19019961 94.78059651 -13.34420334 92.46697684 -14.6875 89.4375 C-21.82846504 74.79941206 -33.35285432 65.50561501 -47.72265625 58.2890625 C-49.94786385 57.02951103 -51.44249846 56.02175681 -53 54 C-53.78025852 46.97767333 -53.78025852 46.97767333 -51.37890625 43.96875 C-48.58561527 41.65706091 -45.71500883 40.11379402 -42.5 38.4375 C-28.14092678 30.58606144 -18.90826832 19.21362595 -11.61328125 4.7578125 C-8.65666139 -0.29636091 -5.54432418 -0.66914257 0 0 Z M-4 27 C-5.35683751 28.6475884 -6.68456721 30.31916921 -8 32 C-12.80662742 37.94887221 -17.99795074 43.17990311 -24.26171875 47.59375 C-24.83535156 48.0578125 -25.40898437 48.521875 -26 49 C-26 49.66 -26 50.32 -26 51 C-24.28353922 52.50311841 -24.28353922 52.50311841 -22.0625 54.0625 C-15.00617637 59.40482704 -8.52392532 65.3289962 -4 73 C-0.73169539 69.83712457 2.30512125 66.53821879 5.3125 63.125 C8.78341226 59.23618526 12.38278945 55.72678705 16.37109375 52.375 C18.10900577 50.94714425 18.10900577 50.94714425 20 49 C18.93072266 48.25556641 18.93072266 48.25556641 17.83984375 47.49609375 C9.33390907 41.46294761 2.9261851 35.54067853 -3 27 C-3.33 27 -3.66 27 -4 27 Z " fill="#000000" transform="translate(423,374)"/>
<path d="M0 0 C3.55488756 0.98065864 5.73367133 3.31905754 8.3359375 5.83984375 C13.34268963 10.67432054 18.16562361 11.92313637 25 11.80859375 C31.60208123 11.14958383 35.7438867 8.49203561 40.15234375 3.59375 C42.73943357 1.00666018 44.57541625 0.35460088 48.15234375 0.15625 C51.02417388 0.2901973 52.11471076 0.5711702 54.65234375 2.09375 C56.33803176 4.90323001 56.90192296 7.15315945 56.73046875 10.44140625 C55.55899862 14.8027579 52.39255167 17.61019222 49.15234375 20.59375 C48.63542969 21.07972656 48.11851562 21.56570313 47.5859375 22.06640625 C40.03385404 28.25570773 29.5305244 30.29870874 19.9921875 29.91015625 C8.81838958 28.66520765 -1.49335452 23.48044149 -8.625 14.6796875 C-10.77048501 11.01933928 -10.61061932 8.75536675 -9.84765625 4.59375 C-7.45836666 0.61160068 -4.61783974 -0.2063839 0 0 Z " fill="#000000" transform="translate(284.84765625,276.40625)"/>
<path d="M0 0 C3.55488756 0.98065864 5.73367133 3.31905754 8.3359375 5.83984375 C13.34268963 10.67432054 18.16562361 11.92313637 25 11.80859375 C31.60208123 11.14958383 35.7438867 8.49203561 40.15234375 3.59375 C42.73943357 1.00666018 44.57541625 0.35460088 48.15234375 0.15625 C51.02417388 0.2901973 52.11471076 0.5711702 54.65234375 2.09375 C56.33803176 4.90323001 56.90192296 7.15315945 56.73046875 10.44140625 C55.55899862 14.8027579 52.39255167 17.61019222 49.15234375 20.59375 C48.63542969 21.07972656 48.11851562 21.56570313 47.5859375 22.06640625 C40.03385404 28.25570773 29.5305244 30.29870874 19.9921875 29.91015625 C8.81838958 28.66520765 -1.49335452 23.48044149 -8.625 14.6796875 C-10.77048501 11.01933928 -10.61061932 8.75536675 -9.84765625 4.59375 C-7.45836666 0.61160068 -4.61783974 -0.2063839 0 0 Z " fill="#000000" transform="translate(188.84765625,276.40625)"/>
<path d="M0 0 C2.13316974 1.17005952 4.11340803 2.44809035 6.10546875 3.84375 C11.38642251 7.06676508 18.04380384 6.5421384 24 6 C28.63627221 4.70823864 32.70044672 2.87644291 36.6875 0.1875 C40.09030875 -1.55988827 42.37345169 -0.94021623 46 0 C48.89479637 1.73687782 49.01335881 3.05152682 49.875 6.375 C50.01852824 10.537319 49.39649538 11.69304567 47 15 C36.51690528 23.48817744 24.07573766 25.03487122 11 24 C2.28380545 22.49457466 -7.60483068 19.41835782 -13 12 C-13.78720146 8.20780836 -13.55232971 5.02575518 -11.6875 1.5625 C-8.01132112 -1.84136933 -4.5780161 -1.05069222 0 0 Z " fill="#000000" transform="translate(242,361)"/>
</svg>
