<?xml version="1.0" encoding="UTF-8"?>
<svg version="1.1" xmlns="http://www.w3.org/2000/svg" width="512" height="512">
<path d="M0 0 C0.80638412 -0.00974854 1.61276825 -0.01949707 2.44358826 -0.02954102 C21.12829354 -0.20871817 39.04776161 0.21850879 57.3828125 4.23828125 C58.22956543 4.4202002 59.07631836 4.60211914 59.94873047 4.78955078 C78.95089212 9.00764618 97.29558247 15.95724492 114.3828125 25.23828125 C115.04474609 25.59003418 115.70667969 25.94178711 116.38867188 26.30419922 C142.80321371 40.36457137 167.17522204 60.43099788 185.3828125 84.23828125 C185.8768457 84.88297363 186.37087891 85.52766602 186.87988281 86.19189453 C195.1069679 97.02530815 202.16830704 108.14238529 208.3828125 120.23828125 C208.73150391 120.90053711 209.08019531 121.56279297 209.43945312 122.24511719 C220.67538949 143.73948494 226.51301375 167.37816533 231.47247314 190.96966553 C232.78383666 197.20582633 234.14916383 203.43030934 235.51107025 209.65559006 C235.8127388 211.03496909 236.11395498 212.41444714 236.414711 213.79402542 C243.29163683 245.33272327 251.9317288 276.38056323 261.3828125 307.23828125 C261.62020142 308.01635132 261.85759033 308.79442139 262.10217285 309.59606934 C269.35557859 333.31389251 277.71397155 355.65800766 293.3828125 375.23828125 C294.08857422 376.1212085 294.08857422 376.1212085 294.80859375 377.02197266 C300.69207004 384.29287822 306.8477706 390.90838807 313.91015625 397.0546875 C321.14445813 403.44327321 321.14445813 403.44327321 322.01171875 406.3359375 C321.90496694 409.49453531 321.54309256 411.9329859 320.0703125 414.73828125 C311.70967134 419.40468562 300.26095988 415.2978021 291.57470703 412.88867188 C280.7783577 409.68512157 270.50802165 405.12750896 260.3828125 400.23828125 C275.30050306 414.60037812 292.30490605 426.8370241 310.6328125 436.52734375 C311.28048584 436.87385986 311.92815918 437.22037598 312.59545898 437.57739258 C314.31632908 438.48291047 316.05409752 439.35611238 317.79296875 440.2265625 C321.22283023 442.89078371 321.71383279 445.01089883 322.3828125 449.23828125 C320.33735795 454.76100852 320.33735795 454.76100852 317.3828125 456.23828125 C308.49979124 456.89780518 299.92329345 455.6384543 291.1953125 454.11328125 C290.54663208 454.00190826 289.89795166 453.89053528 289.22961426 453.77578735 C267.99744327 450.11831579 247.51398014 444.58315587 226.99511719 438.05664062 C223.80592349 437.05755864 220.60287894 436.13223737 217.3828125 435.23828125 C219.3989641 436.43430339 221.42038821 437.61975667 223.4453125 438.80078125 C224.57066406 439.46207031 225.69601562 440.12335938 226.85546875 440.8046875 C238.84148383 447.44399281 251.65938051 452.53509122 264.29708862 457.77508545 C268.08078693 459.34505814 271.86039565 460.92476403 275.64027405 462.50390625 C281.77066507 465.06491881 287.90215028 467.62328843 294.03710938 470.17333984 C297.9695884 471.80883432 301.89529552 473.45996129 305.8203125 475.11328125 C306.9549292 475.58209717 308.0895459 476.05091309 309.25854492 476.53393555 C310.80312378 477.18809448 310.80312378 477.18809448 312.37890625 477.85546875 C313.25732178 478.22269043 314.1357373 478.58991211 315.04077148 478.96826172 C317.67707904 480.39785329 319.41856305 481.98219568 321.3828125 484.23828125 C321.9140625 486.23828125 321.9140625 486.23828125 321.8828125 488.23828125 C321.893125 488.89828125 321.9034375 489.55828125 321.9140625 490.23828125 C321.1351956 493.17048605 319.7162978 494.33363953 317.3828125 496.23828125 C314.65379333 496.73948669 314.65379333 496.73948669 311.48217773 496.73999023 C309.69136024 496.75406166 309.69136024 496.75406166 307.86436462 496.76841736 C306.56978836 496.75718338 305.2752121 496.7459494 303.94140625 496.734375 C302.5769086 496.7345304 301.21241052 496.7360262 299.84791565 496.73878479 C296.97190049 496.74017161 294.09638199 496.72760178 291.22045898 496.70483398 C287.62132113 496.67705717 284.02303833 496.67929352 280.42384243 496.69153786 C233.66195811 496.81827887 186.84606435 488.93280671 143.3828125 471.23828125 C143.5271875 472.38425781 143.6715625 473.53023438 143.8203125 474.7109375 C144.00803286 476.2408584 144.19552047 477.77080786 144.3828125 479.30078125 C144.52589844 480.4290332 144.52589844 480.4290332 144.671875 481.58007812 C145.22658115 486.15640386 145.57507292 490.61802296 145.3828125 495.23828125 C143.36836825 497.2527255 139.64814691 497.00302668 136.8828125 497.36328125 C135.82900391 497.51216797 135.82900391 497.51216797 134.75390625 497.6640625 C132.96904398 497.90135633 131.17595061 498.07488782 129.3828125 498.23828125 C126.48237364 495.33784239 126.87328094 487.54072496 126.3203125 483.61328125 C126.13404297 482.34097656 125.94777344 481.06867188 125.75585938 479.7578125 C125.49192383 477.90349609 125.49192383 477.90349609 125.22265625 476.01171875 C125.06144287 474.88169434 124.90022949 473.75166992 124.73413086 472.58740234 C124.3696862 469.11314816 124.32325851 465.72897624 124.3828125 462.23828125 C123.50246338 461.96153564 122.62211426 461.68479004 121.71508789 461.3996582 C88.50643347 449.82565505 56.44656148 425.08061706 30.7890625 401.43359375 C28.76234272 399.58454097 26.70567768 397.78803772 24.62890625 395.99609375 C20.23315847 392.15736595 16.06871387 388.1163715 11.9453125 383.98828125 C11.19813965 383.24030273 10.4509668 382.49232422 9.68115234 381.72167969 C4.97962424 376.96787822 0.5907888 372.14986208 -3.53125 366.8828125 C-5.45107326 364.44887926 -7.44984855 362.10503815 -9.48632812 359.76855469 C-43.33048609 320.73049129 -63.62421057 273.60014543 -80.4296875 225.36328125 C-81.23762744 223.05438135 -82.04598676 220.74562815 -82.85473633 218.43701172 C-84.55525374 213.5811112 -86.25353761 208.7244379 -87.95019531 203.8671875 C-90.72505596 195.92579692 -93.50997114 187.98795219 -96.296875 180.05078125 C-96.76472497 178.71825163 -97.2325747 177.38572193 -97.70042419 176.05319214 C-98.39101687 174.08627667 -99.08161924 172.11936461 -99.77225399 170.15246391 C-102.15308068 163.37170902 -104.53177086 156.59020532 -106.91015625 149.80859375 C-107.28731781 148.73319336 -107.66447937 147.65779297 -108.05307007 146.54980469 C-108.9078052 144.11264049 -109.76251397 141.67546705 -110.6171875 139.23828125 C-111.58583662 140.67765794 -112.55269774 142.11823801 -113.51879883 143.55932617 C-114.05741043 144.36142014 -114.59602203 145.1635141 -115.1509552 145.98991394 C-122.90216324 157.87586323 -125.15774335 170.96807589 -124.9921875 184.92578125 C-124.98348633 186.15530518 -124.97478516 187.3848291 -124.96582031 188.65161133 C-124.79262384 199.44302953 -123.99825599 210.06313723 -120.140625 220.234375 C-117.44638893 227.7850888 -116.93208749 233.15275532 -120.26391602 240.59423828 C-122.25929538 244.58499702 -124.36871216 248.50318744 -126.52587891 252.40869141 C-130.49206511 259.61710999 -134.20482718 266.96068277 -137.92749023 274.29684448 C-139.28401036 276.94787221 -140.67048572 279.58152799 -142.06054688 282.21508789 C-148.45153183 294.06026194 -148.45153183 294.06026194 -148.6171875 307.23828125 C-147.27341701 311.18560705 -145.90314893 312.05680573 -142.3671875 314.30078125 C-137.17349285 316.71352373 -131.56774366 317.85273006 -126.0078125 319.11328125 C-122.2285856 320.36721828 -120.82703672 320.94136994 -118.6171875 324.23828125 C-117.52753587 327.64071239 -116.92326358 331.09877176 -116.3046875 334.61328125 C-116.10230469 335.67877197 -115.89992187 336.7442627 -115.69140625 337.84204102 C-114.52496395 344.03833181 -113.43852109 350.24797859 -112.35957336 356.45996094 C-111.76738688 359.85564637 -111.16435428 363.24937748 -110.56118774 366.64312744 C-110.12504105 369.13098326 -109.70795255 371.62153526 -109.29174805 374.11279297 C-107.45450353 384.74710145 -105.54760607 395.1889456 -96.40625 402.0546875 C-82.50669993 411.25024136 -61.88308156 404.97111163 -46.5546875 402.61328125 C-44.13551751 402.24921961 -41.71632795 401.88528799 -39.29711914 401.52148438 C-23.11426604 399.06073979 -7.05122615 396.27115328 8.91821289 392.66210938 C11.45447551 392.22595763 13.81454763 392.16227834 16.3828125 392.23828125 C16.9149566 394.31875422 17.43313036 396.40280418 17.9453125 398.48828125 C18.23535156 399.6484375 18.52539062 400.80859375 18.82421875 402.00390625 C19.3828125 405.23828125 19.3828125 405.23828125 18.3828125 409.23828125 C9.4728125 410.88828125 0.5628125 412.53828125 -8.6171875 414.23828125 C-7.7096875 416.36265625 -6.8021875 418.48703125 -5.8671875 420.67578125 C1.41788821 437.72948121 1.91017461 453.98572369 1.6328125 472.30078125 C1.61269915 474.63214596 1.59445701 476.9635276 1.578125 479.29492188 C1.53455399 484.94313497 1.46579747 490.5905154 1.3828125 496.23828125 C-3.8971875 496.23828125 -9.1771875 496.23828125 -14.6171875 496.23828125 C-14.66617188 493.92054688 -14.71515625 491.6028125 -14.765625 489.21484375 C-15.0511999 453.07089242 -15.0511999 453.07089242 -26.6171875 419.23828125 C-26.6171875 418.57828125 -26.6171875 417.91828125 -26.6171875 417.23828125 C-27.75542969 417.51414062 -28.89367187 417.79 -30.06640625 418.07421875 C-84.79511292 430.18867383 -84.79511292 430.18867383 -104.28515625 418.66015625 C-114.52430968 411.94496552 -121.48774911 403.05236962 -124.2421875 391 C-124.71708412 388.6452069 -125.17464255 386.28686814 -125.6171875 383.92578125 C-125.86355957 382.6728125 -126.10993164 381.41984375 -126.36376953 380.12890625 C-127.00486582 376.83583438 -127.63078636 373.54088 -128.2442627 370.24261475 C-128.61683717 368.24016416 -128.99317104 366.23844819 -129.37011719 364.23681641 C-130.08935765 360.40612145 -130.79375802 356.57283066 -131.4921875 352.73828125 C-131.70746094 351.55838623 -131.92273438 350.37849121 -132.14453125 349.1628418 C-132.33917969 348.06367432 -132.53382813 346.96450684 -132.734375 345.83203125 C-132.90565918 344.86974609 -133.07694336 343.90746094 -133.25341797 342.91601562 C-133.60628342 340.318547 -133.68434701 337.85571928 -133.6171875 335.23828125 C-134.679375 335.01914062 -135.7415625 334.8 -136.8359375 334.57421875 C-148.17074675 332.09230024 -155.22142218 329.00448602 -162.29296875 319.4609375 C-167.2204305 311.19036011 -168.56323194 302.61807316 -166.6171875 293.23828125 C-163.8221004 285.19426411 -159.63631038 277.72114754 -155.6171875 270.23828125 C-154.37743206 267.87505467 -153.1479838 265.50745827 -151.93359375 263.13110352 C-151.24246366 261.78286187 -150.53750329 260.4415855 -149.81640625 259.10913086 C-148.56718987 256.71556171 -147.60545885 254.8247135 -147.66015625 252.08984375 C-148.96697224 249.56155485 -150.68472752 247.8299601 -152.6796875 245.80078125 C-168.60187097 228.56229645 -175.47771297 206.33036482 -175.1171875 183.23828125 C-175.11131622 182.52794739 -175.10544495 181.81761353 -175.09939575 181.08575439 C-174.62906913 132.12673295 -153.87244389 86.27454368 -119.265625 51.84765625 C-88.14728429 21.79046953 -43.7691207 0.44128545 0 0 Z M-91.6171875 51.23828125 C-92.89916016 52.21474609 -92.89916016 52.21474609 -94.20703125 53.2109375 C-129.98017149 81.31465267 -151.88127563 122.34892705 -157.6171875 167.23828125 C-159.02196741 193.51250972 -156.39507782 215.73815147 -138.6171875 236.23828125 C-136.83260462 234.75833545 -136.83260462 234.75833545 -135.6171875 232.23828125 C-136.00935764 229.27155903 -136.53088408 226.6669877 -137.3046875 223.80078125 C-140.57934364 211.02849699 -142.02894499 198.60791309 -141.9921875 185.42578125 C-141.99197601 184.72239624 -141.99176453 184.01901123 -141.99154663 183.29431152 C-141.95999022 172.77331398 -141.3461193 163.18209937 -137.6171875 153.23828125 C-137.05644531 151.66046875 -137.05644531 151.66046875 -136.484375 150.05078125 C-127.82100627 127.56044653 -110.98959899 112.95042507 -92.6171875 98.23828125 C-89.3191991 100.73284147 -86.71325147 103.12749431 -84.3046875 106.48828125 C-83.79292969 107.1946875 -83.28117187 107.90109375 -82.75390625 108.62890625 C-82.37878906 109.16 -82.00367187 109.69109375 -81.6171875 110.23828125 C-84.03227777 112.81437754 -86.33387292 115.03432889 -89.2109375 117.10546875 C-90.12875 117.76804687 -91.0465625 118.430625 -91.9921875 119.11328125 C-92.88679688 119.72945313 -93.78140625 120.345625 -94.703125 120.98046875 C-96.97382832 123.13219227 -96.97382832 123.13219227 -96.43798828 126.2722168 C-95.60375751 130.99390652 -93.99473472 135.44425753 -92.3984375 139.953125 C-92.06872955 140.90044495 -91.73902161 141.84776489 -91.39932251 142.8237915 C-90.31161949 145.94337871 -89.21459923 149.05959745 -88.1171875 152.17578125 C-87.35096505 154.36548922 -86.58518412 156.55535173 -85.81982422 158.74536133 C-83.8247809 164.44709473 -81.82082717 170.14564971 -79.81335449 175.84301758 C-78.64939448 179.14686325 -77.48708297 182.45128442 -76.32519531 185.75585938 C-72.07187794 197.84738017 -67.79296677 209.92952916 -63.484375 222.00146484 C-62.31288323 225.2839579 -61.14556989 228.56785454 -59.984375 231.85400391 C-54.01755515 248.73032748 -47.51952254 265.16443877 -39.6171875 281.23828125 C-39.17938965 282.13305176 -38.7415918 283.02782227 -38.29052734 283.94970703 C-28.3886369 303.99195508 -16.41659628 322.6648554 -2.6171875 340.23828125 C-1.92367187 341.13289063 -1.23015625 342.0275 -0.515625 342.94921875 C1.4176657 345.40760076 3.39294204 347.82551612 5.3828125 350.23828125 C6.51009766 351.64400391 6.51009766 351.64400391 7.66015625 353.078125 C14.58793262 361.55009996 22.23155419 369.30270238 29.9453125 377.05078125 C30.47575165 377.58639679 31.0061908 378.12201233 31.55270386 378.67385864 C38.49330247 385.66775068 45.63966882 392.12357351 53.3828125 398.23828125 C54.64931862 399.27468155 55.91391086 400.31342919 57.17578125 401.35546875 C114.04367317 447.75697814 193.88864359 481.68517001 268.3828125 479.23828125 C265.5614936 476.41696235 262.11261756 475.33624445 258.47265625 473.859375 C256.82479759 473.17790895 255.17701378 472.49626185 253.52929688 471.81445312 C250.95103239 470.75432502 248.37176331 469.69678168 245.79077148 468.64331055 C215.33954913 456.18666717 184.01697929 438.65225081 164.3203125 411.3828125 C160.79001114 407.16052735 156.07164179 404.87324037 151.3203125 402.23828125 C135.46369933 393.1579534 120.67170409 382.61107252 106.3828125 371.23828125 C105.46628906 370.51511719 104.54976563 369.79195313 103.60546875 369.046875 C97.36347622 364.04074326 91.46590881 358.72691578 85.62890625 353.26171875 C83.57973799 351.34332259 81.5121015 349.46049197 79.41796875 347.58984375 C67.36198059 336.81227581 56.35846287 324.96469236 46.3828125 312.23828125 C45.3285693 310.92542435 44.2738427 309.61295554 43.21875 308.30078125 C34.24875126 297.05543494 26.12866047 285.35569686 18.3828125 273.23828125 C17.96725098 272.58859375 17.55168945 271.93890625 17.12353516 271.26953125 C1.94209192 247.28429741 -10.72989703 221.42662859 -21.6171875 195.23828125 C-16.6671875 192.92828125 -11.7171875 190.61828125 -6.6171875 188.23828125 C-5.9571875 190.21828125 -5.2971875 192.19828125 -4.6171875 194.23828125 C-3.93712012 195.80079908 -3.22650268 197.35039713 -2.48510742 198.88476562 C-2.06674118 199.75427856 -1.64837494 200.6237915 -1.21733093 201.51965332 C-0.76533829 202.44773804 -0.31334564 203.37582275 0.15234375 204.33203125 C0.86761482 205.80585266 0.86761482 205.80585266 1.59733582 207.30944824 C2.6115865 209.3949602 3.62793978 211.47945072 4.64624023 213.56298828 C6.16090478 216.66775221 7.6618056 219.7789022 9.16210938 222.890625 C29.48340915 264.7205734 56.56932087 301.26603154 89.1953125 334.23828125 C89.90059082 334.95661133 90.60586914 335.67494141 91.33251953 336.41503906 C95.4334417 340.52273322 99.55728769 344.00864896 104.3828125 347.23828125 C102.84455396 342.14028304 100.66146695 337.55949728 98.3203125 332.80078125 C83.44731435 301.84454302 74.48170832 269.22896665 66.97442627 235.86486816 C66.35644988 233.12123918 65.73502088 230.37840995 65.11279297 227.63574219 C62.51352066 216.17491951 59.93919116 204.70874627 57.3828125 193.23828125 C62.6628125 192.57828125 67.9428125 191.91828125 73.3828125 191.23828125 C73.83084229 193.2028125 74.27887207 195.16734375 74.74047852 197.19140625 C76.24659404 203.79053023 77.76075384 210.38779107 79.27855015 216.98423767 C80.19568466 220.97123731 81.1103632 224.95876245 82.01879883 228.94775391 C92.54754115 275.15673449 106.43597983 318.50728201 130.80712891 359.54394531 C132.21046582 361.9435775 133.52837704 364.36970362 134.83203125 366.82421875 C142.36189832 380.17848363 155.23274158 386.23332445 168.3828125 393.23828125 C170.33649153 394.31018875 172.28964013 395.38306374 174.2421875 396.45703125 C193.73217291 407.03072272 213.82039648 415.61784844 234.8203125 422.67578125 C235.93326187 423.05307373 235.93326187 423.05307373 237.06869507 423.43798828 C248.03530353 427.13259263 259.04782411 429.91860534 270.3828125 432.23828125 C267.17538625 428.99649925 263.95949559 426.00550461 260.3828125 423.17578125 C222.2974203 392.23778169 199.03943352 352.25515361 179.1953125 308.05078125 C178.36296083 306.20276858 177.53035699 304.35486947 176.69750977 302.50708008 C174.6392499 297.93829025 172.58496394 293.36772726 170.53210449 288.79650879 C169.1173963 285.64748707 167.70027397 282.49955578 166.28297424 279.35169983 C164.79392768 276.04373067 163.30693054 272.73484234 161.8203125 269.42578125 C161.29091064 268.24798096 160.76150879 267.07018066 160.21606445 265.85668945 C159.73355225 264.77991943 159.25104004 263.70314941 158.75390625 262.59375 C158.34068115 261.67231201 157.92745605 260.75087402 157.50170898 259.80151367 C155.02283577 254.12276834 153.88229405 250.44471002 154.3828125 244.23828125 C155.3828125 242.23828125 155.3828125 242.23828125 157.3828125 241.23828125 C164.3842896 240.46033935 164.3842896 240.46033935 167.36328125 242.78125 C169.98191481 245.96716974 171.82631245 249.35608682 173.7578125 252.98828125 C177.73985569 260.31289347 181.85237987 267.54693593 186.0703125 274.73828125 C191.03928244 283.22043108 195.97740703 291.71920375 200.8828125 300.23828125 C203.38174522 304.57223079 205.88205861 308.90538234 208.3828125 313.23828125 C209.0025293 314.31271484 209.62224609 315.38714844 210.26074219 316.49414062 C227.79327805 346.85692929 246.73661687 378.19431322 281.3828125 391.23828125 C282.0428125 390.90828125 282.7028125 390.57828125 283.3828125 390.23828125 C282.92132813 389.70203125 282.45984375 389.16578125 281.984375 388.61328125 C262.17689802 364.8129927 251.87530094 336.29284023 243.1953125 306.98828125 C242.87366119 305.90858063 242.55200989 304.82888 242.22061157 303.71646118 C231.69434232 268.32292026 222.83061316 232.65535923 214.98628235 196.58053589 C204.17166979 146.88854393 185.37417803 99.18930888 144.3828125 66.23828125 C143.36832031 65.40941406 142.35382813 64.58054688 141.30859375 63.7265625 C75.670738 10.68644033 -22.31104013 -3.04271661 -91.6171875 51.23828125 Z " fill="#000000" transform="translate(182.6171875,7.76171875)"/>
<path d="M0 0 C0.66 -0.0103125 1.32 -0.020625 2 -0.03125 C5.11660767 0.79659891 6.08072902 1.87032401 8 4.5 C9.1357367 7.90041831 9.8484871 11.36503757 10.5625 14.875 C13.03814928 26.8264323 13.03814928 26.8264323 20.55859375 36.12109375 C24.39128583 38.28579824 28.57014392 39.21068954 32.84472656 40.11962891 C37.80741166 41.21111748 37.80741166 41.21111748 40 44.5 C40.67623862 51.60050556 40.67623862 51.60050556 38.3671875 54.671875 C35.46782762 56.91098461 33.35208421 57.25340873 29.75 57.8125 C23.40594074 59.1383371 18.8494041 61.14307065 15 66.5 C12.22409964 72.89070919 10.87101149 79.31225082 9.62695312 86.140625 C8.71236272 90.67148289 7.98417364 93.71181218 4 96.5 C2 97.03125 2 97.03125 0 97 C-0.99 97.01546875 -0.99 97.01546875 -2 97.03125 C-5.141474 96.19679597 -6.07815694 95.17010163 -8 92.5 C-9.11832171 88.93079118 -9.80578875 85.29713811 -10.5 81.625 C-12.12528293 73.09506685 -13.74657578 66.38556716 -20.81640625 60.65625 C-24.54978065 58.67936481 -28.6865977 57.82301927 -32.79418945 56.93115234 C-37.80110444 55.79834334 -37.80110444 55.79834334 -40 52.5 C-40.67623862 45.39949444 -40.67623862 45.39949444 -38.3671875 42.328125 C-35.46782762 40.08901539 -33.35208421 39.74659127 -29.75 39.1875 C-23.26721861 37.79781286 -18.865543 36.04954193 -15 30.5 C-12.65767623 25.15024817 -11.44658666 19.60468278 -10.23828125 13.91015625 C-9.99464844 12.76417969 -9.75101562 11.61820313 -9.5 10.4375 C-9.3040625 9.39464844 -9.108125 8.35179687 -8.90625 7.27734375 C-7.42075858 2.7248248 -4.9560644 -0.07743851 0 0 Z M-1 40.5 C-2.57840572 42.05705194 -2.57840572 42.05705194 -4.125 44 C-4.66382813 44.6496875 -5.20265625 45.299375 -5.7578125 45.96875 C-6.16773438 46.4740625 -6.57765625 46.979375 -7 47.5 C-5.38617243 50.90212299 -3.41396234 53.60324519 -1 56.5 C2.7952131 55.00902342 4.61042731 52.74299151 7 49.5 C5.4722133 46.06247993 3.49818944 43.31046312 1 40.5 C0.34 40.5 -0.32 40.5 -1 40.5 Z " fill="#000000" transform="translate(464,167.5)"/>
<path d="M0 0 C0.66 -0.0103125 1.32 -0.020625 2 -0.03125 C5.11660767 0.79659891 6.08072902 1.87032401 8 4.5 C9.1357367 7.90041831 9.8484871 11.36503757 10.5625 14.875 C13.03814928 26.8264323 13.03814928 26.8264323 20.55859375 36.12109375 C24.39128583 38.28579824 28.57014392 39.21068954 32.84472656 40.11962891 C37.80741166 41.21111748 37.80741166 41.21111748 40 44.5 C40.67623862 51.60050556 40.67623862 51.60050556 38.3671875 54.671875 C35.46782762 56.91098461 33.35208421 57.25340873 29.75 57.8125 C23.40594074 59.1383371 18.8494041 61.14307065 15 66.5 C12.22409964 72.89070919 10.87101149 79.31225082 9.62695312 86.140625 C8.71236272 90.67148289 7.98417364 93.71181218 4 96.5 C2 97.03125 2 97.03125 0 97 C-0.99 97.01546875 -0.99 97.01546875 -2 97.03125 C-5.141474 96.19679597 -6.07815694 95.17010163 -8 92.5 C-9.11832171 88.93079118 -9.80578875 85.29713811 -10.5 81.625 C-12.12528293 73.09506685 -13.74657578 66.38556716 -20.81640625 60.65625 C-24.54978065 58.67936481 -28.6865977 57.82301927 -32.79418945 56.93115234 C-37.80110444 55.79834334 -37.80110444 55.79834334 -40 52.5 C-40.67623862 45.39949444 -40.67623862 45.39949444 -38.3671875 42.328125 C-35.46782762 40.08901539 -33.35208421 39.74659127 -29.75 39.1875 C-23.26721861 37.79781286 -18.865543 36.04954193 -15 30.5 C-12.65767623 25.15024817 -11.44658666 19.60468278 -10.23828125 13.91015625 C-9.99464844 12.76417969 -9.75101563 11.61820313 -9.5 10.4375 C-9.3040625 9.39464844 -9.108125 8.35179687 -8.90625 7.27734375 C-7.42075858 2.7248248 -4.9560644 -0.07743851 0 0 Z M-1 40.5 C-2.57840572 42.05705194 -2.57840572 42.05705194 -4.125 44 C-4.66382813 44.6496875 -5.20265625 45.299375 -5.7578125 45.96875 C-6.16773438 46.4740625 -6.57765625 46.979375 -7 47.5 C-5.38617243 50.90212299 -3.41396234 53.60324519 -1 56.5 C2.7952131 55.00902342 4.61042731 52.74299151 7 49.5 C5.4722133 46.06247993 3.49818944 43.31046312 1 40.5 C0.34 40.5 -0.32 40.5 -1 40.5 Z " fill="#000000" transform="translate(176,47.5)"/>
<path d="M0 0 C0.66 -0.0103125 1.32 -0.020625 2 -0.03125 C5.11660767 0.79659891 6.08072902 1.87032401 8 4.5 C9.1357367 7.90041831 9.8484871 11.36503757 10.5625 14.875 C13.03814928 26.8264323 13.03814928 26.8264323 20.55859375 36.12109375 C24.39128583 38.28579824 28.57014392 39.21068954 32.84472656 40.11962891 C37.80741166 41.21111748 37.80741166 41.21111748 40 44.5 C40.67623862 51.60050556 40.67623862 51.60050556 38.3671875 54.671875 C35.46782762 56.91098461 33.35208421 57.25340873 29.75 57.8125 C23.40594074 59.1383371 18.8494041 61.14307065 15 66.5 C12.22409964 72.89070919 10.87101149 79.31225082 9.62695312 86.140625 C8.71236272 90.67148289 7.98417364 93.71181218 4 96.5 C2 97.03125 2 97.03125 0 97 C-0.99 97.01546875 -0.99 97.01546875 -2 97.03125 C-5.141474 96.19679597 -6.07815694 95.17010163 -8 92.5 C-9.11832171 88.93079118 -9.80578875 85.29713811 -10.5 81.625 C-12.12528293 73.09506685 -13.74657578 66.38556716 -20.81640625 60.65625 C-24.54978065 58.67936481 -28.6865977 57.82301927 -32.79418945 56.93115234 C-37.80110444 55.79834334 -37.80110444 55.79834334 -40 52.5 C-40.67623862 45.39949444 -40.67623862 45.39949444 -38.3671875 42.328125 C-35.46782762 40.08901539 -33.35208421 39.74659127 -29.75 39.1875 C-23.26721861 37.79781286 -18.865543 36.04954193 -15 30.5 C-12.65767623 25.15024817 -11.44658666 19.60468278 -10.23828125 13.91015625 C-9.99464844 12.76417969 -9.75101562 11.61820313 -9.5 10.4375 C-9.3040625 9.39464844 -9.108125 8.35179687 -8.90625 7.27734375 C-7.42075858 2.7248248 -4.9560644 -0.07743851 0 0 Z M-1 40.5 C-2.57840572 42.05705194 -2.57840572 42.05705194 -4.125 44 C-4.66382813 44.6496875 -5.20265625 45.299375 -5.7578125 45.96875 C-6.16773438 46.4740625 -6.57765625 46.979375 -7 47.5 C-5.38617243 50.90212299 -3.41396234 53.60324519 -1 56.5 C2.7952131 55.00902342 4.61042731 52.74299151 7 49.5 C5.4722133 46.06247993 3.49818944 43.31046312 1 40.5 C0.34 40.5 -0.32 40.5 -1 40.5 Z " fill="#000000" transform="translate(408,7.5)"/>
</svg>
