<?xml version="1.0" encoding="UTF-8"?>
<svg version="1.1" xmlns="http://www.w3.org/2000/svg" width="512" height="512">
<path d="M0 0 C2.58455285 1.89533875 2.96275506 2.88826517 4 6 C4.2254462 7.74347432 4.41309419 9.49196079 4.578125 11.2421875 C7.45668454 39.92271002 12.9953339 70.87683244 33.75 92.51171875 C35 94 35 94 35 96 C35.60328125 96.27585937 36.2065625 96.55171875 36.828125 96.8359375 C39 98 39 98 41.75 100.625 C51.53466569 109.06788664 63.52771624 112.87979747 75.99267578 115.27758789 C84.21454403 116.92894896 84.21454403 116.92894896 87 121 C87.56416593 124.9491615 87.65243688 127.0464384 85.375 130.375 C81.09941039 133.30040342 77.26191755 133.10401383 72.29296875 132.51171875 C71.48754639 132.41721436 70.68212402 132.32270996 69.85229492 132.2253418 C69.2410376 132.150979 68.62978027 132.07661621 68 132 C67.75262085 132.80497925 67.75262085 132.80497925 67.50024414 133.6262207 C64.31763917 143.86075679 60.88723348 153.85727776 56.3125 163.5625 C55.94455322 164.35245361 55.57660645 165.14240723 55.19750977 165.95629883 C53.28774445 169.89322778 51.55584304 173.29279011 48 176 C45.23420014 176.78328316 42.79243718 176.65099763 40 176 C37.4375 173.9375 37.4375 173.9375 36 171 C36.28226423 164.89698966 38.53095952 160.38362123 41.25 155.0625 C44.32665072 148.82480624 47.02596859 142.6558111 49.0625 136 C49.26584961 135.33621338 49.46919922 134.67242676 49.67871094 133.98852539 C50.48772634 131.2168851 51 128.90386085 51 126 C50.24976563 125.6596875 49.49953125 125.319375 48.7265625 124.96875 C41.28794703 121.44618147 35.1102065 117.50569597 29 112 C28.52030762 111.56945312 28.04061523 111.13890625 27.54638672 110.6953125 C19.47392051 103.34679938 13.34366701 95.50348305 8 86 C7.48228027 85.08806885 7.48228027 85.08806885 6.95410156 84.15771484 C-1.36748603 69.2374599 -6.73895089 52.74005209 -10 36 C-10.99966797 37.39798828 -10.99966797 37.39798828 -12.01953125 38.82421875 C-18.31371099 47.55876332 -24.86765289 55.93551437 -32 64 C-32.46486816 64.52803223 -32.92973633 65.05606445 -33.40869141 65.60009766 C-65.57903272 101.92002674 -106.86274803 128.16377373 -154 140 C-140.01983958 173.80411779 -118.14868685 202.74050002 -84 218 C-63.4042085 226.08432937 -42.12926966 225.62896434 -21.88818359 217.11132812 C-8.28272536 211.01090826 3.34605631 203.04050934 14.08984375 192.734375 C22.19354247 185.12016144 22.19354247 185.12016144 27 185 C29.81656842 186.24453023 31.51276191 187.3577316 33.375 189.8125 C34.28059225 192.98207286 33.89649608 194.80908174 33 198 C31.21732355 200.50154618 29.09145758 202.56945254 26.875 204.6875 C26.2569751 205.29110352 25.6389502 205.89470703 25.00219727 206.51660156 C17.34780005 213.82005606 8.87511718 221.04995313 -1 225 C-0.67 234.9 -0.34 244.8 0 255 C2.66449219 255.66386719 5.32898438 256.32773437 8.07421875 257.01171875 C10.69946995 257.67180262 13.32400289 258.33467367 15.94848633 258.99780273 C17.7504911 259.4515565 19.55321066 259.90248257 21.35668945 260.3503418 C40.36555008 265.0748434 60.81946757 270.33190299 73 287 C73.66 287 74.32 287 75 287 C76.27460656 285.41838742 76.27460656 285.41838742 77.49609375 283.3515625 C77.97240234 282.59359375 78.44871094 281.835625 78.93945312 281.0546875 C79.43380859 280.25289063 79.92816406 279.45109375 80.4375 278.625 C81.40965948 277.05114917 82.38731369 275.48067582 83.37109375 273.9140625 C83.80349365 273.2123291 84.23589355 272.5105957 84.68139648 271.78759766 C86 270 86 270 89 268 C93.16165352 268.07566643 95.29925594 268.40436755 98.5 271.125 C100.50415934 274.9663054 99.9569539 276.80513361 99 281 C97.67804068 283.44353743 96.37847837 285.60857792 94.8125 287.875 C94.21272339 288.79116089 94.21272339 288.79116089 93.60083008 289.72583008 C91.8134125 292.43830523 89.99416117 295.00710574 87.9296875 297.51953125 C86.19184228 299.68209648 84.90898626 301.37559352 84 304 C84.50912957 306.90247369 85.41293927 309.1992043 86.71875 311.8359375 C90.2371745 320.52472971 90.46035617 330.16012237 91.00537109 339.4152832 C91.12465829 341.43172377 91.25490603 343.44723406 91.38671875 345.46289062 C91.6250179 349.30782845 91.82648054 353.15162259 92 357 C92.0525293 358.1564502 92.10505859 359.31290039 92.15917969 360.50439453 C92.20026855 362.09743408 92.20026855 362.09743408 92.2421875 363.72265625 C92.28255127 365.11303101 92.28255127 365.11303101 92.32373047 366.53149414 C91.93116636 369.52486947 91.08310259 370.84178408 89 373 C84.95334102 374.34888633 81.05105229 374.13400292 76.83161926 374.12025452 C75.88167184 374.12110894 74.93172442 374.12196337 73.95299071 374.12284368 C70.75615783 374.12449645 67.55937691 374.11898038 64.36254883 374.11352539 C62.07642111 374.11324345 59.79029331 374.11340139 57.50416565 374.1139679 C51.28552547 374.1142556 45.06690446 374.10836322 38.84826875 374.10139394 C32.35398089 374.09515592 25.85969262 374.09455624 19.36540222 374.09336853 C8.46112729 374.09061044 -2.44314054 374.08435805 -13.34741211 374.07543945 C-24.5795081 374.06626227 -35.81160219 374.05918293 -47.04370117 374.05493164 C-47.73589598 374.05466892 -48.42809078 374.05440619 -49.14126118 374.05413551 C-52.6137538 374.05283048 -56.08624643 374.05156677 -59.55873907 374.05032361 C-88.37249738 374.03995469 -117.18624852 374.02226532 -146 374 C-145.98428955 374.72590332 -145.9685791 375.45180664 -145.95239258 376.19970703 C-145.88979645 379.50805788 -145.85093088 382.81628381 -145.8125 386.125 C-145.78736328 387.26710938 -145.76222656 388.40921875 -145.73632812 389.5859375 C-145.67763792 396.31574754 -145.74612075 401.43259592 -150.5 406.64453125 C-155.56760898 410.59040386 -159.16589638 411.15334286 -165.40551758 411.17700195 C-166.15709641 411.18357315 -166.90867523 411.19014435 -167.68302917 411.19691467 C-170.17019757 411.21662468 -172.65730566 411.22830487 -175.14453125 411.23828125 C-175.99483099 411.24235678 -176.84513073 411.2464323 -177.72119713 411.25063133 C-182.22143688 411.27148188 -186.72164623 411.28578821 -191.22192383 411.29516602 C-195.86577764 411.30623079 -200.50915234 411.34063415 -205.1528368 411.38033772 C-208.72768535 411.406503 -212.30241969 411.41485774 -215.87735558 411.41844749 C-217.5889478 411.42331338 -219.30053493 411.43492748 -221.01203346 411.45348549 C-223.41050662 411.47787677 -225.80773919 411.4769125 -228.20629883 411.4699707 C-229.26090805 411.48918579 -229.26090805 411.48918579 -230.33682251 411.50878906 C-235.34292014 411.45613751 -238.12885557 410.10397068 -242 407 C-248.04517943 400.30128766 -247.28349719 393.39844724 -247.35009766 384.89428711 C-247.36668172 383.34140054 -247.39400458 381.78859107 -247.43212891 380.23608398 C-247.48691249 377.99162424 -247.50876661 375.74894449 -247.5234375 373.50390625 C-247.54610687 372.81212784 -247.56877625 372.12034943 -247.59213257 371.40760803 C-247.57599415 367.72300112 -247.24231165 366.25983217 -244.69384766 363.52709961 C-242 362 -242 362 -238.375 362.0625 C-233.85714286 363.31746032 -233.85714286 363.31746032 -232 366 C-228.94131473 375.1760558 -231 385.32758791 -231 395 C-208.23 395 -185.46 395 -162 395 C-162 374.54 -162 354.08 -162 333 C-184.77 333 -207.54 333 -231 333 C-231 335.64 -231 338.28 -231 341 C-232.10195622 344.89922969 -232.55064395 345.7004293 -236 348 C-239.67398845 348.40079874 -242.02271828 348.62355107 -245.18945312 346.60302734 C-247.98046885 342.59037771 -247.57219772 338.75486587 -247.53125 333.9765625 C-247.5350769 332.99763031 -247.53890381 332.01869812 -247.54284668 331.01010132 C-247.54556675 328.94064302 -247.53819895 326.8711504 -247.52148438 324.80175781 C-247.50012237 321.64309411 -247.52125947 318.48671689 -247.546875 315.328125 C-247.54423084 313.31509917 -247.53910404 311.30207475 -247.53125 309.2890625 C-247.53934692 308.34825836 -247.54744385 307.40745422 -247.55578613 306.43814087 C-247.45679674 299.46990431 -245.92227477 296.3718555 -241.375 291.125 C-240 290 -240 290 -238 290 C-238.00444122 288.78779282 -238.00888245 287.57558563 -238.01345825 286.3266449 C-238.05402798 274.89439203 -238.0839958 263.4621538 -238.10362434 252.02984524 C-238.11405484 246.15259739 -238.12820076 240.27540772 -238.15087891 234.39819336 C-238.17263327 228.72478222 -238.18457415 223.051427 -238.18975449 217.37797737 C-238.19344557 215.21507957 -238.20065331 213.05218479 -238.21146011 210.88931084 C-238.22600935 207.85639746 -238.22797649 204.82371423 -238.22705078 201.79077148 C-238.23424133 200.89956604 -238.24143188 200.0083606 -238.24884033 199.09014893 C-238.23011867 193.40956403 -238.1576908 187.61002598 -234.37890625 183.0390625 C-233.47978516 182.33910156 -233.47978516 182.33910156 -232.5625 181.625 C-231.66724609 180.90183594 -231.66724609 180.90183594 -230.75390625 180.1640625 C-224.4797668 175.99993431 -214.52459044 177.36679436 -207.390625 178.6484375 C-194.15178177 182.15283718 -182.68763934 188.54403739 -172 197 C-171.34386719 197.49113281 -170.68773437 197.98226562 -170.01171875 198.48828125 C-163.97948644 203.23649072 -159.01628115 209.93239936 -156 217 C-155.7215271 219.41717529 -155.7215271 219.41717529 -155.68115234 222.13574219 C-155.66128265 223.15649841 -155.64141296 224.17725464 -155.62094116 225.22894287 C-155.60938995 226.32386047 -155.59783875 227.41877808 -155.5859375 228.546875 C-155.56657135 229.6732135 -155.5472052 230.799552 -155.5272522 231.96002197 C-155.46748479 235.55660434 -155.42108181 239.15321876 -155.375 242.75 C-155.33681766 245.18881602 -155.29776578 247.6276186 -155.2578125 250.06640625 C-155.16178551 256.04415144 -155.07672952 262.02197766 -155 268 C-153.56333984 267.53364136 -153.56333984 267.53364136 -152.09765625 267.05786133 C-142.15101208 263.86741488 -132.1458308 261.16206439 -122 258.6875 C-120.53113851 258.32532165 -119.06238799 257.96269295 -117.59375 257.59960938 C-114.06375487 256.72791431 -110.53232935 255.86219429 -107 255 C-105.01754878 238.62265479 -105.01754878 238.62265479 -108.05029297 222.88916016 C-110.80204886 219.91082415 -114.41687365 218.44813767 -118.10498047 216.91992188 C-121.57440538 215.23571766 -124.32243245 212.6709817 -127.1875 210.125 C-127.77660156 209.61074463 -128.36570312 209.09648926 -128.97265625 208.56665039 C-148.05405237 191.69739715 -163.36693762 168.38562559 -171 144 C-171 143.34 -171 142.68 -171 142 C-172.53720703 142.14308594 -172.53720703 142.14308594 -174.10546875 142.2890625 C-175.46609431 142.40166599 -176.82677453 142.51361038 -178.1875 142.625 C-178.86103516 142.68945312 -179.53457031 142.75390625 -180.22851562 142.8203125 C-184.36086556 143.14283737 -187.33775913 143.00247299 -191 141 C-193.41957143 138.09651429 -194.02693963 136.67349069 -193.875 132.875 C-192.9493194 129.83347804 -192.47134187 128.89318701 -190 127 C-187.51416016 126.46337891 -187.51416016 126.46337891 -184.5390625 126.2265625 C-182.88789429 126.07731323 -182.88789429 126.07731323 -181.20336914 125.92504883 C-180.02250732 125.82603271 -178.84164551 125.7270166 -177.625 125.625 C-140.49061648 121.94874282 -107.18975317 107.06602873 -78 84 C-77.08863281 83.28199219 -76.17726562 82.56398438 -75.23828125 81.82421875 C-48.79082765 60.58325387 -26.66681318 35.38757336 -12.421875 4.42578125 C-9.15855083 -1.14159322 -6.10137637 -1.55307762 0 0 Z M-219 193 C-219.66 193.66 -220.32 194.32 -221 195 C-211.82062273 208.38659185 -197.79386979 217.92795906 -182 222 C-178.66708009 222.52483396 -175.37004269 222.85379424 -172 223 C-176.36616672 210.62564458 -191.46878551 202.48684607 -202.75 197 C-207.8955004 194.83225546 -213.38679757 193.16829707 -219 193 Z M-222 219 C-222 241.44 -222 263.88 -222 287 C-205.17 287 -188.34 287 -171 287 C-171 271.16 -171 255.32 -171 239 C-176.61 238.01 -182.22 237.02 -188 236 C-199.58907169 232.1369761 -210.8148129 227.1921939 -220 219 C-220.66 219 -221.32 219 -222 219 Z M-90 233 C-90.0093457 233.88260498 -90.01869141 234.76520996 -90.02832031 235.67456055 C-90.07246114 238.96456672 -90.13412676 242.25329074 -90.20751953 245.54272461 C-90.23566014 246.96350192 -90.25690908 248.38443378 -90.27099609 249.80541992 C-90.29252394 251.85415359 -90.33921514 253.901043 -90.390625 255.94921875 C-90.41157227 257.17987061 -90.43251953 258.41052246 -90.45410156 259.6784668 C-91.09711923 263.59092448 -92.19613632 265.23898398 -95 268 C-104.25405154 271.91479253 -114.60275086 273.6797927 -124.35913086 276.01782227 C-135.45023631 278.68333619 -145.85479799 281.66041999 -156 287 C-155.20441538 290.2669805 -155.20441538 290.2669805 -152.0625 292.4375 C-149 295 -149 295 -147 299 C-146.67 318.47 -146.34 337.94 -146 358 C-73.07 358 -0.14 358 75 358 C75 334.23158095 74.90554061 312.26140185 57.96484375 293.875 C45.39728445 281.88210047 29.41447483 278.62706773 13.0625 274.875 C10.26866421 274.23184602 7.47577213 273.58552895 4.68516541 272.92849731 C2.9619566 272.52285548 1.23688517 272.12501947 -0.49021912 271.73629761 C-4.86014451 270.70861964 -8.20533578 269.49740076 -12 267 C-12.66 267 -13.32 267 -14 267 C-16.17742288 259.84813949 -16.42867157 252.94411958 -16.625 245.5 C-16.66367187 244.29601562 -16.70234375 243.09203125 -16.7421875 241.8515625 C-16.83585016 238.90118881 -16.92157524 235.95081144 -17 233 C-18.57974609 233.50660156 -18.57974609 233.50660156 -20.19140625 234.0234375 C-44.60667715 241.65178486 -65.77693909 240.76798281 -90 233 Z M-231 304 C-231 308.29 -231 312.58 -231 317 C-208.23 317 -185.46 317 -162 317 C-162 312.71 -162 308.42 -162 304 C-163.83683222 302.16316778 -166.78655472 302.87225807 -169.24804688 302.87060547 C-169.90007584 302.86885315 -170.5521048 302.86710083 -171.22389221 302.86529541 C-173.38887153 302.86087796 -175.55376979 302.86381449 -177.71875 302.8671875 C-179.21708187 302.86651443 -180.71541363 302.86554438 -182.21374512 302.86428833 C-185.35783933 302.8628115 -188.50190517 302.86496542 -191.64599609 302.86962891 C-195.68486539 302.8753262 -199.72366824 302.87204711 -203.7625351 302.86605644 C-206.8576508 302.86245042 -209.95275065 302.86358961 -213.04786682 302.86618423 C-214.53748075 302.86685339 -216.0270961 302.86602548 -217.51670837 302.86370468 C-219.59516235 302.86117747 -221.67350731 302.86501967 -223.75195312 302.87060547 C-224.93696411 302.87140106 -226.1219751 302.87219666 -227.34289551 302.87301636 C-229.9219334 302.69775127 -229.9219334 302.69775127 -231 304 Z " fill="#000000" transform="translate(283,101)"/>
<path d="M0 0 C0.79536163 0.00215515 1.59072327 0.0043103 2.41018677 0.00653076 C13.94565681 0.05669822 25.02927448 0.4168289 36.25 3.3125 C37.04760742 3.50585938 37.84521484 3.69921875 38.66699219 3.8984375 C66.57709656 10.75689318 94.73241492 23.67124753 114.75 44.83984375 C117.02556306 47.07392519 119.5334003 48.65603677 122.25 50.3125 C122.50523437 49.22582031 122.50523437 49.22582031 122.765625 48.1171875 C125.97634543 35.30846239 125.97634543 35.30846239 131.1015625 32.18359375 C133.4334317 31.23812678 135.17813384 30.98098988 137.6875 30.9375 C138.42871094 30.90914062 139.16992188 30.88078125 139.93359375 30.8515625 C143.38853214 31.53905446 144.79925503 32.76077346 147.25 35.3125 C148.84819168 38.36002678 150.04845222 41.52877739 151.25 44.75 C154.76542952 54.13162391 159.23077987 59.71671904 168.25 64.3125 C171.57813394 65.58642687 174.91450526 66.78413682 178.296875 67.90625 C181.76418018 69.55734771 183.23992671 71.05809563 185.25 74.3125 C185.78125 76.8125 185.78125 76.8125 185.75 79.3125 C185.76546875 80.55 185.76546875 80.55 185.78125 81.8125 C185.02808447 85.3568084 183.8850907 86.79389959 181.25 89.3125 C178.18439475 90.97779416 175.00060093 92.24241457 171.75 93.5 C170.05171913 94.1800808 168.35378961 94.86103981 166.65625 95.54296875 C165.90666016 95.83582764 165.15707031 96.12868652 164.38476562 96.43041992 C160.03488454 98.12450569 160.03488454 98.12450569 156.80078125 101.31640625 C155.92818964 106.06305706 157.77841351 109.81432193 159.4375 114.25 C160.10678541 116.14920917 160.7708603 118.05026265 161.4296875 119.953125 C161.74905273 120.87544922 162.06841797 121.79777344 162.39746094 122.74804688 C168.10948498 139.92991989 168.56519699 158.49122268 168.515625 176.4296875 C168.51697707 178.187999 168.51892208 179.94631012 168.52142334 181.70462036 C168.52433829 185.34657434 168.52018858 188.98842885 168.51074219 192.63037109 C168.49922979 197.2951522 168.50600349 201.95970607 168.51788712 206.62447929 C168.52510343 210.23611172 168.52282089 213.84768985 168.51763153 217.45932388 C168.51630054 219.18090975 168.51792343 220.9025006 168.52259064 222.62408066 C168.52766511 225.0162858 168.51993827 227.40811584 168.50878906 229.80029297 C168.51283752 230.50569214 168.51688599 231.21109131 168.52105713 231.93786621 C168.49007047 235.52363184 168.41552522 238.36599388 166.25 241.3125 C162.9375 242.75 162.9375 242.75 159.25 243.3125 C155.64055533 241.78851225 154.43916735 240.59625102 152.25 237.3125 C152.05769989 234.78043964 151.98009121 232.35744905 151.99462891 229.82543945 C151.98919823 228.68291969 151.98919823 228.68291969 151.98365784 227.51731873 C151.9767583 225.85916148 151.97425944 224.2009815 151.97560501 222.54281044 C151.97657426 219.89363691 151.96357066 217.24486494 151.94662476 214.5957489 C151.90054498 207.06134386 151.87586189 199.52697266 151.86914062 191.99243164 C152.40221702 158.15376113 152.40221702 158.15376113 145.25 125.3125 C144.5075 125.8075 144.5075 125.8075 143.75 126.3125 C140.27962631 127.70064948 136.88981711 128.07673206 133.25 127.3125 C126.92996277 124.29237804 125.41569839 120.09193658 123.125 113.875 C120.07530318 105.83433349 117.7916131 100.11782863 109.625 96.25 C108.57054687 95.74339844 107.51609375 95.23679687 106.4296875 94.71484375 C103.56556902 93.45167602 100.69576698 92.36580837 97.75 91.3125 C94.41893684 90.00578069 93.18436736 89.243742 90.625 86.5625 C88.9890004 82.69559185 88.21919417 79.43572331 89.25 75.3125 C92.15437408 69.60643173 95.23794349 67.93080121 101 65.9375 C101.69738281 65.67839844 102.39476562 65.41929688 103.11328125 65.15234375 C104.8191004 64.52142434 106.53375041 63.91446814 108.25 63.3125 C108.47753478 61.15074745 108.47753478 61.15074745 106.58984375 59.53515625 C87.3504732 42.23536452 65.51161292 29.27682677 40.625 22 C39.80298096 21.75741455 38.98096191 21.5148291 38.1340332 21.26489258 C25.55224874 17.7687853 12.92387289 16.93354967 -0.0625 17 C-0.78611725 17.00149048 -1.5097345 17.00298096 -2.25527954 17.0045166 C-13.03350943 17.04439023 -23.27144057 17.58456218 -33.75 20.3125 C-34.93464844 20.60253906 -36.11929688 20.89257812 -37.33984375 21.19140625 C-76.03556675 31.41049774 -106.84990122 55.29581115 -128.75 88.3125 C-129.55050781 89.49005859 -129.55050781 89.49005859 -130.3671875 90.69140625 C-140.87697743 107.0241879 -146.3458748 126.38382931 -149.75 145.3125 C-149.92406876 146.15594467 -150.09813751 146.99938934 -150.27748108 147.86839294 C-150.91727309 152.53172401 -150.9110512 157.12647283 -150.92358398 161.82836914 C-150.930271 162.87459946 -150.93695801 163.92082977 -150.94384766 164.99876404 C-150.95786561 167.26423558 -150.96976993 169.52972097 -150.97979546 171.7952137 C-150.99624327 175.38024594 -151.01948073 178.96517495 -151.04469299 182.55015564 C-151.1153796 192.74082277 -151.17567182 202.93153072 -151.22680664 213.12231445 C-151.2585823 219.36031222 -151.29984752 225.59818863 -151.34700203 231.83608818 C-151.36302226 234.21273051 -151.37534372 236.58940073 -151.38390923 238.96608162 C-151.39605202 242.28618854 -151.42019592 245.6060093 -151.44702148 248.92602539 C-151.44761063 249.9085025 -151.44819977 250.89097961 -151.44880676 251.90322876 C-151.54177035 260.57875427 -151.54177035 260.57875427 -153.75 264.3125 C-157.4705836 266.79288907 -159.34796571 266.77587203 -163.75 266.3125 C-165.94129944 264.94117737 -165.94129944 264.94117737 -167.75 262.3125 C-168.35079804 258.83846419 -168.28561677 255.3965944 -168.25170898 251.87866211 C-168.25711197 250.81619766 -168.26251495 249.75373322 -168.26808167 248.65907288 C-168.28061556 245.13571529 -168.26402954 241.6131684 -168.24609375 238.08984375 C-168.2462488 235.63000953 -168.24773878 233.17017507 -168.25050354 230.71034241 C-168.25189021 225.54107933 -168.23929784 220.37209274 -168.21655273 215.20288086 C-168.18839107 208.62667847 -168.19084089 202.05094332 -168.20364285 195.4747076 C-168.2106595 190.38436514 -168.20273936 185.29412738 -168.19038582 180.20379829 C-168.18591331 177.78288744 -168.18549716 175.36196515 -168.18945122 172.94105339 C-168.23212393 123.75253902 -151.25044396 80.93859679 -116.37402344 45.89306641 C-112.40872629 42.03387613 -108.18172182 38.61637007 -103.75 35.3125 C-103.23002441 34.91756348 -102.71004883 34.52262695 -102.17431641 34.11572266 C-72.21978892 11.44432608 -37.5413303 -0.18333169 0 0 Z M136.25 56.3125 C134.83126501 58.39732091 134.83126501 58.39732091 133.4375 61 C128.78945991 68.94412621 122.47493485 74.20003257 114.25 78.3125 C114.25 78.9725 114.25 79.6325 114.25 80.3125 C115.12011719 80.76689453 115.12011719 80.76689453 116.0078125 81.23046875 C125.88021072 86.52507176 131.25379717 92.32009433 136.25 102.3125 C136.91 102.3125 137.57 102.3125 138.25 102.3125 C139.70386959 100.19492548 139.70386959 100.19492548 141.125 97.5625 C143.16672486 93.90663663 145.29304764 91.2566517 148.25 88.3125 C148.25 87.6525 148.25 86.9925 148.25 86.3125 C148.930625 86.065 149.61125 85.8175 150.3125 85.5625 C153.81865083 84.07052092 156.96620368 82.24414489 160.25 80.3125 C160.25 79.6525 160.25 78.9925 160.25 78.3125 C158.16517909 76.89376501 158.16517909 76.89376501 155.5625 75.5 C147.61837379 70.85195991 142.36246743 64.53743485 138.25 56.3125 C137.59 56.3125 136.93 56.3125 136.25 56.3125 Z " fill="#000000" transform="translate(229.75,-0.3125)"/>
<path d="M0 0 C6.87186029 4.45349407 11.28760425 10.22632317 13.03125 18.31640625 C13.46868573 25.99785409 12.53004959 33.47981556 11.5 41.078125 C11.34462769 42.26815628 11.18925537 43.45818756 11.0291748 44.6842804 C10.53590882 48.45831316 10.03434552 52.23117218 9.53125 56.00390625 C9.02883532 59.78743082 8.52836096 63.57116968 8.0333252 67.35566711 C7.72618651 69.70243719 7.41478103 72.04865394 7.09851074 74.39421082 C6.70872631 77.36556087 6.35828181 80.33758647 6.03125 83.31640625 C5.82918945 85.12202026 5.82918945 85.12202026 5.62304688 86.96411133 C6.12384821 91.07685241 7.66015603 93.86473459 9.60281372 97.48849487 C12.28495082 102.79838942 14.13300453 108.44102241 16.12109375 114.0390625 C16.592289 115.35186991 17.06402623 116.6644829 17.53627014 117.97691345 C18.77078109 121.41245698 19.99778931 124.85063257 21.22320557 128.28942871 C22.45331838 131.73696716 23.69087947 135.18182907 24.92773438 138.62695312 C26.81206706 143.877347 28.68778528 149.13072693 30.55712891 154.38647461 C32.02829829 158.52023465 33.51401051 162.64739196 35.03271484 166.76391602 C35.45926109 167.93240334 35.45926109 167.93240334 35.89442444 169.12449646 C36.60178299 171.05931348 37.31761193 172.99102858 38.03442383 174.92236328 C40.54327248 183.46461506 40.22245391 191.65316683 36.53125 199.81640625 C32.59758366 206.67723745 27.2051783 212.44001588 19.4921875 214.87890625 C8.79293564 216.78099547 -0.0899088 215.88956179 -9.078125 209.9140625 C-18.97891911 202.30236177 -22.41430249 188.96964575 -26.41015625 177.63671875 C-26.90460797 176.25227658 -27.39973484 174.86807538 -27.89549255 173.48410034 C-29.18742082 169.87192203 -30.47033618 166.25660958 -31.7512207 162.64050293 C-33.04416856 158.99536121 -34.34567782 155.35328048 -35.64648438 151.7109375 C-37.99761099 145.12401357 -40.34142927 138.5345448 -42.67800903 131.94244385 C-43.55955436 129.46594658 -44.44586527 126.99177015 -45.34030151 124.5199585 C-45.78092926 123.29891418 -46.22155701 122.07786987 -46.67553711 120.81982422 C-47.06849472 119.73651825 -47.46145233 118.65321228 -47.86631775 117.53707886 C-48.65701182 115.22712583 -49.36118622 112.88686781 -50.00752258 110.53244019 C-51.03958927 107.07939521 -51.81724569 105.99506542 -54.609375 103.83203125 C-55.32416016 103.25388672 -56.03894531 102.67574219 -56.77539062 102.08007812 C-57.49919922 101.49806641 -58.22300781 100.91605469 -58.96875 100.31640625 C-60.2673455 99.13692419 -61.55407854 97.94423889 -62.828125 96.73828125 C-63.46274658 96.14039795 -64.09736816 95.54251465 -64.7512207 94.92651367 C-65.40050537 94.31267822 -66.04979004 93.69884277 -66.71875 93.06640625 C-71.54916718 88.51923867 -76.38883288 83.98435601 -81.28125 79.50390625 C-82.22742188 78.63378906 -83.17359375 77.76367188 -84.1484375 76.8671875 C-86.06837402 75.13073521 -88.01232787 73.42055563 -89.9765625 71.734375 C-97.19398064 65.46965606 -103.1895578 59.15328165 -104.171875 49.2734375 C-104.34178787 41.49992384 -102.80504205 35.22455757 -97.90625 29.06640625 C-91.17204099 22.09892541 -81.52836649 19.23340123 -72.58203125 16.06640625 C-70.99191475 15.4955127 -70.99191475 15.4955127 -69.36967468 14.91308594 C-66.00892332 13.70835151 -62.64510488 12.51244354 -59.28125 11.31640625 C-57.04472996 10.51485822 -54.80840019 9.71277905 -52.57226562 8.91015625 C-46.37847093 6.69110537 -40.17622145 4.49687535 -33.96875 2.31640625 C-33.15700317 2.02984161 -32.34525635 1.74327698 -31.50891113 1.44802856 C-29.4371989 0.71968959 -27.36228113 0.00179213 -25.28515625 -0.7109375 C-24.19533447 -1.08726318 -23.1055127 -1.46358887 -21.98266602 -1.85131836 C-14.39107242 -3.94769281 -7.02831713 -3.65421561 0 0 Z M-20.96875 15.31640625 C-20.5665625 16.52296875 -20.5665625 16.52296875 -20.15625 17.75390625 C-19.5684375 19.51734375 -19.5684375 19.51734375 -18.96875 21.31640625 C-18.72769531 21.95835937 -18.48664063 22.6003125 -18.23828125 23.26171875 C-14.75159028 32.85454364 -12.06542323 45.15457691 -13.96875 55.31640625 C-15.76953125 57.15234375 -15.76953125 57.15234375 -17.96875 58.31640625 C-21.53125 58.31640625 -21.53125 58.31640625 -24.96875 57.31640625 C-28.46784748 53.04346991 -28.7523687 48.35507643 -29.40625 43.06640625 C-30.55748831 34.8206912 -32.31612321 28.29534643 -36.96875 21.31640625 C-45.10690304 23.62284133 -53.02557118 26.42069409 -60.96875 29.31640625 C-60.09927763 39.96744278 -55.36303872 47.27827793 -49.81713867 56.16088867 C-47.79271882 59.51473841 -46.96547125 61.11640268 -47.03125 65.12890625 C-47.96875 68.31640625 -47.96875 68.31640625 -50.96875 70.31640625 C-53.84375 70.75390625 -53.84375 70.75390625 -56.96875 70.31640625 C-66.8932213 61.63050896 -73.19316259 48.03784856 -75.96875 35.31640625 C-80.45394132 36.56808755 -83.77998264 37.85431598 -86.96875 41.31640625 C-87.97462859 44.05333172 -88.42581506 46.43022012 -87.96875 49.31640625 C-85.35201626 53.97394189 -81.99150104 57.42858742 -78.03125 60.94140625 C-76.86573117 61.99592329 -75.70037102 63.05061573 -74.53515625 64.10546875 C-73.94234863 64.63817383 -73.34954102 65.17087891 -72.73876953 65.71972656 C-69.95912799 68.22715493 -67.21520481 70.77275755 -64.46875 73.31640625 C-63.39467425 74.30744667 -62.32045483 75.2983314 -61.24609375 76.2890625 C-58.98458032 78.37624668 -56.72742184 80.46802877 -54.47265625 82.5625 C-53.89644531 83.09681641 -53.32023437 83.63113281 -52.7265625 84.18164062 C-51.63558197 85.19343709 -50.54565189 86.20636801 -49.45703125 87.22070312 C-48.46209653 88.1425563 -47.46206494 89.05894496 -46.45654297 89.96923828 C-45.4283336 90.90026213 -44.41238592 91.84494343 -43.40673828 92.80029297 C-40.53767971 95.51735503 -40.53767971 95.51735503 -36.828125 96.39453125 C-36.13203125 96.12125 -35.4359375 95.84796875 -34.71875 95.56640625 C-33.88085938 95.25574219 -33.04296875 94.94507813 -32.1796875 94.625 C-30.59027344 93.97724609 -30.59027344 93.97724609 -28.96875 93.31640625 C-27.42034558 92.72115506 -25.87076586 92.12895621 -24.3203125 91.5390625 C-19.85609686 89.83179453 -15.41008259 88.08229557 -10.96875 86.31640625 C-8.96544315 73.79166669 -7.25778096 61.2290577 -5.62533569 48.65139771 C-5.39673386 46.89247132 -5.16662133 45.13374059 -4.93496704 43.37521362 C-4.60434041 40.86009491 -4.2798565 38.34425557 -3.95703125 35.828125 C-3.85716919 35.07452698 -3.75730713 34.32092896 -3.65441895 33.54449463 C-2.23744235 23.91914002 -2.23744235 23.91914002 -5.96875 15.31640625 C-10.61455722 12.21920144 -16.26692366 12.18185536 -20.96875 15.31640625 Z M-12.4140625 107.28515625 C-13.49042969 107.69121094 -14.56679688 108.09726562 -15.67578125 108.515625 C-16.80371094 108.94488281 -17.93164062 109.37414062 -19.09375 109.81640625 C-20.22941406 110.24566406 -21.36507812 110.67492187 -22.53515625 111.1171875 C-25.34747628 112.18066986 -28.15860294 113.24719806 -30.96875 114.31640625 C-30.456389 117.82831756 -29.89212151 120.96125079 -28.40625 124.19140625 C-27.931875 125.22265625 -27.4575 126.25390625 -26.96875 127.31640625 C-23.57208547 126.1939053 -20.17657087 125.06796433 -16.78125 123.94140625 C-15.82154297 123.62429688 -14.86183594 123.3071875 -13.87304688 122.98046875 C-12.47602539 122.51640625 -12.47602539 122.51640625 -11.05078125 122.04296875 C-10.19718018 121.76018066 -9.3435791 121.47739258 -8.46411133 121.18603516 C-5.93189483 120.30356229 -3.45066861 119.3309415 -0.96875 118.31640625 C-1.25357368 116.89834794 -1.54693144 115.48200246 -1.84375 114.06640625 C-2.08738281 112.88304687 -2.08738281 112.88304687 -2.3359375 111.67578125 C-2.96025075 109.34809481 -3.81713542 107.42608673 -4.96875 105.31640625 C-7.74131302 105.31640625 -9.82057221 106.30235993 -12.4140625 107.28515625 Z M-2.00390625 134.93359375 C-2.97779297 135.29324219 -3.95167969 135.65289062 -4.95507812 136.0234375 C-5.97021484 136.40886719 -6.98535156 136.79429687 -8.03125 137.19140625 C-9.05025391 137.56910156 -10.06925781 137.94679688 -11.11914062 138.3359375 C-16.11866971 140.15128635 -16.11866971 140.15128635 -20.96875 142.31640625 C-18.65147984 152.12689191 -15.16271737 161.5257757 -11.66333008 170.96142578 C-10.98909184 172.78914263 -10.32313235 174.61993376 -9.6652832 176.45361328 C-8.70475127 179.13089637 -7.72051636 181.79835574 -6.73046875 184.46484375 C-6.44274094 185.2794809 -6.15501312 186.09411804 -5.85856628 186.93344116 C-3.58590143 192.92454965 -0.83731245 196.38212502 5.03125 199.31640625 C9.70595792 199.88672062 13.15441498 199.75482376 17.40625 197.62890625 C20.69712917 194.72979841 22.75626022 192.73254351 23.2681427 188.23500061 C23.43899497 181.28400177 21.87740476 175.7687288 19.41796875 169.3125 C19.04775101 168.30800308 18.67753326 167.30350616 18.2960968 166.26856995 C17.5161822 164.16400253 16.72831274 162.0623674 15.93286133 159.96362305 C14.71316638 156.73914497 13.52394406 153.50456153 12.33789062 150.26757812 C11.57468766 148.2193913 10.80977463 146.17184068 10.04296875 144.125 C9.68659836 143.15533798 9.33022797 142.18567596 8.96305847 141.18663025 C8.62293228 140.29802811 8.28280609 139.40942596 7.93237305 138.49389648 C7.63703171 137.70909409 7.34169037 136.92429169 7.03739929 136.1157074 C4.77431122 132.06861717 1.56822898 133.59778851 -2.00390625 134.93359375 Z " fill="#000000" transform="translate(436.96875,248.68359375)"/>
</svg>
