<?xml version="1.0" encoding="UTF-8"?>
<svg version="1.1" xmlns="http://www.w3.org/2000/svg" width="512" height="512">
<path d="M0 0 C1.47292104 -0.00322437 2.94584179 -0.00658927 4.41876221 -0.01008606 C7.49142192 -0.0160353 10.56405369 -0.01793034 13.63671875 -0.01733398 C17.53048505 -0.01723262 21.42406798 -0.03087726 25.31779099 -0.04810619 C28.35683987 -0.05934772 31.39584611 -0.06124951 34.43491364 -0.06072426 C35.86830527 -0.06188647 37.30169867 -0.06620621 38.73506927 -0.07405663 C61.21190705 -0.18564633 81.46689411 3.33688746 98.609375 19.109375 C110.25790432 31.28948404 118.69044057 47.12028683 118.65429688 64.30761719 C118.61923229 65.73400037 118.57417724 67.16017023 118.51953125 68.5859375 C118.49375 69.30287781 118.46796875 70.01981812 118.44140625 70.75848389 C118.32320926 73.70199935 118.18941252 76.64166742 117.98852539 79.58081055 C117.31576013 88.89683893 117.31576013 88.89683893 120.65527344 97.41381836 C123.18117351 100.15661943 125.82205325 102.65952632 128.578125 105.16796875 C130.45881354 107.46164918 132.09731301 109.8638148 133.703125 112.35546875 C134.31559082 113.29447021 134.31559082 113.29447021 134.94042969 114.25244141 C150.33215351 138.37013472 157.65412023 165.34204965 157.77099609 193.85644531 C157.77917358 194.97968201 157.78735107 196.1029187 157.79577637 197.26019287 C157.82040677 200.94298795 157.83707912 204.62574539 157.8515625 208.30859375 C157.85688618 209.57171135 157.86220985 210.83482895 157.86769485 212.13622284 C157.88886113 217.44146807 157.90799614 222.74670036 157.91931725 228.05197525 C157.93559205 235.62351609 157.9689303 243.19454725 158.02571809 250.76589608 C158.06910173 256.75561185 158.0850618 262.74509528 158.09144974 268.73497772 C158.09816902 271.27552697 158.11340845 273.81606856 158.13734055 276.35651398 C158.16888039 279.90376524 158.16904622 283.44971626 158.16162109 286.99707031 C158.17802643 288.04447388 158.19443176 289.09187744 158.21133423 290.17102051 C158.17183348 294.77634899 158.13494169 298.12164983 155.18423462 301.80926514 C151.85391531 304.82342699 150.0550712 305.13178591 145.73046875 305.34765625 C141.63586879 305.00582032 139.37806172 302.96790547 136.578125 300.16796875 C135.56915266 297.18981587 135.45145509 294.42560216 135.44682312 291.29710388 C135.44081085 289.82811646 135.44081085 289.82811646 135.43467712 288.32945251 C135.43520584 287.26094559 135.43573456 286.19243866 135.4362793 285.09155273 C135.43106766 283.39544357 135.43106766 283.39544357 135.42575073 281.66506958 C135.41839439 279.20587595 135.41304836 276.74667569 135.40946007 274.28747368 C135.40228026 270.37950694 135.38659774 266.47166473 135.36811829 262.56373596 C135.36178045 261.22128588 135.35545483 259.87883573 135.34914112 258.53638554 C135.34597531 257.86390628 135.3428095 257.19142702 135.33954775 256.49856961 C135.29765735 247.40702201 135.26459049 238.31551447 135.25219727 229.22387695 C135.242833 222.42395097 135.21251146 215.62434422 135.17087746 208.82454109 C135.15866286 206.24734923 135.1534285 203.67011343 135.15567589 201.0928936 C135.17158974 176.86471035 132.0475428 155.61245018 120.375 134.18359375 C120.00810059 133.50312988 119.64120117 132.82266602 119.26318359 132.12158203 C118.37135628 130.46865128 117.4752026 128.81805596 116.578125 127.16796875 C116.32077433 131.60572339 116.06346077 136.04347998 115.80711365 140.48129272 C115.46827911 146.3468932 115.12747284 152.2123669 114.78295898 158.07763672 C114.16074799 168.71767507 113.54767267 179.35608496 113.07421875 190.00390625 C111.57210676 223.25265359 105.65181468 250.38866759 80.578125 274.16796875 C62.7986964 289.49238904 39.1779305 298.00713546 15.69921875 297.4140625 C-12.08933319 295.22297518 -35.137101 284.61146977 -54.10791016 263.71142578 C-68.62978411 246.65321561 -74.87516207 225.11919001 -75.88671875 203.09057617 C-75.92427277 202.32679153 -75.96182678 201.5630069 -76.0005188 200.77607727 C-76.08096984 199.13167443 -76.16003156 197.48720313 -76.23782349 195.84267235 C-76.36141658 193.23028463 -76.48873149 190.61810053 -76.61694336 188.00593567 C-76.88863558 182.45594142 -77.15537478 176.90571432 -77.421875 171.35546875 C-77.73111886 164.92841085 -78.04243852 158.50146051 -78.35720825 152.07467079 C-78.48156776 149.51863634 -78.6030638 146.96247691 -78.72436523 144.40629578 C-79.11558701 136.30643606 -79.57172103 128.23584331 -80.421875 120.16796875 C-94.67449118 142.20411131 -103.59701799 163.98440027 -103.55317688 190.56129456 C-103.55529259 191.70235324 -103.55740831 192.84341193 -103.55958813 194.01904815 C-103.56557521 197.8389617 -103.56458891 201.6588421 -103.5637207 205.47875977 C-103.56618169 208.21879232 -103.57020039 210.95882193 -103.57424927 213.69885254 C-103.58234769 219.59735164 -103.58730095 225.49584643 -103.59053993 231.39435005 C-103.59604567 240.71774737 -103.61295124 250.0411083 -103.63188171 259.36448669 C-103.63823771 262.55621046 -103.64454621 265.74793432 -103.65085888 268.93965816 C-103.65323452 270.13596842 -103.65323452 270.13596842 -103.65565816 271.35644655 C-103.67358081 280.42700018 -103.68981534 289.49755635 -103.70483398 298.56811523 C-103.70620986 299.39696438 -103.70758573 300.22581353 -103.70900329 301.07977932 C-103.7309509 314.52242089 -103.74169469 327.96505304 -103.74920473 341.40770937 C-103.75727373 355.21449375 -103.78055386 369.02119737 -103.8171584 382.82793564 C-103.83918483 391.34186088 -103.84884767 399.85562009 -103.84265807 408.36957239 C-103.8394852 414.20141843 -103.85080207 420.03312251 -103.87355248 425.86492462 C-103.88622725 429.22986053 -103.89020757 432.5942156 -103.88113594 435.95920372 C-103.87229352 439.60700116 -103.88786807 443.25390216 -103.90962219 446.90162659 C-103.90117966 447.96494927 -103.89273712 449.02827196 -103.88403875 450.12381655 C-103.95009114 456.09729602 -104.39905436 459.63509477 -108.421875 464.16796875 C-112.13640732 466.02523491 -116.37766925 465.75297964 -120.421875 465.16796875 C-123.24611788 462.97773957 -124.83696103 461.33779668 -126.421875 458.16796875 C-126.51680631 456.67778407 -126.54923041 455.1834047 -126.55050945 453.69019985 C-126.5537339 452.74225125 -126.55695835 451.79430264 -126.5602805 450.81762832 C-126.5587319 449.76893021 -126.5571833 448.72023209 -126.55558777 447.63975525 C-126.55785333 446.53114767 -126.56011888 445.42254009 -126.56245309 444.28033835 C-126.56881809 440.53966505 -126.5679621 436.79902775 -126.56713867 433.05834961 C-126.57012883 430.38616295 -126.57350254 427.71397918 -126.57731628 425.04179382 C-126.58563772 418.51783575 -126.58837191 411.99388672 -126.58892866 405.46992379 C-126.58940368 400.16071431 -126.59145773 394.85150781 -126.59462929 389.54229927 C-126.60344451 374.47774754 -126.608048 359.41320293 -126.60729881 344.3486486 C-126.60723888 343.12938908 -126.60723888 343.12938908 -126.60717773 341.88549805 C-126.60713685 341.07165988 -126.60709597 340.25782171 -126.60705385 339.41932178 C-126.60664845 326.26507332 -126.61618895 313.11085363 -126.6303161 299.95661347 C-126.64471914 286.43812768 -126.65158394 272.91965586 -126.65072232 259.40116221 C-126.65039142 251.81673982 -126.6530907 244.2323475 -126.66390038 236.64793205 C-126.67305776 230.18125572 -126.67513849 223.71462302 -126.66839095 217.24794298 C-126.66515025 213.9547298 -126.66608937 210.66161647 -126.6737442 207.3684082 C-126.77111306 162.54820851 -116.73732557 125.34057283 -85.421875 92.16796875 C-84.89585693 91.74749268 -84.36983887 91.3270166 -83.82788086 90.89379883 C-81.83090085 88.44256568 -82.03754374 86.66488205 -82.015625 83.53125 C-81.9959668 82.40404541 -81.97630859 81.27684082 -81.95605469 80.11547852 C-81.94477539 78.91592529 -81.93349609 77.71637207 -81.921875 76.48046875 C-81.36335313 53.20514389 -77.1217137 33.704584 -59.60546875 17.0078125 C-41.83586719 2.03557219 -22.27804592 0.01162328 0 0 Z M-51.421875 40.16796875 C-58.52646476 49.05344234 -60.73095839 59.29711336 -60.60498047 70.40942383 C-60.59938551 71.31541478 -60.59379055 72.22140574 -60.58802605 73.15485096 C-60.45906371 85.32109787 -59.80370395 97.46845366 -59.1796875 109.6171875 C-59.04965552 112.21204646 -58.91993148 114.80692087 -58.79049683 117.40180969 C-58.51985281 122.80329151 -58.24553783 128.20456795 -57.96826172 133.60571289 C-57.65051597 139.79651616 -57.34053555 145.98767265 -57.0345279 152.17906636 C-56.7362536 158.20904409 -56.43173632 164.23868862 -56.12472153 170.26822853 C-55.99635428 172.80153141 -55.86957467 175.33491531 -55.74451065 177.86838341 C-54.92030572 194.6446786 -54.92030572 194.6446786 -53.45654297 211.37426758 C-53.38429567 212.06438525 -53.31204838 212.75450293 -53.23761177 213.46553326 C-51.15590142 231.21034447 -41.48089076 248.36198816 -27.48828125 259.50390625 C-10.02617891 272.41183684 9.18093588 277.76464735 30.76660156 274.875 C44.6683329 272.35848221 57.16382215 265.55207977 67.578125 256.16796875 C68.52945313 255.33845703 68.52945313 255.33845703 69.5 254.4921875 C74.59969248 249.7648177 78.09668534 244.14734137 81.578125 238.16796875 C81.97 237.49894531 82.361875 236.82992187 82.765625 236.140625 C89.46224639 223.76757064 90.65543394 210.55611292 91.35009766 196.80395508 C91.42058138 195.45293895 91.49132301 194.10193626 91.56230164 192.75094604 C91.75338575 189.09587295 91.94027756 185.44059752 92.12595415 181.78524613 C92.24238787 179.49606061 92.35966202 177.20691968 92.47721481 174.91779137 C92.88801816 166.91598963 93.29515751 158.91401014 93.69921875 150.91186523 C94.07465045 143.47882484 94.4584964 136.04625086 94.84620821 128.61384183 C95.17974274 122.21215414 95.50704094 115.81016645 95.82965314 109.40791911 C96.02198777 105.59340568 96.2168089 101.77906075 96.41804886 97.96500587 C96.60739617 94.37267424 96.78891023 90.78002689 96.96471596 87.1870079 C97.06093681 85.25918859 97.16501045 83.33176609 97.26942444 81.40437317 C98.09291833 64.1362157 96.45692445 49.52648024 84.578125 36.16796875 C74.94618476 26.66575161 63.48653959 22.04323007 50.05664062 21.9909668 C49.31601379 21.9843956 48.57538696 21.9778244 47.81231689 21.97105408 C45.36966836 21.95140371 42.92708126 21.93967325 40.484375 21.9296875 C39.22478218 21.92357421 39.22478218 21.92357421 37.93974304 21.91733742 C33.48977915 21.89650581 29.03984578 21.88219492 24.58984375 21.87280273 C20.02520153 21.86178045 15.46105244 21.82742096 10.89658356 21.78763103 C7.36005843 21.76130146 3.82364756 21.75309624 0.28703308 21.74952126 C-1.39365445 21.74469266 -3.0743382 21.73318708 -4.75492859 21.71448326 C-23.21877564 21.52186288 -39.00354782 25.58268514 -51.421875 40.16796875 Z " fill="#000000" transform="translate(252.421875,46.83203125)"/>
<path d="M0 0 C4.69670165 2.13419304 6.40229898 4.83206316 8.8125 9.3125 C9.15740479 9.92770508 9.50230957 10.54291016 9.85766602 11.17675781 C11.59836656 14.29582678 13.21797953 17.43154261 14.6953125 20.68359375 C19.99390529 31.53026464 27.40713829 35.70988495 38 41 C40.1293931 42.11666244 42.25517173 43.240285 44.375 44.375 C45.20773437 44.79523438 46.04046875 45.21546875 46.8984375 45.6484375 C50.516732 47.97544474 51.80438385 50.24548055 52.875 54.375 C53.02340447 58.67872969 52.28401324 60.37934656 50 64 C47.13671875 66.0546875 47.13671875 66.0546875 43.6875 67.875 C42.43584137 68.54881728 41.18455047 69.223318 39.93359375 69.8984375 C39.28890137 70.2397168 38.64420898 70.58099609 37.97998047 70.93261719 C35.97440665 72.01379706 34.00300315 73.14078658 32.03515625 74.2890625 C31.4006958 74.65918457 30.76623535 75.02930664 30.11254883 75.41064453 C28.88888878 76.12633088 27.66604284 76.84341134 26.4440918 77.56201172 C22.22213476 80 22.22213476 80 20 80 C19.78859375 80.76054687 19.5771875 81.52109375 19.359375 82.3046875 C17.44784928 87.50096144 14.87278919 92.25684739 12.25 97.125 C11.73695313 98.11371094 11.22390625 99.10242188 10.6953125 100.12109375 C7.79790539 105.50095267 5.65238461 109.4064632 0 112 C-2.37890625 112.3828125 -2.37890625 112.3828125 -4.5625 112.125 C-5.64724609 112.03605469 -5.64724609 112.03605469 -6.75390625 111.9453125 C-12.1077974 109.69202266 -14.29474923 104.58591288 -16.59375 99.5859375 C-23.57054291 84.45476723 -30.38921965 76.97053985 -45.58837891 70.14379883 C-56.79195627 64.83009565 -56.79195627 64.83009565 -59 60 C-59.62646248 55.14491578 -59.81244851 53.34017734 -57.25 49.11328125 C-53.89631818 45.31482035 -49.51191341 43.7174515 -44.97314453 41.66210938 C-29.67237619 34.61510852 -22.86085026 26.64740603 -16.12280273 11.41845703 C-12.55824877 3.74059847 -9.05010047 -0.95264215 0 0 Z M-4 34 C-4.42667969 34.92941406 -4.85335937 35.85882813 -5.29296875 36.81640625 C-10.11567204 46.58581012 -14.84822361 50.88357847 -25 55 C-25 55.66 -25 56.32 -25 57 C-24.07058594 57.42667969 -23.14117187 57.85335937 -22.18359375 58.29296875 C-12.41418988 63.11567204 -8.11642153 67.84822361 -4 78 C-1.29780316 75.46810968 0.64919138 73.21637037 2.25 69.875 C2.75273437 68.85019531 2.75273437 68.85019531 3.265625 67.8046875 C4.12563825 66.01598149 4.12563825 66.01598149 4 64 C4.9590625 63.6596875 4.9590625 63.6596875 5.9375 63.3125 C13.54190346 60.41008571 13.54190346 60.41008571 19 55 C18.07058594 54.56171875 17.14117187 54.1234375 16.18359375 53.671875 C7.98146809 49.55197963 3.37842256 45.97515368 -0.765625 37.44140625 C-1.76033841 34.87132327 -1.76033841 34.87132327 -4 34 Z " fill="#000000" transform="translate(458,54)"/>
<path d="M0 0 C5.0768677 3.54103491 7.00969414 10.05772891 9.57421875 15.4609375 C15.01737023 26.42183221 19.89107089 32.55715301 31.29931641 36.99511719 C34.37489942 38.25507075 37.14459943 39.90509312 40.01171875 41.5859375 C40.94628906 42.10800781 41.88085938 42.63007813 42.84375 43.16796875 C45.99308768 45.31453224 47.87786096 47.15506806 48.6328125 50.95703125 C48.63410156 51.70082031 48.63539062 52.44460938 48.63671875 53.2109375 C48.65605469 53.95214844 48.67539063 54.69335938 48.6953125 55.45703125 C47.79734643 59.64989643 45.07541606 62.18750258 41.58959961 64.51855469 C40.62417236 65.03063477 39.65874512 65.54271484 38.6640625 66.0703125 C37.60767578 66.63621094 36.55128906 67.20210938 35.46289062 67.78515625 C34.36525391 68.35878906 33.26761719 68.93242187 32.13671875 69.5234375 C31.03521484 70.11253906 29.93371094 70.70164062 28.79882812 71.30859375 C20.73172935 75.59593397 20.73172935 75.59593397 17.19921875 76.7734375 C16.4632657 78.41068987 15.81877135 80.08868921 15.19921875 81.7734375 C13.66375884 84.95493418 12.02308225 88.0803982 10.38671875 91.2109375 C9.96068359 92.04431641 9.53464844 92.87769531 9.09570312 93.73632812 C3.02053864 105.36277755 3.02053864 105.36277755 -1.80078125 107.7734375 C-8.69153755 108.46251313 -8.69153755 108.46251313 -12.63671875 106.01171875 C-17.30156865 101.85994336 -19.83308212 96.04301942 -22.67578125 90.5859375 C-23.26875 89.48056641 -23.86171875 88.37519531 -24.47265625 87.23632812 C-28.80078125 79.08369636 -28.80078125 79.08369636 -28.80078125 76.7734375 C-29.86401611 76.36593262 -29.86401611 76.36593262 -30.94873047 75.95019531 C-36.1124588 73.819638 -40.99186497 71.13345002 -45.92578125 68.5234375 C-47.02277344 67.96269531 -48.11976562 67.40195312 -49.25 66.82421875 C-50.30058594 66.26605469 -51.35117187 65.70789063 -52.43359375 65.1328125 C-53.39152832 64.63233398 -54.34946289 64.13185547 -55.33642578 63.61621094 C-58.35763742 61.35703663 -59.3994787 59.24009161 -60.80078125 55.7734375 C-61.0859375 53.61328125 -61.0859375 53.61328125 -60.86328125 51.7109375 C-60.81300781 51.08058594 -60.76273438 50.45023437 -60.7109375 49.80078125 C-58.38833452 44.62725787 -53.38850712 42.48428281 -48.45703125 40.35546875 C-31.02576451 32.68226021 -24.35415591 23.58519242 -17.15917969 6.40795898 C-13.51199644 -0.66550514 -7.47709442 -3.27448765 0 0 Z M-6.80078125 32.7734375 C-7.15527344 33.63066406 -7.50976562 34.48789062 -7.875 35.37109375 C-12.36854286 45.02187467 -16.93642717 48.69419333 -26.80078125 52.7734375 C-24.47845824 55.37474087 -22.15334025 56.66447564 -19.05078125 58.2109375 C-13.40118097 61.45697977 -11.06743658 65.64557529 -8.17578125 71.359375 C-7.72203125 72.15601563 -7.26828125 72.95265625 -6.80078125 73.7734375 C-6.14078125 73.7734375 -5.48078125 73.7734375 -4.80078125 73.7734375 C-3.79569324 71.98462014 -2.79685389 70.19229054 -1.80078125 68.3984375 C-1.24390625 67.40070313 -0.68703125 66.40296875 -0.11328125 65.375 C1.34936143 62.96148241 1.34936143 62.96148241 1.19921875 60.7734375 C2.15828125 60.433125 2.15828125 60.433125 3.13671875 60.0859375 C7.33242136 58.28777924 11.23822431 56.03439729 15.19921875 53.7734375 C12.52692006 51.64404373 9.99905858 50.21244304 6.88671875 48.8359375 C1.48240729 45.95542166 -0.64875577 41.63552 -3.390625 36.3203125 C-4.54732569 33.66438758 -4.54732569 33.66438758 -6.80078125 32.7734375 Z " fill="#000000" transform="translate(61.80078125,244.2265625)"/>
<path d="M0 0 C0.82242188 -0.05414063 1.64484375 -0.10828125 2.4921875 -0.1640625 C9.0942249 1.81458966 12.45772342 9.58363804 15.5625 15.25195312 C16.036875 16.13818359 16.51125 17.02441406 17 17.9375 C17.49757813 18.84306641 17.99515625 19.74863281 18.5078125 20.68164062 C22.125 27.34461925 22.125 27.34461925 22.125 29.625 C22.85259521 29.90424316 23.58019043 30.18348633 24.32983398 30.47119141 C28.79406398 32.31396815 32.95599186 34.6813654 37.1875 37 C38.08533203 37.48210938 38.98316406 37.96421875 39.90820312 38.4609375 C40.77509766 38.9353125 41.64199219 39.4096875 42.53515625 39.8984375 C43.32027588 40.32560059 44.10539551 40.75276367 44.91430664 41.19287109 C48.73151659 43.66573178 50.83185129 45.56966464 52.0625 50 C52.13796919 54.37721316 51.69520076 56.07207542 49.125 59.625 C45.18490551 63.01758756 40.76253493 65.38789108 35.98828125 67.3828125 C21.82312342 73.68554617 16.70689371 83.20308795 10.6003418 97.12646484 C8.85052728 100.08982771 6.94492657 101.68169129 4.125 103.625 C1.84375 104.19140625 1.84375 104.19140625 -0.375 104.1875 C-1.1071875 104.20941406 -1.839375 104.23132813 -2.59375 104.25390625 C-7.53924325 102.89050828 -9.98921097 98.63958031 -12.41015625 94.41015625 C-13.261348 92.84064812 -14.10364312 91.2662862 -14.9375 89.6875 C-15.78009635 88.11456745 -16.62510548 86.54292473 -17.47265625 84.97265625 C-17.83883057 84.28179932 -18.20500488 83.59094238 -18.58227539 82.87915039 C-21.68269289 77.47288887 -24.02609973 74.06310848 -29.62890625 71.1171875 C-30.73041016 70.52292969 -31.83191406 69.92867188 -32.96679688 69.31640625 C-34.68479492 68.41728516 -34.68479492 68.41728516 -36.4375 67.5 C-38.71399373 66.29727589 -40.9863368 65.08665367 -43.25390625 63.8671875 C-44.2601001 63.3397998 -45.26629395 62.81241211 -46.30297852 62.26904297 C-48.90344909 60.60681526 -50.28244266 59.24432032 -51.875 56.625 C-52.30859375 54.44140625 -52.30859375 54.44140625 -52.3125 52.1875 C-52.33183594 51.44628906 -52.35117187 50.70507812 -52.37109375 49.94140625 C-51.67393882 46.68618677 -50.10477817 45.07617291 -47.875 42.625 C-45.34472656 41.08618164 -45.34472656 41.08618164 -42.515625 39.78515625 C-29.41170192 33.44587082 -21.39017565 29.32749273 -15.875 15.625 C-14.66318339 13.37484789 -13.41440385 11.14410865 -12.125 8.9375 C-11.59390625 7.98488281 -11.0628125 7.03226562 -10.515625 6.05078125 C-7.66243316 1.83213332 -5.10757397 0.1750259 0 0 Z M-0.875 33.625 C-1.83845444 35.49737371 -2.79553102 37.3730299 -3.75 39.25 C-7.53723444 45.93893598 -11.88043468 48.74116475 -18.875 51.625 C-16.33988968 53.60801963 -13.85436707 55.15769484 -11 56.625 C-5.62272008 59.87754946 -3.43861392 65.08021383 -0.875 70.625 C1.6190773 68.39308423 2.78080921 66.35268151 4.125 63.3125 C7.22785074 57.43341439 12.23990247 55.25319592 18.125 52.625 C15.12101026 49.41890698 12.00167883 47.66906702 8.125 45.625 C7.465 45.625 6.805 45.625 6.125 45.625 C5.8775 44.944375 5.63 44.26375 5.375 43.5625 C3.88302092 40.05634917 2.05664489 36.90879632 0.125 33.625 C-0.205 33.625 -0.535 33.625 -0.875 33.625 Z " fill="#000000" transform="translate(87.875,-0.625)"/>
<path d="M0 0 C1.36430145 -0.00788544 1.36430145 -0.00788544 2.75616455 -0.01593018 C5.75688955 -0.02911316 8.75708228 -0.02039801 11.7578125 -0.01025391 C13.84619244 -0.01227513 15.93457169 -0.01518697 18.02294922 -0.01895142 C22.39752937 -0.02337247 26.77192562 -0.01695065 31.14648438 -0.00292969 C36.75213255 0.01416194 42.35734981 0.00431961 47.96298218 -0.01364708 C52.27469119 -0.02449074 56.58629815 -0.02103587 60.89801025 -0.0132637 C62.96486461 -0.01126331 65.03172826 -0.0137153 67.09857178 -0.02070236 C69.987839 -0.02832629 72.87640962 -0.01669919 75.765625 0 C77.04533173 -0.00910904 77.04533173 -0.00910904 78.35089111 -0.0184021 C83.02559714 0.03161896 86.06895018 0.38381841 89.8828125 3.38818359 C92.44913767 6.80995048 92.24716301 10.23458781 91.8828125 14.38818359 C90.47820553 17.26124331 89.13770251 19.13329358 86.8828125 21.38818359 C82.42923721 22.70114417 77.85960818 22.54291012 73.25634766 22.54931641 C72.39879379 22.55428131 71.54123993 22.55924622 70.65769958 22.56436157 C67.82908314 22.57893156 65.00052275 22.585776 62.171875 22.59130859 C60.20038858 22.59706358 58.22890217 22.60282127 56.25741577 22.60858154 C52.126686 22.61907633 47.9959756 22.62492919 43.86523438 22.62841797 C38.58042636 22.63390446 33.29587574 22.6579423 28.01114845 22.68638992 C23.93957781 22.7050399 19.86806894 22.71022313 15.7964592 22.71175385 C13.8484697 22.71477473 11.90048114 22.72278418 9.95253372 22.73593903 C7.22417999 22.7530515 4.49645248 22.75110679 1.76806641 22.74462891 C0.96887283 22.75384369 0.16967926 22.76305847 -0.6537323 22.77255249 C-5.86102789 22.7339502 -9.51410281 21.88524504 -14.1171875 19.38818359 C-16.33385626 16.06318046 -16.88856663 14.35094531 -17.1171875 10.38818359 C-15.98382865 6.67328514 -15.10107327 4.19685944 -12.06982422 1.70541382 C-7.98534375 -0.11675451 -4.42501407 -0.03149755 0 0 Z " fill="#000000" transform="translate(233.1171875,437.61181640625)"/>
<path d="M0 0 C2.58297781 2.18991597 4.48415844 3.96831688 6 7 C6.10864078 9.59752274 6.15731655 12.16864399 6.16113281 14.7668457 C6.16609772 15.56865265 6.17106262 16.37045959 6.17617798 17.19656372 C6.19081509 19.85631155 6.19760455 22.51599972 6.203125 25.17578125 C6.20887566 27.02182518 6.21463341 28.86786908 6.22039795 30.71391296 C6.23091268 34.58849364 6.23675209 38.46305354 6.24023438 42.33764648 C6.24571674 47.30101754 6.26973726 52.26411392 6.29820633 57.22739887 C6.31683711 61.04240214 6.32203857 64.85733935 6.32357025 68.67238426 C6.32659687 70.50201098 6.33462573 72.33163653 6.34775543 74.16121864 C6.36482342 76.72268121 6.36293384 79.28347423 6.35644531 81.8449707 C6.3656601 82.59996353 6.37487488 83.35495636 6.3843689 84.13282776 C6.34892611 88.60272134 5.78412 91.46336756 3 95 C-1.2340218 97.8226812 -5.02817503 97.785025 -10 97 C-13.61245808 94.34594916 -15.26401883 92.35713443 -16 88 C-16.10393342 85.45937906 -16.1571512 82.94578534 -16.16113281 80.4050293 C-16.16609772 79.64515717 -16.17106262 78.88528503 -16.17617798 78.10238647 C-16.19076134 75.59298795 -16.19759531 73.08365266 -16.203125 70.57421875 C-16.20887973 68.82550556 -16.21463742 67.07679239 -16.22039795 65.32807922 C-16.23089714 61.66215726 -16.23674684 57.99625715 -16.24023438 54.33032227 C-16.24571595 49.64296543 -16.26974131 44.95589952 -16.29820633 40.26863384 C-16.31687049 36.65600247 -16.32204032 33.04344065 -16.32357025 29.43076515 C-16.32658892 27.70326968 -16.33459084 25.9757752 -16.34775543 24.24832726 C-16.36489483 21.82638055 -16.36291669 19.40513778 -16.35644531 16.9831543 C-16.3656601 16.27589706 -16.37487488 15.56863983 -16.3843689 14.83995056 C-16.34224963 9.78365841 -15.32317003 6.40250048 -13 2 C-8.52732607 -1.25285376 -5.2750801 -1.53456876 0 0 Z " fill="#000000" transform="translate(404,415)"/>
<path d="M0 0 C0.97147224 -0.01029488 0.97147224 -0.01029488 1.96257019 -0.02079773 C4.09701645 -0.03905476 6.23072702 -0.03523067 8.36523438 -0.02954102 C9.8520939 -0.034103 11.33895131 -0.03940862 12.82580566 -0.04542542 C15.93945898 -0.05435401 19.05285577 -0.05193599 22.16650391 -0.04199219 C26.15485676 -0.03049544 30.14232517 -0.05072493 34.13056183 -0.07990932 C37.20011 -0.09826175 40.26944576 -0.09798099 43.33903503 -0.0922718 C44.80943544 -0.09211851 46.27985018 -0.09816982 47.75019836 -0.11056328 C49.80668545 -0.1254569 51.86153271 -0.114812 53.91796875 -0.09765625 C55.08726929 -0.09749008 56.25656982 -0.09732391 57.46130371 -0.09715271 C61.09504672 0.51040092 62.24307951 1.51486659 64.45898438 4.40405273 C65.97585908 8.95467686 66.17794261 12.7863967 64.20898438 17.21655273 C62.29893569 19.6041136 61.27854006 20.31309548 58.45898438 21.40405273 C55.61988831 21.66474915 55.61988831 21.66474915 52.30102539 21.67871094 C51.0561586 21.68824295 49.81129181 21.69777496 48.52870178 21.70759583 C47.17343111 21.70733439 45.81816042 21.70639728 44.46289062 21.70483398 C43.06810885 21.7087229 41.67332826 21.71305797 40.27854919 21.71781921 C37.357454 21.72527374 34.43647969 21.72499577 31.51538086 21.71972656 C27.77837219 21.71393291 24.04185931 21.73086355 20.30493259 21.75407124 C17.42495345 21.76882765 14.54509319 21.76967771 11.66508293 21.76656151 C10.28761755 21.76707377 8.91014535 21.77229362 7.53271675 21.78237343 C5.60396251 21.794756 3.67510786 21.78599357 1.74633789 21.77636719 C0.65031754 21.77699661 -0.44570282 21.77762604 -1.57493591 21.77827454 C-4.97220705 21.34965054 -6.81680216 20.4531408 -9.54101562 18.40405273 C-11.93879489 14.45931911 -12.90535775 11.64758199 -11.97851562 7.15405273 C-10.35817363 0.87365739 -5.93215124 0.02741068 0 0 Z " fill="#000000" transform="translate(243.541015625,396.595947265625)"/>
<path d="M0 0 C3.53684081 2.99862591 5.78275426 5.08823745 6.3125 9.75 C5.91485635 13.88549396 4.65876389 15.83822672 2 19 C-1.0774905 20.91303463 -2.85809708 21.00253398 -6.5 20.9375 C-10.75107809 19.79881837 -12.35945923 18.49483337 -15 15 C-16.34418906 11.13545647 -16.0762231 9.264539 -14.9375 5.3125 C-11.31590664 -0.87925639 -6.74009887 -1.96075604 0 0 Z " fill="#000000" transform="translate(404,373)"/>
</svg>
